<?xml version="1.0" encoding="utf-8"?>
<!-- Generator: Adobe Illustrator 22.1.0, SVG Export Plug-In . SVG Version: 6.00 Build 0)  -->
<svg version="1.1" id="Layer_1" xmlns="http://www.w3.org/2000/svg" xmlns:xlink="http://www.w3.org/1999/xlink" x="0px" y="0px"
	 viewBox="326.3 5 530 585.3" style="enable-background:new 326.3 5 530 585.3;" xml:space="preserve">
<style type="text/css">
	.st0{fill:#FF1D38;}
	.st1{fill:#FFFFFF;}
</style>
<path class="st0" d="M856.3,259.8c0-13.8-11.2-25.1-25.1-25.1h-64.8l2.4-6.7c0.8-2.3,1.3-4.7,1.3-7.2c0-5.1-1.8-10-5.2-13.9
	l-2.8-3.2l2.7-3.3c2.6-3.2,4-7.2,4-11.2V176c0-67.6-48.1-126-114.5-139l-4.6-0.9l0.6-4.7c0.1-1,0.2-2.1,0.2-3.1
	c0-12.9-10.5-23.3-23.3-23.3c-12.9,0-23.3,10.5-23.3,23.3c0,1,0.1,2.1,0.2,3.1l0.6,4.7l-4.6,0.9C533.8,50,485.7,108.4,485.7,176
	v13.3c0,4.1,1.4,8.1,4,11.2l2.7,3.3l-2.7,3.2c-3.3,3.9-5.2,8.8-5.2,13.9c0,2.5,0.4,4.9,1.2,7.2l2.4,6.7H330c-2.1,0-3.7,1.7-3.7,3.7
	c0,2.1,1.7,3.7,3.7,3.7h73.8l-3.3,7.1c-1.5,3.3-2.3,6.9-2.3,10.5v179.4c0,29.9,22.4,55.5,52,59.5l4.3,0.6v21l-3.9,0.9
	c-15.8,3.5-27.3,17.9-27.3,34.1c0,19.3,15.7,35,35,35c16.2,0,30.6-11.5,34.1-27.3l0.9-3.9h267.9l0.9,3.9
	c3.5,15.8,17.9,27.3,34.1,27.3c19.3,0,35-15.7,35-35c0-16.2-11.5-30.6-27.3-34.1l-3.9-0.9v-21l4.3-0.6c29.7-4,52-29.6,52-59.5V259.8
	z M627.2,12.4c8.8,0,15.9,7.1,15.9,15.9c0,0.7-0.1,1.5-0.2,2.2l-0.7,4.6l-4.6-0.3c-7-0.5-13.8-0.5-20.8,0l-4.6,0.3l-0.7-4.6
	c-0.1-0.7-0.2-1.5-0.2-2.2C611.4,19.6,618.5,12.4,627.2,12.4z M503.8,207.1l0.7-0.1h153.9c2.1,0,3.7-1.7,3.7-3.7
	c0-2.1-1.7-3.7-3.7-3.7h-155c-5.7,0-10.3-4.6-10.3-10.3V176c0-74,60.2-134.1,134.1-134.1c74,0,134.1,60.2,134.1,134.1v13.3
	c0,5.7-4.6,10.3-10.3,10.3h-60.2c-2.1,0-3.7,1.7-3.7,3.7c0,2.1,1.7,3.7,3.7,3.7h57.9c7.6,0.1,13.8,6.3,13.8,13.9
	c0,7.7-6.2,13.9-13.9,13.9h-243c-7.7,0-13.9-6.2-13.9-13.9C491.9,213.9,497,208,503.8,207.1z M631,438.7l0-0.7V242.2h105.2v197.1
	c0,0.4,0,0.8,0,1.2l0,0.6l0,0.2c-1,28.4-24.1,50.7-52.6,50.7c-28.4,0-51.5-22.3-52.6-50.7l0-0.1l0-0.8c0-0.3,0-0.6,0-1
	C631,439.1,631,438.9,631,438.7z M405.6,439.2V259.8c0-9.7,7.9-17.6,17.6-17.6h87.6v136.2c0,2.1,1.7,3.7,3.7,3.7
	c2.1,0,3.7-1.7,3.7-3.7V242.2h105.2v197.1c0,0.4,0,0.7,0,1.1l0,0.7l0,0.2c-1,28.4-24.1,50.7-52.6,50.7c-28.5,0-51.6-22.3-52.6-50.7
	l0-0.1l0-0.8c0-0.3,0-0.6,0-1c0-0.2,0-0.4,0-0.5l0-0.6v-27.1c0-2.1-1.7-3.7-3.7-3.7c-2.1,0-3.7,1.7-3.7,3.7v28.3c0,0.4,0,0.7,0,1.1
	l0,0.7l0,0.2c-1,28.4-24.1,50.7-52.6,50.7C429.3,491.9,405.6,468.2,405.6,439.2z M458.3,582.8c-15.2,0-27.5-12.4-27.5-27.5
	c0-15.2,12.4-27.5,27.5-27.5c15.2,0,27.5,12.4,27.5,27.5C485.8,570.5,473.5,582.8,458.3,582.8z M761.2,551.6H493.3l-0.9-3.9
	c-2.9-13.2-13.3-23.6-26.5-26.5l-3.9-0.9v-21l4.3-0.6c18.2-2.5,34.7-13.5,43.9-29.5l4.3-7.5l4.3,7.5c10.7,18.5,30.7,30,52,30
	c21.3,0,41.2-11.5,52-30l4.3-7.5l4.3,7.5c10.7,18.5,30.7,30,52,30s41.2-11.5,52-30l4.3-7.5l4.3,7.5c9.3,16,25.7,27,43.9,29.5
	l4.3,0.6v21l-3.9,0.9c-13.2,2.9-23.6,13.3-26.5,26.5L761.2,551.6z M823.7,555.3c0,15.2-12.4,27.5-27.5,27.5
	c-15.2,0-27.5-12.4-27.5-27.5c0-15.2,12.4-27.5,27.5-27.5C811.4,527.8,823.7,540.1,823.7,555.3z M848.9,444.2h-0.2
	c-2.5,26.7-25.1,47.6-52.4,47.6c-28.4,0-51.6-22.3-52.6-50.7l0-0.2l0-0.6c0-0.4,0-0.8,0-1.2c0-0.1,0-0.3,0-0.5l0-0.7V242.2h87.7
	c9.7,0,17.6,7.9,17.6,17.6V444.2z"/>
<path class="st1" d="M573.5,127.4c0.7,1.2,1.9,1.9,3.2,1.9c0.7,0,1.3-0.2,1.8-0.5c0.9-0.5,1.5-1.3,1.7-2.3c0.3-1,0.1-2-0.4-2.8
	c-4.3-7.5-12.4-12.2-21.1-12.2c-8.7,0-16.8,4.7-21.1,12.2c-0.5,0.9-0.6,1.9-0.4,2.8c0.3,1,0.9,1.8,1.7,2.3c1.8,1,4.1,0.3,5.1-1.4
	c3-5.2,8.6-8.5,14.7-8.5C564.9,118.9,570.5,122.2,573.5,127.4z"/>
<path class="st1" d="M656.6,126c0-2.1-1.7-3.7-3.7-3.7h-40c-2.1,0-3.7,1.7-3.7,3.7v15c0,13.1,10.6,23.7,23.7,23.7
	c13.1,0,23.7-10.6,23.7-23.7V126z M649.2,141c0,9-7.3,16.3-16.3,16.3c-9,0-16.3-7.3-16.3-16.3v-11.3h32.6V141z"/>
<path class="st1" d="M706.9,130.7c2.1,0,3.7-1.7,3.7-3.7v-13.2c0-2.1-1.7-3.7-3.7-3.7c-2.1,0-3.7,1.7-3.7,3.7V127
	C703.2,129,704.9,130.7,706.9,130.7z"/>
<path class="st1" d="M700.3,155.6h13.2c2.1,0,3.7-1.7,3.7-3.7c0-2.1-1.7-3.7-3.7-3.7h-13.2c-2.1,0-3.7,1.7-3.7,3.7
	C696.6,154,698.3,155.6,700.3,155.6z"/>
<path class="st1" d="M552.3,155.6h13.2c2.1,0,3.7-1.7,3.7-3.7c0-2.1-1.7-3.7-3.7-3.7h-13.2c-2.1,0-3.7,1.7-3.7,3.7
	C548.5,154,550.2,155.6,552.3,155.6z"/>
</svg>
