<?xml version="1.0" encoding="utf-8"?>
<!-- Generator: Adobe Illustrator 22.1.0, SVG Export Plug-In . SVG Version: 6.00 Build 0)  -->
<svg version="1.1" id="Capa_1" xmlns="http://www.w3.org/2000/svg" xmlns:xlink="http://www.w3.org/1999/xlink" x="0px" y="0px"
	 viewBox="373.1 6 444.4 464.2" style="enable-background:new 373.1 6 444.4 464.2;" xml:space="preserve">
<style type="text/css">
	.st0{fill:#0A174C;}
</style>
<path class="st0" d="M377,470.2h436.5c2.2,0,3.9-1.8,3.9-3.9V178.6c0-2.2-1.8-3.9-3.9-3.9H650.9v7.8h158.7v279.9H450.4v-25.8
	c0-14.3,11.6-25.8,25.8-25.8h248c18.6,0,33.7-15.1,33.7-33.7c0-18.6-15.1-33.7-33.7-33.7H515.9c-14.2,0-25.8-11.6-25.8-25.8
	s11.6-25.8,25.8-25.8h168.7c18.6,0,33.7-15.1,33.7-33.7c0-18.6-15.1-33.7-33.7-33.7H625c-14.3,0-25.8-11.6-25.8-25.8v-7.9l2.3-1.8
	c19-14.9,35.4-32.7,48.7-52.9l10.2-19.4c5.3-11.8,8-24.3,8.2-37.1c0-40.4-32.9-73.3-73.4-73.3c-40.5,0-73.4,32.9-73.4,73.4
	c0.2,12.8,3,25.3,8.2,37.1l10.2,19.4c13.3,20.2,29.7,38,48.7,52.9l2.3,1.8v7.9c0,18.6,15.1,33.7,33.7,33.7h59.5
	c14.3,0,25.8,11.6,25.8,25.8s-11.6,25.8-25.8,25.8H515.9c-18.6,0-33.7,15.1-33.7,33.7s15.1,33.7,33.7,33.7h208.3
	c14.3,0,25.8,11.6,25.8,25.8c0,14.2-11.6,25.8-25.8,25.8h-248c-18.6,0-33.7,15.1-33.7,33.7v25.8h-61.6V182.5h158.7v-7.8H377
	c-2.2,0-3.9,1.8-3.9,3.9v287.7C373.1,468.5,374.8,470.2,377,470.2z M595.3,183.7l-3.8-3.1c-18.6-15.1-61.7-55.3-61.7-101.2
	c0-36.1,29.4-65.5,65.5-65.5h0c36.1,0,65.5,29.4,65.5,65.5c0,46-43.2,86.1-61.7,101.2L595.3,183.7z"/>
<path class="st0" d="M595.3,45.7c-18.6,0-33.7,15.1-33.7,33.7c0,18.6,15.1,33.7,33.7,33.7S629,97.9,629,79.4
	C629,60.8,613.8,45.7,595.3,45.7z M595.3,105.2c-14.2,0-25.8-11.6-25.8-25.8c0-14.2,11.6-25.8,25.8-25.8c14.3,0,25.8,11.6,25.8,25.8
	C621.1,93.6,609.5,105.2,595.3,105.2z"/>
</svg>
