<?xml version="1.0" encoding="utf-8"?>
<!-- Generator: Adobe Illustrator 22.1.0, SVG Export Plug-In . SVG Version: 6.00 Build 0)  -->
<svg version="1.1" id="Layer_1" xmlns="http://www.w3.org/2000/svg" xmlns:xlink="http://www.w3.org/1999/xlink" x="0px" y="0px"
	 viewBox="303.1 20.4 584.3 554.5" style="enable-background:new 303.1 20.4 584.3 554.5;" xml:space="preserve">
<style type="text/css">
	.st0{fill:#EFC94D;}
</style>
<g>
	<path class="st0" d="M303.1,570.5c0,2.4,2,4.4,4.4,4.4H883c2.4,0,4.4-2,4.4-4.4v-19.8c0-13.4-10.9-24.3-24.3-24.3H647.9l-16.3-40.8
		h231.6c2.4,0,4.4-2,4.4-4.4v-19.8c0-10.3-6.6-19.4-16.3-22.8l-3.6-1.2l-0.1-3.8c-4.3-131.7-110.9-239-242.5-244.2l-5.3-0.2v-30.9
		H625c13.4,0,24.3-10.9,24.3-24.3c0-13.4-10.9-24.3-24.3-24.3h-59.5c-13.4,0-24.3,10.9-24.3,24.3c0,13.4,10.9,24.3,24.3,24.3h25.3
		v30.9l-5.3,0.2C453.9,194.5,347.3,301.8,343,433.5l-0.1,3.8l-3.6,1.2c-9.7,3.3-16.3,12.5-16.3,22.8v19.8c0,2.4,2,4.4,4.4,4.4H559
		l-16.3,40.8H327.4c-13.4,0-24.3,10.9-24.3,24.3V570.5z M565.5,149.4c-8.5,0-15.4-6.9-15.4-15.4c0-8.5,6.9-15.4,15.4-15.4H625
		c8.5,0,15.4,6.9,15.4,15.4c0,8.5-6.9,15.4-15.4,15.4H565.5z M351.9,431.3c2.7-63.1,29.3-121.9,74.8-165.6
		c45.6-43.7,105.4-67.8,168.5-67.9c63.1,0.1,123,24.2,168.6,67.9c45.6,43.7,72.1,102.5,74.8,165.6l0.2,5.7H351.6L351.9,431.3z
		 M331.8,476.8v-15.4c0-8.5,6.9-15.4,15.4-15.4h496.1c8.5,0,15.4,6.9,15.4,15.4v15.4H331.8z M568.5,485.6H622l16.3,40.8h-86.2
		L568.5,485.6z M312,550.6c0-8.5,6.9-15.4,15.4-15.4h535.8c8.5,0,15.4,6.9,15.4,15.4v15.4H312V550.6z"/>
	<path class="st0" d="M493.4,264.8l-4.2-7.8c-42.5,24.4-75.1,62.6-92.6,108.4l8.3,2.9C421.6,324.6,452.8,288.2,493.4,264.8z"/>
	<path class="st0" d="M522.7,250.9c3-1.1,6-2.2,9-3.2l-2.5-8.5c-3.3,1.1-6.6,2.3-9.9,3.5L522.7,250.9z"/>
	<rect x="590.9" y="20.4" class="st0" width="8.8" height="48.5"/>
	<rect x="461.9" y="129.5" class="st0" width="48.5" height="8.8"/>
	
		<rect x="510.3" y="39" transform="matrix(0.7071 -0.7071 0.7071 0.7071 106.0059 382.4897)" class="st0" width="8.8" height="48.5"/>
	
		<rect x="651.6" y="58.8" transform="matrix(0.7071 -0.7071 0.7071 0.7071 153.1938 496.3959)" class="st0" width="48.5" height="8.8"/>
	<rect x="680.1" y="129.5" class="st0" width="48.5" height="8.8"/>
</g>
</svg>
