<?xml version="1.0" encoding="utf-8"?>
<!-- Generator: Adobe Illustrator 22.1.0, SVG Export Plug-In . SVG Version: 6.00 Build 0)  -->
<svg version="1.1" id="Layer_1" xmlns="http://www.w3.org/2000/svg" xmlns:xlink="http://www.w3.org/1999/xlink" x="0px" y="0px"
	 viewBox="0 0 392.3 392.3" style="enable-background:new 0 0 392.3 392.3;" xml:space="preserve">
<style type="text/css">
	.st0{fill:url(#SVGID_1_);}
	.st1{fill:url(#SVGID_2_);}
</style>
<g>
	<linearGradient id="SVGID_1_" gradientUnits="userSpaceOnUse" x1="0" y1="196.1597" x2="392.3203" y2="196.1597">
		<stop  offset="0" style="stop-color:#F99B2A"/>
		<stop  offset="1" style="stop-color:#EE294B"/>
	</linearGradient>
	<path class="st0" d="M196.2,0C88,0,0,88,0,196.2c0,108.2,88,196.2,196.2,196.2s196.2-88,196.2-196.2C392.3,88,304.3,0,196.2,0
		L196.2,0z M196.2,372.7c-97.4,0-176.6-79.2-176.6-176.6S98.8,19.6,196.2,19.6s176.6,79.2,176.6,176.6S293.5,372.7,196.2,372.7
		L196.2,372.7z M196.2,372.7"/>
	<linearGradient id="SVGID_2_" gradientUnits="userSpaceOnUse" x1="131.042" y1="196.1597" x2="260.8799" y2="196.1597">
		<stop  offset="0" style="stop-color:#F99B2A"/>
		<stop  offset="1" style="stop-color:#EE294B"/>
	</linearGradient>
	<path class="st1" d="M244.3,219.4l-38.4,38.4V111c0-5.4-4.4-9.8-9.8-9.8c-5.4,0-9.8,4.4-9.8,9.8v146.6l-38.4-38.4
		c-1.9-1.9-4.4-2.9-7-2.9c-2.6,0-5,1-7,2.9c-3.8,3.8-3.8,10,0,13.8l55.1,55.1c3.8,3.8,10,3.8,13.8,0l55.1-55.1
		c3.8-3.8,3.8-10,0-13.8C254.4,215.5,248.2,215.5,244.3,219.4L244.3,219.4z M244.3,219.4"/>
</g>
</svg>
