<svg xmlns="http://www.w3.org/2000/svg" viewBox="0 0 111.996 22.109">
  <defs>
    <style>
      .cls-1 {
        fill: #fff;
      }

      .cls-2 {
        fill: #f4f9fa;
      }
    </style>
  </defs>
  <g id="Group_316" data-name="Group 316" transform="translate(-20.591 -12.515)">
    <g id="Group_151" data-name="Group 151" transform="translate(20.591 12.515)">
      <g id="Group_150" data-name="Group 150">
        <g id="Group_149" data-name="Group 149">
          <g id="Group_146" data-name="Group 146">
            <path id="Path_295" data-name="Path 295" class="cls-1" d="M.932,31.745l-.414.544a6.777,6.777,0,0,0,4.155,1.359,5.7,5.7,0,0,0,3.184-.841A3.491,3.491,0,0,0,9.4,29.791a3.429,3.429,0,0,0-.492-1.864,3.919,3.919,0,0,0-1.359-1.282H7.534c-1-.583-2.175-.906-3.042-1.333a3.308,3.308,0,0,1-.984-.647.985.985,0,0,1-.3-.751.871.871,0,0,1,.311-.725,1.914,1.914,0,0,1,1.2-.324,5.6,5.6,0,0,1,2.317.544l.764.375.518-2.2-.453-.259A7.125,7.125,0,0,0,4.738,20.6a4.377,4.377,0,0,0-2.731.854A3.2,3.2,0,0,0,.8,24.043a3.027,3.027,0,0,0,.544,1.8,4.678,4.678,0,0,0,2.045,1.463c.764.337,1.579.6,2.278.932a2.845,2.845,0,0,1,1.023.725,1.252,1.252,0,0,1,.285.867,1.312,1.312,0,0,1-.6,1.191,3.024,3.024,0,0,1-1.618.4,5.584,5.584,0,0,1-3.016-.932L1.217,30.1,0,31.9l.518.388.414-.544.57.388.479-.7-.57-.388-.375.57a6.893,6.893,0,0,0,3.754,1.152,4.435,4.435,0,0,0,2.382-.621,2.833,2.833,0,0,0,.621-4.065,4.319,4.319,0,0,0-1.5-1.087c-1.087-.5-2.2-.828-2.951-1.256a2.581,2.581,0,0,1-.841-.686,1.616,1.616,0,0,1-.285-1.01A1.84,1.84,0,0,1,2.9,22.529a3.054,3.054,0,0,1,1.877-.557,5.922,5.922,0,0,1,2.459.544l.337-.6-.66-.155-.207.867.66.155.3-.621a6.932,6.932,0,0,0-2.913-.686A3.283,3.283,0,0,0,2.68,22.1a2.209,2.209,0,0,0-.816,1.786,2.47,2.47,0,0,0,.66,1.683A6,6,0,0,0,4.7,26.865a16.387,16.387,0,0,1,2.149.932l.35-.583-.362.583a2.621,2.621,0,0,1,.906.841,2.056,2.056,0,0,1,.285,1.139,2.1,2.1,0,0,1-.919,1.9,4.414,4.414,0,0,1-2.421.608A5.461,5.461,0,0,1,1.346,31.2l-.414.544.57.388Z" transform="translate(0 -17.933)"/>
            <path id="Path_296" data-name="Path 296" class="cls-1" d="M94.014,10.614h-.686a2.733,2.733,0,0,1-.259,1.243v.026a2.93,2.93,0,0,1-2.654,1.592A2.681,2.681,0,0,1,88.1,12.233a5.479,5.479,0,0,1-.815-3,4.888,4.888,0,0,1,.958-3.081,3.35,3.35,0,0,1,2.718-1.217c.764,0,2.188.181,2.964.181h.129l-.013-.686h-.686v6.187H94.7V3.728l-.7.026H93.91c-.608,0-2.045-.181-2.964-.181a4.677,4.677,0,0,0-3.78,1.722A6.224,6.224,0,0,0,85.91,9.229,6.688,6.688,0,0,0,86.972,13a4.06,4.06,0,0,0,3.443,1.838A4.291,4.291,0,0,0,94.3,12.478l-.608-.3.608.324a4.1,4.1,0,0,0,.414-1.89h-.7Zm2.421,3.171-.518-.453a.278.278,0,0,1-.194.065.376.376,0,0,1-.207-.078.261.261,0,0,1-.091-.207V2.887H93.6v.686L93.69,2.9a25.431,25.431,0,0,0-2.848-.207,5.979,5.979,0,0,0-4.556,1.864,6.931,6.931,0,0,0-1.618,4.725,7.429,7.429,0,0,0,1.32,4.466,5.042,5.042,0,0,0,4.155,1.993,4.931,4.931,0,0,0,2.6-.66,4.215,4.215,0,0,0,1.722-2.162l-.634-.246-.673-.117a3.23,3.23,0,0,0-.052.544,2.621,2.621,0,0,0,.764,1.864,2.663,2.663,0,0,0,1.877.777,2.459,2.459,0,0,0,2.019-1l.44-.583-1.9-1.243-.388.44.518.427-.375.57.79.518.375-.57-.544-.414a1.093,1.093,0,0,1-.932.453,1.239,1.239,0,0,1-1.269-1.269,1.925,1.925,0,0,1,.039-.324L93.2,12.4a2.743,2.743,0,0,1-1.152,1.476,3.967,3.967,0,0,1-4.932-.984,6.026,6.026,0,0,1-1.048-3.637A5.568,5.568,0,0,1,87.334,5.45a4.578,4.578,0,0,1,3.547-1.411,25.377,25.377,0,0,1,2.654.194h.557v8.854a1.652,1.652,0,0,0,1.657,1.657,1.606,1.606,0,0,0,1.217-.531l-.531-.427-.375.57Zm-17.19-10.2h.686V0H77.6V11.65a4.859,4.859,0,0,0,.738,2.887,3.154,3.154,0,0,0,2.692,1.191,3.889,3.889,0,0,0,3.508-1.981l.337-.544L83.088,11.9l-.388.634a1.9,1.9,0,0,1-1.67.945c-.583-.026-.7-.142-.854-.362a3.052,3.052,0,0,1-.259-1.45V5.23h3.65V2.913H79.244v.673h0v.686h2.977v.272h.686V3.857H78.558V11.65a4.172,4.172,0,0,0,.453,2.162,2.208,2.208,0,0,0,2.032,1.023,3.326,3.326,0,0,0,2.835-1.592L83.3,12.88l-.4.557.686.5.4-.557-.582-.362a2.494,2.494,0,0,1-2.343,1.333,1.777,1.777,0,0,1-1.592-.634,3.548,3.548,0,0,1-.479-2.071V1.372h.272V.686h-.7V4.272h.686Z" transform="translate(-67.555)"/>
            <path id="Path_297" data-name="Path 297" class="cls-1" d="M235.625,29.7h-.686v4.518a2.337,2.337,0,0,1-.479,1.527,1.659,1.659,0,0,1-2.421.013,2.139,2.139,0,0,1-.453-1.385,2.04,2.04,0,0,1,.35-1.23,3.158,3.158,0,0,1,1.139-.906l1.165-.608-.324-.608.311.608a5.473,5.473,0,0,0,1.346-.958l-.466-.5.466.5.518-.479-.466-.492h0l-.466-.5-.518.479-.013.013a4.145,4.145,0,0,1-1.023.725l-1.178.621a4.543,4.543,0,0,0-1.618,1.32,3.432,3.432,0,0,0-.608,2.032,3.521,3.521,0,0,0,.777,2.278,2.833,2.833,0,0,0,2.239,1,2.885,2.885,0,0,0,2.265-1.023,3.725,3.725,0,0,0,.8-2.408V28.142l-1.152,1.049Zm-8.906-9.009-.427.531a4.709,4.709,0,0,1,.673.673,2.7,2.7,0,0,1,.233.349.42.42,0,0,1,.052.168V28.22a3.693,3.693,0,0,0,1.191,2.938,4.96,4.96,0,0,0,3.262,1v-.686l-.117-.673a2.51,2.51,0,0,0-1.8,1.476,4.959,4.959,0,0,0-.466,2.149,4.407,4.407,0,0,0,.971,2.835,3.778,3.778,0,0,0,2.951,1.307,3.818,3.818,0,0,0,2.861-1.178,4.69,4.69,0,0,0,1.1-3.262V19.314h-2.3v8.155h.686l-.686-.052a1.157,1.157,0,0,1-.246.79l.57.388-.531-.44a3.8,3.8,0,0,1-3.107,1.709,1.907,1.907,0,0,1-1.527-.531,2.48,2.48,0,0,1-.492-1.722v-5.2a2.98,2.98,0,0,0-.608-1.8,6.679,6.679,0,0,0-1.307-1.256l-.583-.453L225.8,20.842l.492.388.427-.544.57.375.518-.79-.57-.375-.427.544a5.23,5.23,0,0,1,1.049,1,1.629,1.629,0,0,1,.35.984v5.23a3.878,3.878,0,0,0,.841,2.641,3.262,3.262,0,0,0,2.537.971,5.124,5.124,0,0,0,4.155-2.2l.026-.026.013-.026a2.586,2.586,0,0,0,.479-1.476V20.686h.246V20h-.686V34.123a3.332,3.332,0,0,1-.738,2.33,2.432,2.432,0,0,1-1.851.738,2.4,2.4,0,0,1-1.916-.816,2.989,2.989,0,0,1-.647-1.955A3.723,3.723,0,0,1,231,32.867a1.136,1.136,0,0,1,.8-.725l-.1-1.359a3.709,3.709,0,0,1-2.382-.66,2.342,2.342,0,0,1-.712-1.9V22.408a2.238,2.238,0,0,0-.6-1.372,5.654,5.654,0,0,0-.893-.88l-.4.531.57.375Z" transform="translate(-196.571 -16.453)"/>
          </g>
          <g id="Group_148" data-name="Group 148" transform="translate(41.293 0.634)">
            <g id="Group_147" data-name="Group 147" transform="translate(2.731 1.191)">
              <path id="Path_298" data-name="Path 298" class="cls-1" d="M451.991,15.1a6.125,6.125,0,0,0-4.582,1.9,6.74,6.74,0,0,0-1.709,4.673,6.646,6.646,0,0,0,1.709,4.621,6.567,6.567,0,0,0,9.1.039,6.615,6.615,0,0,0,1.761-4.686,6.722,6.722,0,0,0-1.735-4.686A6.16,6.16,0,0,0,451.991,15.1Zm-2.913,3.482a3.656,3.656,0,0,1,2.9-1.217,3.7,3.7,0,0,1,2.822,1.126,4.342,4.342,0,0,1,1.074,3.068,4.691,4.691,0,0,1-1.035,3.12,3.629,3.629,0,0,1-2.861,1.217,3.742,3.742,0,0,1-2.861-1.165,4.505,4.505,0,0,1-1.074-3.081A4.735,4.735,0,0,1,449.078,18.582Z" transform="translate(-432.031 -14.971)"/>
              <path id="Path_299" data-name="Path 299" class="cls-1" d="M545.917,14.229a4.976,4.976,0,0,0-2.55.634,3.656,3.656,0,0,0-.919.764,3.481,3.481,0,0,0-.906-1.126l-.479-.4L539.6,15.563l.427.479a3.312,3.312,0,0,1,.686,2.291V33.077h2.3V27.122c.777.078,1.644.142,2.239.142a5.96,5.96,0,0,0,4.582-1.877,6.912,6.912,0,0,0,1.605-4.712,7.358,7.358,0,0,0-1.346-4.492A5.172,5.172,0,0,0,545.917,14.229Zm2.175,9.644a3.782,3.782,0,0,1-2.951,1.152A21.346,21.346,0,0,1,543,24.857v-5.9a2.492,2.492,0,0,1,.984-1.76,3.259,3.259,0,0,1,1.993-.712,2.633,2.633,0,0,1,2.227,1.217,5.442,5.442,0,0,1,.854,3.12A4.522,4.522,0,0,1,548.092,23.873Z" transform="translate(-513.776 -14.1)"/>
              <path id="Path_300" data-name="Path 300" class="cls-1" d="M634.017,14.229a4.976,4.976,0,0,0-2.55.634,3.655,3.655,0,0,0-.919.764,3.483,3.483,0,0,0-.906-1.126l-.479-.4L627.7,15.563l.427.479a3.312,3.312,0,0,1,.686,2.291V33.077h2.3V27.122c.777.078,1.644.142,2.239.142a5.96,5.96,0,0,0,4.582-1.877,6.912,6.912,0,0,0,1.605-4.712,7.359,7.359,0,0,0-1.346-4.492A5.172,5.172,0,0,0,634.017,14.229Zm2.175,9.644a3.782,3.782,0,0,1-2.951,1.152,21.338,21.338,0,0,1-2.136-.168v-5.9a2.492,2.492,0,0,1,.984-1.76,3.259,3.259,0,0,1,1.993-.712,2.633,2.633,0,0,1,2.226,1.217,5.44,5.44,0,0,1,.854,3.12A4.393,4.393,0,0,1,636.192,23.873Z" transform="translate(-590.472 -14.1)"/>
              <path id="Path_301" data-name="Path 301" class="cls-1" d="M732.535,25.011a7,7,0,0,1-3.34.971,3.013,3.013,0,0,1-2.33-.841,3.623,3.623,0,0,1-.854-1.76h2.11a7.138,7.138,0,0,0,4-.984,3.6,3.6,0,0,0,1.644-3.107,3.9,3.9,0,0,0-1.4-3.029,5.345,5.345,0,0,0-7.611,1.269A8.455,8.455,0,0,0,723.5,22.15a6.523,6.523,0,0,0,1.372,4.311,5.441,5.441,0,0,0,4.336,1.773,8.151,8.151,0,0,0,4.466-1.333l.557-.362-1.113-1.812Zm-3.366-7.637a2.676,2.676,0,0,1,1.592.492,1.6,1.6,0,0,1,.647,1.4,1.448,1.448,0,0,1-.8,1.385,5.319,5.319,0,0,1-2.485.479h-2.239a5.539,5.539,0,0,1,.777-2.3A2.889,2.889,0,0,1,729.17,17.374Z" transform="translate(-673.871 -15.057)"/>
              <path id="Path_302" data-name="Path 302" class="cls-1" d="M810.595,14.5a7.107,7.107,0,0,0-1.307-.168,4.232,4.232,0,0,0-2.265.583h-.013a4.843,4.843,0,0,0-.984.893,3.681,3.681,0,0,0-.984-1.217l-.479-.388L803.1,15.663l.427.479a3.313,3.313,0,0,1,.686,2.291v8.7h2.317v-8.66a5.22,5.22,0,0,1,1.126-1.385,2.435,2.435,0,0,1,1.657-.479,5.3,5.3,0,0,1,1.023.1l.8.142V14.6Z" transform="translate(-743.167 -14.187)"/>
              <path id="Path_303" data-name="Path 303" class="cls-1" d="M340.1,26.6v.013h0Z" transform="translate(-340.1 -24.982)"/>
            </g>
            <path id="Path_304" data-name="Path 304" class="cls-2" d="M334.637,18.246V9.935h-2.162l-.013,2.214c.1,1.217-1.139.984-1.139.984H325.8c-.065-1.7-1.98-1.838-3.236-1.76,0-.673,0-2.162-.013-3.391-.026-1.644-2.33-3.081-2.33-3.081L319,6.751a5.033,5.033,0,0,1,1.269,1.269l.065,10.226h2.252L322.6,16.1a.774.774,0,0,1,.893-.893l7.831-.026c1.1-.091,1.165.686,1.165.686l-.026,2.382Z" transform="translate(-319 -4.9)"/>
          </g>
        </g>
      </g>
    </g>
  </g>
</svg>
