<svg id="wireless-internet-connectivity" xmlns="http://www.w3.org/2000/svg" viewBox="0 0 65.521 50.305">
  <defs>
    <style>
      .cls-1 {
        fill: #0a174c;
      }
    </style>
  </defs>
  <g id="Group_9" data-name="Group 9" transform="translate(0 0)">
    <path id="Path_15" data-name="Path 15" class="cls-1" d="M202.775,356.514a4.422,4.422,0,1,0,4.422-4.422A4.415,4.415,0,0,0,202.775,356.514Zm4.738,0a.316.316,0,1,1-.316-.316C207.395,356.238,207.513,356.356,207.513,356.514Z" transform="translate(-174.516 -310.632)"/>
    <path id="Path_16" data-name="Path 16" class="cls-1" d="M120.836,167.172a2.492,2.492,0,0,0,1.737-.75,2.376,2.376,0,0,0-.158-3.356,30.948,30.948,0,0,0-41.737-.158,2.376,2.376,0,0,0,3.2,3.514,26.214,26.214,0,0,1,35.34.118A2.331,2.331,0,0,0,120.836,167.172Z" transform="translate(-68.766 -140.914)"/>
    <path id="Path_17" data-name="Path 17" class="cls-1" d="M166.368,264.6a2.492,2.492,0,0,0,1.737-.75,2.376,2.376,0,0,0-.158-3.356,17.839,17.839,0,0,0-24.086-.118,2.376,2.376,0,1,0,3.2,3.514,13.1,13.1,0,0,1,17.69.079A2.4,2.4,0,0,0,166.368,264.6Z" transform="translate(-123.144 -227.724)"/>
    <path id="Path_18" data-name="Path 18" class="cls-1" d="M63.165,71.216a2.492,2.492,0,0,0,1.737-.75,2.376,2.376,0,0,0-.158-3.356A47.453,47.453,0,0,0,.777,66.872a2.376,2.376,0,0,0,3.2,3.514,42.719,42.719,0,0,1,57.571.2A2.611,2.611,0,0,0,63.165,71.216Z" transform="translate(0 -54.592)"/>
  </g>
</svg>
