<?xml version="1.0" encoding="utf-8"?>
<!-- Generator: Adobe Illustrator 22.1.0, SVG Export Plug-In . SVG Version: 6.00 Build 0)  -->
<svg version="1.1" id="Capa_1" xmlns="http://www.w3.org/2000/svg" xmlns:xlink="http://www.w3.org/1999/xlink" x="0px" y="0px"
	 viewBox="0 0 512 512" style="enable-background:new 0 0 512 512;" xml:space="preserve">
<style type="text/css">
	.st0{fill:#0A174C;}
</style>
<g>
	<g>
		<path class="st0" d="M499.1,465h-3.6V352.5h-15V465h-17V153h-127v312h-57v-24h-24v-49h32v-26.6L275.1,353h-54.2l-12.4,12.4V392h32
			v49h-24v24h-65v-24h-24v-49h32v-26.6L147.1,353H92.9l-12.4,12.4V392h32v49h-24v24h-57V152.5h-15V465h-3.6L0.5,477.4V512h511v-34.6
			L499.1,465z M351.5,168h97v297h-97V168z M223.5,377v-5.4h0l3.6-3.6h41.8l3.6,3.6v5.4H223.5z M231.5,456h33v9h-33V456z M95.5,377
			v-5.4h0l3.6-3.6h41.8l3.6,3.6v5.4H95.5z M103.5,456h33v9h-33V456z M496.5,497h-481v-13.4l3.6-3.6h317.4h127h29.4l3.6,3.6V497z"/>
	</g>
</g>
<g>
	<g>
		<path class="st0" d="M0.5,0v43.6L12.9,56h3.6v80.5h15V120h449v216.5h15V56h3.6l12.4-12.4V0H0.5z M480.5,105h-449V88h449V105z
			 M480.5,73h-449V56h449V73z M496.5,37.4l-3.6,3.6H19.1l-3.6-3.6V15h481V37.4z"/>
	</g>
</g>
<g>
	<g>
		<rect x="112" y="249" class="st0" width="56" height="15"/>
	</g>
</g>
<g>
	<g>
		<rect x="184" y="249" class="st0" width="16" height="15"/>
	</g>
</g>
<g>
	<g>
		<path class="st0" d="M48.5,153v144v15v24h271v-24v-15V153H48.5z M304.5,321h-241v-9h241V321z M216.5,297h-121v-61.4l3.6-3.6h113.8
			l3.6,3.6L216.5,297L216.5,297z M263.5,297v-65h9v65H263.5z M304.5,297h-17v-80h-39v80h-17v-67.6L219.1,217H92.9l-12.4,12.4V297
			h-17V168h241V297z"/>
	</g>
</g>
<g>
	<g>
		<rect x="368.5" y="280.5" class="st0" width="15" height="56"/>
	</g>
</g>
</svg>
