<?xml version="1.0" encoding="utf-8"?>
<!-- Generator: Adobe Illustrator 22.1.0, SVG Export Plug-In . SVG Version: 6.00 Build 0)  -->
<svg version="1.1" id="Capa_1" xmlns="http://www.w3.org/2000/svg" xmlns:xlink="http://www.w3.org/1999/xlink" x="0px" y="0px"
	 viewBox="0 0 470.7 470.7" style="enable-background:new 0 0 470.7 470.7;" xml:space="preserve">
<style type="text/css">
	.st0{fill:#0A174C;}
</style>
<g>
	<g>
		<path class="st0" d="M80,152.3H6c-3.3,0-6,2.7-6,6s2.7,6,6,6h74c3.3,0,6-2.7,6-6S83.3,152.3,80,152.3z"/>
		<path class="st0" d="M7,84.5l66.1,37.6c0.9,0.5,2,0.8,3,0.8c2.1,0,4.1-1.1,5.2-3c1.6-2.9,0.6-6.5-2.2-8.2L12.9,74.1
			c-2.9-1.6-6.5-0.6-8.2,2.2C3.1,79.2,4.1,82.9,7,84.5z"/>
		<path class="st0" d="M73.1,194.5L7,232.1c-2.9,1.6-3.9,5.3-2.2,8.2c1.1,1.9,3.1,3,5.2,3c1,0,2-0.3,3-0.8L79,204.9
			c2.9-1.6,3.9-5.3,2.2-8.2C79.6,193.8,75.9,192.8,73.1,194.5z"/>
		<path class="st0" d="M467.2,118.9c-14.1-50.2-66.5-79.6-116.7-65.5c-9.6,2.7-148.9,46.6-176.4,55.3c-2.7-4.6-6.4-8.5-10.6-10.9
			l-29.6-17.1c-2.9-1.7-5.7-2.5-8.5-2.5c-7.6,0-12.9,6.1-12.9,14.8v138.6c0,8.7,5.3,14.8,12.9,14.8c2.8,0,5.7-0.8,8.5-2.5l29.6-17.1
			c4.8-2.8,9-7.6,11.8-13.1c17.5,3.3,80.1,14.7,136.5,20.8v64.9v40.5v52.8c0,15.5,12.6,28.1,28.1,28.1H396
			c15.5,0,28.1-12.6,28.1-28.1V226C460.2,204.7,479,161.1,467.2,118.9z M166.8,200.1c0,5.7-4.5,13.4-9.4,16.3l-29.6,17.1
			c-1.4,0.8-2.2,0.9-2.5,0.9c-0.1,0-0.2,0-0.2,0h0c-0.1-0.1-0.6-0.9-0.6-2.8V93c0-1.9,0.5-2.7,0.6-2.8c0,0,0.1,0,0.2,0
			c0.3,0,1.1,0.1,2.5,0.9l29.6,17.1c4.9,2.8,9.4,10.6,9.4,16.3L166.8,200.1L166.8,200.1z M323.8,299.4c0-0.7,0.6-1.4,1.4-1.4h10.3
			c0.7,0,1.4,0.6,1.4,1.4v40.5c0,0.7-0.6,1.4-1.4,1.4h-10.3c-0.7,0-1.4-0.6-1.4-1.4V299.4z M412.2,392.7c0,8.9-7.2,16.1-16.1,16.1
			H340c-8.9,0-16.1-7.2-16.1-16.1v-39.5c0.5,0,0.9,0.1,1.4,0.1h10.3c7.4,0,13.4-6,13.4-13.4v-40.5c0-7.4-6-13.4-13.4-13.4h-10.3
			c-0.5,0-0.9,0-1.4,0.1v-50.4c17.5,1.7,34,2.7,47.9,2.7c12.5,0,22.8-0.8,29.9-2.8c3.6-1,7.1-2.2,10.5-3.6L412.2,392.7L412.2,392.7z
			 M398.4,224c-38.3,10.8-188.4-16.1-219.7-22c0.1-0.6,0.1-1.3,0.1-1.9v-75.7c0-1.5-0.2-3-0.4-4.5c28.6-9,166.1-52.4,175.3-55
			c43.9-12.3,89.6,13.3,101.9,57.2C467.9,166,442.3,211.7,398.4,224z"/>
		<path class="st0" d="M376.5,101.3c-21.8,0-39.6,17.8-39.6,39.6c0,21.8,17.8,39.6,39.6,39.6s39.6-17.8,39.6-39.6
			S398.4,101.3,376.5,101.3z M376.5,168.6c-15.2,0-27.6-12.4-27.6-27.6c0-15.2,12.4-27.6,27.6-27.6c15.2,0,27.6,12.4,27.6,27.6
			S391.8,168.6,376.5,168.6z"/>
	</g>
</g>
</svg>
