<?xml version="1.0" encoding="iso-8859-1"?>
<!-- Generator: Adobe Illustrator 19.0.0, SVG Export Plug-In . SVG Version: 6.00 Build 0)  -->
<svg xmlns="http://www.w3.org/2000/svg" xmlns:xlink="http://www.w3.org/1999/xlink" version="1.1" id="Capa_1" x="0px" y="0px" viewBox="0 0 384 384" style="enable-background:new 0 0 384 384;" xml:space="preserve" width="512px" height="512px">
<g>
	<g>
		<path d="M376,276h-16V60c-0.026-26.499-21.501-47.974-48-48H72c-26.499,0.026-47.974,21.501-48,48v216H8c-4.418,0-8,3.582-8,8v48    c0,4.418,3.582,8,8,8h16v24c0,4.418,3.582,8,8,8h32c3.032,0.001,5.805-1.712,7.16-4.424L84.944,340h214.112l13.784,27.576    c1.355,2.712,4.128,4.425,7.16,4.424h32c4.418,0,8-3.582,8-8v-24h16c4.418,0,8-3.582,8-8v-48C384,279.582,380.418,276,376,276z     M40,60c0-17.673,14.327-32,32-32h240c17.673,0,32,14.327,32,32v216h-20.448c2.879-4.843,4.415-10.366,4.448-16v-32    c0-17.673-14.327-32-32-32h-40v-56c0-4.418-3.582-8-8-8H136c-4.418,0-8,3.582-8,8v56H88c-17.673,0-32,14.327-32,32v32    c0.033,5.634,1.569,11.157,4.448,16H40V60z M172.688,212L144,240.688L115.312,212H136H172.688z M144,196v-48h96v48H144z     M138.344,257.656c3.124,3.123,8.188,3.123,11.312,0L195.312,212H296c8.837,0,16,7.163,16,16v32c0,8.837-7.163,16-16,16H88    c-8.837,0-16-7.163-16-16v-32c0-8.837,7.163-16,16-16h4.688L138.344,257.656z M59.056,356H40v-16h27.056L59.056,356z M344,356    h-19.056l-8-16H344V356z M368,324H16v-32h352V324z" fill="#0a174c"/>
	</g>
</g>
<g>
	<g>
		<rect x="112" y="52" width="16" height="16" fill="#0a174c"/>
	</g>
</g>
<g>
	<g>
		<rect x="184" y="52" width="16" height="16" fill="#0a174c"/>
	</g>
</g>
<g>
	<g>
		<rect x="256" y="52" width="16" height="16" fill="#0a174c"/>
	</g>
</g>
<g>
	<g>
		<rect x="72" y="92" width="16" height="16" fill="#0a174c"/>
	</g>
</g>
<g>
	<g>
		<rect x="152" y="92" width="16" height="16" fill="#0a174c"/>
	</g>
</g>
<g>
	<g>
		<rect x="224" y="92" width="16" height="16" fill="#0a174c"/>
	</g>
</g>
<g>
	<g>
		<rect x="296" y="92" width="16" height="16" fill="#0a174c"/>
	</g>
</g>
<g>
</g>
<g>
</g>
<g>
</g>
<g>
</g>
<g>
</g>
<g>
</g>
<g>
</g>
<g>
</g>
<g>
</g>
<g>
</g>
<g>
</g>
<g>
</g>
<g>
</g>
<g>
</g>
<g>
</g>
</svg>
