<?xml version="1.0"?>
<svg xmlns="http://www.w3.org/2000/svg" viewBox="0 0 512 512" width="512px" height="512px"><path d="m306.691406 364.1875c-2.632812 0-5.210937 1.070312-7.070312 2.933594-1.859375 1.859375-2.929688 4.4375-2.929688 7.066406 0 2.632812 1.070313 5.210938 2.929688 7.070312 1.859375 1.859376 4.4375 2.929688 7.070312 2.929688 2.628906 0 5.207032-1.066406 7.070313-2.929688 1.859375-1.859374 2.929687-4.4375 2.929687-7.070312 0-2.628906-1.070312-5.207031-2.929687-7.066406-1.863281-1.859375-4.441407-2.933594-7.070313-2.933594zm0 0" fill="#0a174c"/><path d="m475 0c-20.402344 0-37 16.597656-37 37v28.167969h-364v-28.167969c0-20.402344-16.597656-37-37-37s-37 16.597656-37 37v77c0 20.402344 16.597656 37 37 37s37-16.597656 37-37v-28.832031h45.71875c-1.109375 3.128906-1.71875 6.492187-1.71875 10v80.832031c0 27.570312 22.429688 50 50 50h27v250.652344c0 19.492187 15.855469 35.347656 35.34375 35.347656h.3125c9.933594 0 18.917969-4.125 25.34375-10.746094 6.425781 6.621094 15.410156 10.746094 25.34375 10.746094 19.492188 0 35.347656-15.855469 35.347656-35.347656v-64.320313c0-5.519531-4.476562-10-10-10-5.523437 0-10 4.480469-10 10v64.320313c0 8.464844-6.886718 15.347656-15.347656 15.347656s-15.34375-6.882812-15.34375-15.347656v-138.078125c0-5.523438-4.476562-10-10-10s-10 4.476562-10 10v138.078125c0 8.464844-6.882812 15.347656-15.34375 15.347656h-.3125c-8.460938 0-15.34375-6.882812-15.34375-15.347656v-171.984375h81.691406v29.664062c0 5.523438 4.476563 10 10 10 5.523438 0 10-4.476562 10-10v-37.234375c.195313-.78125.308594-1.589844.308594-2.429687v-68.667969h27c27.570312 0 50-22.429688 50-50v-80.832031c0-3.507813-.609375-6.871094-1.71875-10h45.71875v28.832031c0 20.402344 16.597656 37 37 37s37-16.597656 37-37v-77c0-20.402344-16.597656-37-37-37zm-421 114c0 9.375-7.625 17-17 17s-17-7.625-17-17v-77c0-9.375 7.625-17 17-17s17 7.625 17 17zm177 27c0-13.785156 11.214844-25 25-25s25 11.214844 25 25-11.214844 25-25 25-25-11.214844-25-25zm25-45c-24.8125 0-45 20.1875-45 45 0 9.246094 2.804688 17.84375 7.605469 25h-40.605469v-70.832031c0-3.507813-.609375-6.871094-1.71875-10h159.4375c-1.109375 3.128906-1.71875 6.492187-1.71875 10v70.832031h-40.605469c4.800781-7.15625 7.605469-15.753906 7.605469-25 0-24.8125-20.1875-45-45-45zm118-.832031v80.832031c0 16.542969-13.457031 30-30 30h-37c-5.523438 0-10 4.476562-10 10v68.667969h-82v-68.667969c0-5.523438-4.476562-10-10-10h-37c-16.542969 0-30-13.457031-30-30v-80.832031c0-5.515625 4.484375-10 10-10s10 4.484375 10 10v80.832031c0 5.523438 4.476562 10 10 10h176c5.523438 0 10-4.476562 10-10v-80.832031c0-5.515625 4.484375-10 10-10s10 4.484375 10 10zm118 18.832031c0 9.375-7.625 17-17 17s-17-7.625-17-17v-77c0-9.375 7.625-17 17-17s17 7.625 17 17zm0 0" fill="#0a174c"/></svg>
