<?xml version="1.0"?>
<svg xmlns="http://www.w3.org/2000/svg" height="512px" viewBox="-24 0 480 480.02002" width="512px"><path d="m64.007812 200.011719h15.996094v16h-15.996094zm0 0" fill="#0a174c"/><path d="m104.003906 216.011719h16v16h-16zm0 0" fill="#0a174c"/><path d="m144.003906 200.011719h16v16h-16zm0 0" fill="#0a174c"/><path d="m72.007812 248.007812h15.996094v16h-15.996094zm0 0" fill="#0a174c"/><path d="m112.003906 24.019531c-17.671875 0-32 14.324219-32 32 0 17.671875 14.328125 31.996094 32 31.996094s32-14.324219 32-31.996094c0-17.675781-14.328125-32-32-32zm0 47.996094c-8.835937 0-16-7.160156-16-15.996094 0-8.839843 7.164063-16 16-16 8.835938 0 16 7.160157 16 16 0 8.835938-7.164062 15.996094-16 15.996094zm0 0" fill="#0a174c"/><path d="m24.007812.0195312c-13.253906 0-23.9999995 10.7460938-23.9999995 23.9999998 0 13.253907 10.7460935 24 23.9999995 24 13.253907 0 24-10.746093 24-24 0-13.253906-10.746093-23.9999998-24-23.9999998zm0 31.9999998c-4.417968 0-8-3.582031-8-8s3.582032-8 8-8c4.417969 0 8 3.582031 8 8s-3.582031 8-8 8zm0 0" fill="#0a174c"/><path d="m431.992188 32.820312c.441406-4.398437-2.765626-8.320312-7.160157-8.761718-.28125-.027344-.5625-.039063-.839843-.039063h-1.136719c-3.636719-14.085937-16.316407-23.9453122-30.863281-23.9999998h-24c-9.222657.03125-17.980469 4.0624998-23.996094 11.0546878-11.398438-13.269531-31.390625-14.785157-44.660156-3.390625-.601563.511718-1.179688 1.050781-1.738282 1.609375-16.859375-14.121094-41.96875-11.898438-56.085937 4.960937-2.46875 2.945313-4.5 6.234375-6.023438 9.765625h-2.351562c-4.417969-.023437-8.019531 3.542969-8.042969 7.960938 0 .277343.015625.558593.042969.839843l6.984375 71.195313h-160.113282c-2.929687 0-5.625 1.597656-7.027343 4.167969l-6.644531 12.191406c-51.421876 93.71875-20.875 211.273438 69.667968 268.101562v43.527344h-24c-13.253906 0-24 10.742188-24 23.996094s10.746094 24 24 24h103.996094c13.253906 0 24-10.746094 24-24s-10.746094-23.996094-24-23.996094h-32v-43.59375c32.933594-20.835937 59.136719-50.75 75.453125-86.140625l11.914063 122.203125c.265624 3.21875-.714844 6.414063-2.738282 8.929688l-16.476562 20.597656c-5.523438 6.898438-4.410156 16.96875 2.488281 22.488281 2.839844 2.273438 6.367187 3.511719 10.003906 3.511719h142.699219c8.835938 0 16-7.164062 16-16 0-3.632812-1.234375-7.152344-3.503906-9.992188l-16.480469-20.605468c-2-2.476563-2.984375-5.625-2.75-8.800782zm-64-16.800781h24c5.691406.015625 10.941406 3.066407 13.777343 8h-51.550781c2.835938-4.933593 8.085938-7.984375 13.773438-8zm-95.996094 0c7.890625.011719 15.273437 3.898438 19.746094 10.398438 2.496093 3.644531 7.472656 4.578125 11.121093 2.078125 1.183594-.808594 2.128907-1.925782 2.734375-3.230469 3.664063-7.957031 13.085938-11.4375 21.042969-7.773437 3.15625 1.453124 5.75 3.90625 7.378906 6.976562-3.496093.847656-5.972656 3.953125-6.023437 7.550781v24c0 4.414063-3.582032 7.996094-8 7.996094-4.417969 0-8-3.582031-8-7.996094 0-4.417969-3.582032-8-8-8-4.417969 0-8 3.582031-8 8v23.996094c0 4.417969-3.582032 8-8 8-4.417969 0-8-3.582031-8-8v-47.996094c0-4.417969-3.582032-8-8-8h-17.742188c4.503906-5.078125 10.960938-7.988281 17.742188-8zm-8 24v39.996094c0 13.253906 10.746094 24 24 24s24-10.746094 24-24v-1.367187c12.496094 4.417968 26.207031-2.128907 30.625-14.625.910156-2.570313 1.375-5.277344 1.375-8.003907v-16h71.195312l-7.269531 71.996094h-158.957031l-7.015625-71.996094zm-191.621094 87.996094 4.382812-8h150.296876l7.105468 14.207031c.296875.589844.503906 1.199219.800782 1.792969h-166.683594c1.296875-2.667969 2.664062-5.335937 4.097656-8zm-10.960938 24h180.464844c2 5.292969 3.777344 10.628906 5.273438 15.996094h-190.9375c1.488281-5.367188 3.199218-10.710938 5.199218-15.996094zm105.5625 223.1875-3.246093 2.050781c-2.316407 1.460938-3.722657 4.007813-3.726563 6.75v55.996094c0 4.417969 3.582032 8 8 8h39.996094c4.417969 0 8 3.582031 8 8s-3.582031 8-8 8h-103.996094c-4.417968 0-8-3.582031-8-8s3.582032-8 8-8h32c4.417969 0 8-3.582031 8-8v-55.996094c0-2.808594-1.472656-5.410156-3.878906-6.855468-66.652344-39.78125-101.570312-116.789063-87.574219-193.136719h198.390625c13.871094 74.917969-19.414062 150.710937-83.964844 191.191406zm215.886719 68.199219 16.480469 20.597656h-142.699219l16.480469-20.597656c4.589844-5.738282 6.804688-13.019532 6.183594-20.34375l-15.3125-156.609375c11.144531-44.886719 6.527344-92.234375-13.078125-134.121094l-.390625-4.3125h155.785156l-29.648438 295.1875c-.585937 7.277344 1.632813 14.503906 6.199219 20.199219zm0 0" fill="#0a174c"/><path d="m287.996094 424.003906h79.996094v15.996094h-79.996094zm0 0" fill="#0a174c"/><path d="m359.992188 144.015625h16v71.996094h-16zm0 0" fill="#0a174c"/><path d="m359.992188 232.011719h16v15.996093h-16zm0 0" fill="#0a174c"/></svg>
