<?xml version="1.0" encoding="utf-8"?>
<!-- Generator: Adobe Illustrator 22.1.0, SVG Export Plug-In . SVG Version: 6.00 Build 0)  -->
<svg version="1.1" id="Capa_1" xmlns="http://www.w3.org/2000/svg" xmlns:xlink="http://www.w3.org/1999/xlink" x="0px" y="0px"
	 viewBox="0 0 470 470" style="enable-background:new 0 0 470 470;" xml:space="preserve">
<style type="text/css">
	.st0{fill:#0A174C;}
</style>
<g>
	<path class="st0" d="M462.5,434.2c-12.7,0-24.3-5.9-31.9-16.2c-1.4-1.9-3.7-3-6-3c-2.4,0-4.6,1.1-6,3.1
		c-7.5,10.1-19.4,16.2-31.9,16.2c-12.5,0-24.4-6-31.9-16.2c-1.4-1.9-3.7-3-6-3s-4.6,1.1-6,3c-7.5,10.1-19.4,16.2-31.9,16.2
		c-12.6,0-24.3-5.9-31.9-16.2c-1.4-1.9-3.7-3-6-3s-4.6,1.1-6,3c-7.5,10.1-19.4,16.2-31.9,16.2c-12.5,0-24.4-6-31.9-16.2
		c-1.4-1.9-3.6-3-6-3.1c-2.4,0-4.6,1.1-6,3c-7.6,10.3-19.3,16.2-31.9,16.2c-12.5,0-24.4-6-31.9-16.2c-1.4-1.9-3.7-3.1-6-3.1
		c-2.4,0-4.6,1.1-6,3c-7.5,10.1-19.4,16.2-31.9,16.2c-12.5,0-24.4-6-31.9-16.2c-1.4-1.9-3.7-3-6-3s-4.6,1.1-6,3
		c-7.6,10.3-19.2,16.2-31.9,16.2c-4.1,0-7.5,3.4-7.5,7.5s3.4,7.5,7.5,7.5c14.2,0,27.8-5.6,37.9-15.4c10.1,9.8,23.7,15.4,37.9,15.4
		c14.2,0,27.8-5.6,38-15.4c10.1,9.8,23.7,15.4,37.9,15.4c14.4,0,27.8-5.5,37.9-15.4c10.1,9.7,23.7,15.4,37.9,15.4
		c14.2,0,27.8-5.6,37.9-15.4c10.1,9.9,23.5,15.4,37.9,15.4c14.2,0,27.8-5.6,37.9-15.4c10.1,9.8,23.8,15.4,37.9,15.4
		c14.2,0,27.8-5.6,37.9-15.4c10.1,9.8,23.8,15.4,37.9,15.4c4.1,0,7.5-3.4,7.5-7.5S466.6,434.2,462.5,434.2z"/>
	<path class="st0" d="M7.5,385c14.2,0,27.8-5.6,37.9-15.4c5.7,5.5,12.5,9.7,20,12.3c0.4,0.2,0.7,0.3,1.1,0.4
		c5.4,1.8,11.1,2.7,16.8,2.7c5.8,0,11.4-0.9,16.8-2.7c0.4-0.1,0.7-0.2,1.1-0.4c7.4-2.6,14.3-6.8,20-12.3
		c10.1,9.8,23.7,15.4,37.9,15.4c14.4,0,27.8-5.5,37.9-15.4c5.7,5.5,12.5,9.7,20,12.3c0.4,0.2,0.7,0.3,1.1,0.4
		c5.4,1.8,11,2.7,16.8,2.7c5.8,0,11.4-0.9,16.8-2.7c0.4-0.1,0.8-0.2,1.2-0.4c7.4-2.6,14.2-6.8,20-12.3c10.1,9.9,23.5,15.4,37.9,15.4
		c14.2,0,27.8-5.6,37.9-15.4c10.1,9.8,23.8,15.4,37.9,15.4c14.2,0,27.8-5.6,37.9-15.4c10.1,9.8,23.8,15.4,37.9,15.4
		c4.1,0,7.5-3.4,7.5-7.5s-3.4-7.5-7.5-7.5c-12.7,0-24.3-5.9-31.9-16.2c-1.4-1.9-3.7-3-6-3c-2.4,0-4.6,1.1-6,3.1
		c-7.4,10.1-19.4,16.2-31.9,16.2c-12.5,0-24.4-6-31.9-16.2c-1.4-1.9-3.7-3-6-3s-4.6,1.1-6,3c-7.5,10.1-19.4,16.2-31.9,16.2
		c-12.6,0-24.3-5.9-31.9-16.2c-1.4-1.9-3.7-3-6-3s-4.6,1.1-6,3c-2.6,3.6-5.8,6.6-9.4,9.1V119.1c0-29.4,23.9-53.3,53.3-53.3
		s53.3,23.9,53.3,53.3c0,12.4,10.1,22.5,22.5,22.5s22.5-10.1,22.5-22.5c0-54.2-44.1-98.3-98.3-98.3s-98.3,44.1-98.3,98.3v81.7H105.8
		v-81.7c0-29.4,23.9-53.3,53.3-53.3c12.8,0,25.3,4.7,35,13.1c3.1,2.7,7.9,2.4,10.6-0.7c2.7-3.1,2.4-7.9-0.7-10.6
		c-12.4-10.8-28.4-16.8-44.8-16.8c-37.7,0-68.3,30.7-68.3,68.3v81.7h-15v-81.7c0-46,37.4-83.3,83.3-83.3c18.3,0,35.8,5.9,50.4,17
		c3.3,2.5,8,1.9,10.5-1.4c2.5-3.3,1.9-8-1.4-10.5c-17.2-13.1-37.8-20.1-59.5-20.1c-54.2,0-98.3,44.1-98.3,98.3v243.8
		c-3.6-2.5-6.7-5.5-9.4-9.1c-1.4-1.9-3.7-3-6-3s-4.6,1.1-6,3C31.8,364.1,20.2,370,7.5,370c-4.1,0-7.5,3.4-7.5,7.5S3.4,385,7.5,385z
		 M203.1,353.8c-1.4-1.9-3.6-3-6-3.1c-2.4,0-4.6,1.1-6,3c-7.6,10.3-19.3,16.2-31.9,16.2c-12.5,0-24.4-6-31.9-16.2
		c-1.4-1.9-3.7-3.1-6-3.1c-2.4,0-4.6,1.1-6,3c-2.6,3.6-5.8,6.6-9.4,9.1v-42.1h106.7v42.1C208.9,360.4,205.8,357.4,203.1,353.8z
		 M212.5,245.8v30H105.8v-30L212.5,245.8L212.5,245.8z M90.8,275.8h-15v-30h15V275.8z M75.8,290.8h136.7v15H75.8V290.8z
		 M227.5,119.1c0-46,37.4-83.3,83.3-83.3s83.3,37.4,83.3,83.3c0,4.1-3.4,7.5-7.5,7.5c-4.1,0-7.5-3.4-7.5-7.5
		c0-37.7-30.7-68.3-68.3-68.3s-68.3,30.7-68.3,68.3v250.1c-2.5,0.5-5,0.7-7.5,0.7c-2.5,0-5-0.3-7.5-0.7L227.5,119.1L227.5,119.1z
		 M212.5,215.8v15H75.8v-15H212.5z M75.8,320.8h15v48.5c-2.5,0.5-5,0.7-7.5,0.7c-2.5,0-5-0.3-7.5-0.7V320.8z"/>
</g>
</svg>
