<?xml version="1.0" encoding="iso-8859-1"?>
<!-- Generator: Adobe Illustrator 19.0.0, SVG Export Plug-In . SVG Version: 6.00 Build 0)  -->
<svg xmlns="http://www.w3.org/2000/svg" xmlns:xlink="http://www.w3.org/1999/xlink" version="1.1" id="Capa_1" x="0px" y="0px" viewBox="0 0 464.002 464.002" style="enable-background:new 0 0 464.002 464.002;" xml:space="preserve" width="512px" height="512px">
<g>
	<g>
		<path d="M416.001,64.002h-8v-8c-0.026-22.08-17.92-39.974-40-40h-22.256c-5.618-9.987-16.23-16.12-27.688-16h-22.056    c-2.122,0-4.156,0.844-5.656,2.344l-13.656,13.656H139.313L125.657,2.346c-1.5-1.5-3.534-2.344-5.656-2.344H97.945    c-11.458-0.12-22.07,6.013-27.688,16H48.001c-22.08,0.026-39.974,17.92-40,40v320c0.026,22.08,17.92,39.974,40,40h8v8    c0.026,22.08,17.92,39.974,40,40h320c22.08-0.026,39.974-17.92,40-40v-320C455.974,81.921,438.081,64.028,416.001,64.002z     M299.313,16.002h18.744c6.51-0.126,12.41,3.816,14.784,9.88c2.604,5.963,1.222,12.917-3.464,17.432l-81.376,81.376    l-28.688-28.688L299.313,16.002z M260.689,32.002L208.001,84.69l-52.688-52.688H260.689z M83.201,25.882    c2.369-6.05,8.248-9.99,14.744-9.88h18.744l80,80l-28.688,28.688L86.625,43.314C81.953,38.79,80.587,31.837,83.201,25.882z     M48.001,400.002c-13.255,0-24-10.745-24-24v-320c0-13.255,10.745-24,24-24h17.936c-0.054,8.497,3.327,16.656,9.376,22.624    l87.032,87.032c3.124,3.123,8.188,3.123,11.312,0l26.344-26.344v28.688h16v-28.688l26.344,26.344    c3.124,3.123,8.188,3.123,11.312,0l87.032-87.032c6.049-5.968,9.43-14.127,9.376-22.624h17.936c13.255,0,24,10.745,24,24v320    c0,13.255-10.745,24-24,24H48.001z M440.001,424.002c0,13.255-10.745,24-24,24h-320c-13.255,0-24-10.745-24-24v-8h296    c22.08-0.026,39.974-17.92,40-40v-296h8c13.255,0,24,10.745,24,24V424.002z" fill="#0a174c"/>
	</g>
</g>
<g>
	<g>
		<rect x="200.001" y="160.002" width="16" height="16" fill="#0a174c"/>
	</g>
</g>
<g>
	<g>
		<rect x="304.001" y="208.002" width="16" height="16" fill="#0a174c"/>
	</g>
</g>
<g>
	<g>
		<rect x="200.001" y="264.002" width="16" height="16" fill="#0a174c"/>
	</g>
</g>
<g>
	<g>
		<rect x="200.001" y="192.002" width="16" height="56" fill="#0a174c"/>
	</g>
</g>
<g>
	<g>
		<rect x="200.001" y="368.002" width="16" height="16" fill="#0a174c"/>
	</g>
</g>
<g>
	<g>
		<rect x="200.001" y="296.002" width="16" height="56" fill="#0a174c"/>
	</g>
</g>
<g>
	<g>
		<path d="M344.001,176.002h-64c-4.418,0-8,3.582-8,8v48c0,2.518,1.186,4.889,3.2,6.4l32,24c2.844,2.133,6.756,2.133,9.6,0l32-24    c2.014-1.511,3.2-3.882,3.2-6.4v-48C352.001,179.583,348.419,176.002,344.001,176.002z M336.001,228.002l-24,18l-24-18v-36h48    V228.002z" fill="#0a174c"/>
	</g>
</g>
<g>
</g>
<g>
</g>
<g>
</g>
<g>
</g>
<g>
</g>
<g>
</g>
<g>
</g>
<g>
</g>
<g>
</g>
<g>
</g>
<g>
</g>
<g>
</g>
<g>
</g>
<g>
</g>
<g>
</g>
</svg>
