<?xml version="1.0" encoding="utf-8"?>
<!-- Generator: Adobe Illustrator 22.1.0, SVG Export Plug-In . SVG Version: 6.00 Build 0)  -->
<svg version="1.1" id="Layer_1" xmlns="http://www.w3.org/2000/svg" xmlns:xlink="http://www.w3.org/1999/xlink" x="0px" y="0px"
	 viewBox="0 0 463 463" style="enable-background:new 0 0 463 463;" xml:space="preserve">
<style type="text/css">
	.st0{fill:#0A174C;}
</style>
<g>
	<g>
		<g>
			<path class="st0" d="M431.5,76h-400C14.1,76,0,90.1,0,107.5v224c0,14.8,10.2,27.2,24,30.6v9.4c0,8.5,7,15.5,15.5,15.5h16
				c8.5,0,15.5-7,15.5-15.5V363h321v8.5c0,8.5,7,15.5,15.5,15.5h16c8.5,0,15.5-7,15.5-15.5v-9.4c13.8-3.4,24-15.8,24-30.6v-224
				C463,90.1,448.9,76,431.5,76z M56,371.5c0,0.3-0.2,0.5-0.5,0.5h-16c-0.3,0-0.5-0.2-0.5-0.5V363h17V371.5z M31.5,348
				c-9.1,0-16.5-7.4-16.5-16.5v-224C15,98.4,22.4,91,31.5,91H352v256.5c0,0.2,0,0.3,0,0.5H31.5z M424,371.5c0,0.3-0.2,0.5-0.5,0.5
				h-16c-0.3,0-0.5-0.2-0.5-0.5V363h17V371.5z M448,331.5c0,9.1-7.4,16.5-16.5,16.5H367c0-0.2,0-0.3,0-0.5V91h64.5
				c9.1,0,16.5,7.4,16.5,16.5V331.5z"/>
			<path class="st0" d="M327.5,108h-288c-4.1,0-7.5,3.4-7.5,7.5v208c0,4.1,3.4,7.5,7.5,7.5h288c4.1,0,7.5-3.4,7.5-7.5v-208
				C335,111.4,331.6,108,327.5,108z M320,316H47V123h273V316z"/>
			<path class="st0" d="M415.5,124h-16c-8.5,0-15.5,7-15.5,15.5v16c0,8.5,7,15.5,15.5,15.5h16c8.5,0,15.5-7,15.5-15.5v-16
				C431,131,424,124,415.5,124z M416,155.5c0,0.3-0.2,0.5-0.5,0.5h-16c-0.3,0-0.5-0.2-0.5-0.5v-16c0-0.3,0.2-0.5,0.5-0.5h16
				c0.3,0,0.5,0.2,0.5,0.5V155.5z"/>
			<path class="st0" d="M423.5,188h-32c-4.1,0-7.5,3.4-7.5,7.5s3.4,7.5,7.5,7.5h32c4.1,0,7.5-3.4,7.5-7.5S427.6,188,423.5,188z"/>
			<path class="st0" d="M423.5,252h-32c-4.1,0-7.5,3.4-7.5,7.5s3.4,7.5,7.5,7.5h32c4.1,0,7.5-3.4,7.5-7.5S427.6,252,423.5,252z"/>
			<path class="st0" d="M423.5,220h-32c-4.1,0-7.5,3.4-7.5,7.5s3.4,7.5,7.5,7.5h32c4.1,0,7.5-3.4,7.5-7.5S427.6,220,423.5,220z"/>
			<path class="st0" d="M168,240.9c0,13.2,5.3,20.2,9.5,25.8c3.8,5,6.5,8.7,6.5,16.8c0,4.1,3.4,7.5,7.5,7.5s7.5-3.4,7.5-7.5
				c0-13.2-5.3-20.2-9.5-25.8c-3.8-5-6.5-8.7-6.5-16.8c0-8.2,2.7-11.8,6.5-16.8c4.2-5.6,9.5-12.7,9.5-25.8c0-13.2-5.3-20.2-9.5-25.8
				c-3.8-5-6.5-8.7-6.5-16.9c0-4.1-3.4-7.5-7.5-7.5s-7.5,3.4-7.5,7.5c0,13.2,5.3,20.2,9.5,25.8c3.8,5,6.5,8.7,6.5,16.9
				c0,8.2-2.7,11.8-6.5,16.8C173.3,220.7,168,227.7,168,240.9z"/>
			<path class="st0" d="M208.5,248.4c2.5,0,4.7-1.2,6-3c5.4-7.2,16.5-22,16.5-47.1c0-10.2-1.8-19.8-5.5-28.6c-1.6-3.8-6-5.6-9.8-4.1
				c-3.8,1.6-5.6,6-4.1,9.8c2.9,6.9,4.3,14.6,4.3,22.8c0,20-8.4,31.3-13.4,38.1c-1,1.3-1.6,2.9-1.6,4.6
				C201,245,204.3,248.4,208.5,248.4z"/>
			<path class="st0" d="M148.3,273.9c0.9,0,1.9-0.2,2.8-0.6c3.8-1.6,5.7-6,4.1-9.8c-2.8-6.9-4.3-14.5-4.3-22.7
				c0-20.1,8.5-31.4,13.5-38.2c0.1-0.2,0.3-0.4,0.4-0.6c1.5-2.4,1.5-5.5,0-7.9c-2.2-3.5-6.8-4.6-10.3-2.5c-1.1,0.7-1.9,1.5-2.5,2.5
				c-5.5,7.4-16.1,22.1-16.1,46.6c0,10.1,1.8,19.7,5.4,28.4C142.6,272.1,145.4,273.9,148.3,273.9z"/>
		</g>
	</g>
</g>
</svg>
