<?xml version="1.0" encoding="utf-8"?>
<!-- Generator: Adobe Illustrator 22.1.0, SVG Export Plug-In . SVG Version: 6.00 Build 0)  -->
<svg version="1.1" id="Layer_1" xmlns="http://www.w3.org/2000/svg" xmlns:xlink="http://www.w3.org/1999/xlink" x="0px" y="0px"
	 viewBox="0 0 512 512" style="enable-background:new 0 0 512 512;" xml:space="preserve">
<style type="text/css">
	.st0{fill:#0A174C;}
</style>
<path class="st0" d="M500.5,33h-489C5.2,33,0,38.2,0,44.5v18.8c0,4.1,3.4,7.5,7.5,7.5s7.5-3.4,7.5-7.5V48h482v295H323.5v-74.5
	c0-8.5-7-15.5-15.5-15.5H204c-8.5,0-15.5,7-15.5,15.5V343H15V95.5c0-4.1-3.4-7.5-7.5-7.5S0,91.4,0,95.5v281
	c0,6.3,5.2,11.5,11.5,11.5h53v19.5c0,12.4,10.1,22.5,22.5,22.5s22.5-10.1,22.5-22.5V388h79v74.5c0,8.5,7,15.5,15.5,15.5h104
	c8.5,0,15.5-7,15.5-15.5V388h79v19.5c0,12.4,10.1,22.5,22.5,22.5s22.5-10.1,22.5-22.5V388h53c6.3,0,11.5-5.2,11.5-11.5v-332
	C512,38.2,506.8,33,500.5,33z M204,268h104c0.3,0,0.5,0.2,0.5,0.5V329h-105v-60.5C203.5,268.2,203.7,268,204,268z M94.5,407.5
	c0,4.1-3.4,7.5-7.5,7.5s-7.5-3.4-7.5-7.5V388h15V407.5z M15,373v-15h173.5v15H15z M308,463H204c-0.3,0-0.5-0.2-0.5-0.5V434H256
	c4.1,0,7.5-3.4,7.5-7.5s-3.4-7.5-7.5-7.5h-52.5v-75h105v75h-20.4c-4.1,0-7.5,3.4-7.5,7.5s3.4,7.5,7.5,7.5h20.4v28.5
	C308.5,462.8,308.3,463,308,463z M432.5,407.5c0,4.1-3.4,7.5-7.5,7.5s-7.5-3.4-7.5-7.5V388h15V407.5z M323.5,373v-15H497v15H323.5z"
	/>
<path class="st0" d="M149.5,93.5c0-9.6-7.9-17.5-17.5-17.5H62c-9.6,0-17.5,7.9-17.5,17.5v70c0,9.6,7.9,17.5,17.5,17.5h70
	c9.6,0,17.5-7.9,17.5-17.5V93.5z M134.5,163.5c0,1.4-1.1,2.5-2.5,2.5H62c-1.4,0-2.5-1.1-2.5-2.5v-70c0-1.4,1.1-2.5,2.5-2.5h70
	c1.4,0,2.5,1.1,2.5,2.5V163.5z"/>
<path class="st0" d="M450,166h-21.8c-4.1,0-7.5,3.4-7.5,7.5s3.4,7.5,7.5,7.5H450c9.6,0,17.5-7.9,17.5-17.5v-70
	c0-9.6-7.9-17.5-17.5-17.5H187.9c-9.6,0-17.5,7.9-17.5,17.5v70c0,9.6,7.9,17.5,17.5,17.5h208.3c4.1,0,7.5-3.4,7.5-7.5
	s-3.4-7.5-7.5-7.5H187.9c-1.4,0-2.5-1.1-2.5-2.5v-70c0-1.4,1.1-2.5,2.5-2.5H450c1.4,0,2.5,1.1,2.5,2.5v70
	C452.5,164.9,451.4,166,450,166z"/>
<path class="st0" d="M233,321c12.4,0,22.5-10.1,22.5-22.5S245.4,276,233,276s-22.5,10.1-22.5,22.5S220.6,321,233,321z M233,291
	c4.1,0,7.5,3.4,7.5,7.5s-3.4,7.5-7.5,7.5s-7.5-3.4-7.5-7.5S228.9,291,233,291z"/>
<path class="st0" d="M239.8,360.6h-15c-4.1,0-7.5,3.4-7.5,7.5c0,4.1,3.4,7.5,7.5,7.5h15c4.1,0,7.5-3.4,7.5-7.5
	C247.3,363.9,243.9,360.6,239.8,360.6z"/>
<path class="st0" d="M272.3,375.6h15c4.1,0,7.5-3.4,7.5-7.5c0-4.1-3.4-7.5-7.5-7.5h-15c-4.1,0-7.5,3.4-7.5,7.5
	C264.8,372.2,268.1,375.6,272.3,375.6z"/>
<path class="st0" d="M239.8,387.4h-15c-4.1,0-7.5,3.4-7.5,7.5c0,4.1,3.4,7.5,7.5,7.5h15c4.1,0,7.5-3.4,7.5-7.5
	C247.3,390.8,243.9,387.4,239.8,387.4z"/>
<path class="st0" d="M294.8,394.9c0-4.1-3.4-7.5-7.5-7.5h-15c-4.1,0-7.5,3.4-7.5,7.5c0,4.1,3.4,7.5,7.5,7.5h15
	C291.4,402.4,294.8,399.1,294.8,394.9z"/>
<path class="st0" d="M139,200.5H53c-4.1,0-7.5,3.4-7.5,7.5s3.4,7.5,7.5,7.5h86c4.1,0,7.5-3.4,7.5-7.5S143.1,200.5,139,200.5z"/>
<path class="st0" d="M139,230H53c-4.1,0-7.5,3.4-7.5,7.5s3.4,7.5,7.5,7.5h86c4.1,0,7.5-3.4,7.5-7.5S143.1,230,139,230z"/>
<path class="st0" d="M139,259.5H53c-4.1,0-7.5,3.4-7.5,7.5s3.4,7.5,7.5,7.5h86c4.1,0,7.5-3.4,7.5-7.5S143.1,259.5,139,259.5z"/>
</svg>
