<?xml version="1.0" encoding="utf-8"?>
<!-- Generator: Adobe Illustrator 22.1.0, SVG Export Plug-In . SVG Version: 6.00 Build 0)  -->
<svg version="1.1" id="Layer_1" xmlns="http://www.w3.org/2000/svg" xmlns:xlink="http://www.w3.org/1999/xlink" x="0px" y="0px"
	 viewBox="0 0 512 511" style="enable-background:new 0 0 512 511;" xml:space="preserve">
<style type="text/css">
	.st0{fill:#0A174C;}
</style>
<path class="st0" d="M354.5,299.2C328,273.6,293,259.6,256,259.6c-37,0-72,14.1-98.5,39.6c-4.9,4.7-9.5,9.8-13.6,15.1
	c-9.7,12.5-8.5,30.4,2.7,41.7c0,0,0,0,0.1,0.1c6,6,13.9,9.3,22.3,9.3c9.9,0,19.1-4.5,25.2-12.3c1.9-2.5,4-4.8,6.3-7
	c14.8-14.8,34.5-23,55.6-23c21,0,40.8,8.2,55.6,23c2.2,2.2,4.3,4.6,6.3,7c6.1,7.8,15.3,12.3,25.2,12.3h0c8.4,0,16.3-3.3,22.3-9.3
	c0,0,0,0,0.1-0.1c11.2-11.3,12.4-29.2,2.7-41.7C364,309,359.4,303.9,354.5,299.2z M354.8,345.4C354.7,345.4,354.7,345.4,354.8,345.4
	c-3.2,3.2-7.3,4.9-11.7,4.9c-5.3,0-10.1-2.4-13.4-6.6c-2.3-2.9-4.8-5.7-7.4-8.4c-17.6-17.6-41.1-27.4-66.2-27.4
	c-25,0-48.5,9.7-66.2,27.4c-2.6,2.6-5.1,5.5-7.4,8.4c-3.3,4.2-8.2,6.6-13.4,6.6c-4.4,0-8.5-1.7-11.7-4.8c0,0,0,0,0,0
	c-5.9-5.9-6.6-15.4-1.5-21.9c3.7-4.8,7.8-9.3,12.2-13.5c23.7-22.8,55-35.4,88.1-35.4c33.1,0,64.4,12.6,88.1,35.4
	c4.4,4.2,8.5,8.8,12.2,13.5C361.4,330,360.7,339.4,354.8,345.4z"/>
<path class="st0" d="M256,356.3c-12.1,0-23.4,4.7-31.9,13.2s-13.2,19.9-13.2,31.9s4.7,23.4,13.2,31.9s19.9,13.2,31.9,13.2
	s23.4-4.7,31.9-13.2c17.6-17.6,17.6-46.3,0-63.9C279.4,361,268.1,356.3,256,356.3z M277.3,422.8c-5.7,5.7-13.3,8.8-21.3,8.8
	c-8.1,0-15.6-3.1-21.3-8.8s-8.8-13.3-8.8-21.3c0-8.1,3.1-15.6,8.8-21.3s13.3-8.8,21.3-8.8c8.1,0,15.6,3.1,21.3,8.8
	C289.1,391.9,289.1,411,277.3,422.8z"/>
<path class="st0" d="M503.7,175c-3.4-3.7-6.9-7.3-10.4-10.9c-48.8-48.8-110.2-81-177.6-93.2c-65.9-11.9-133-4-194.1,22.8
	c-3.8,1.7-5.5,6.1-3.9,9.9s6.1,5.5,9.9,3.9c121.6-53.3,260.9-26.8,355.1,67.3c3.4,3.4,6.7,6.9,9.9,10.4c6,6.6,5.7,16.7-0.6,23
	c-3.3,3.3-7.6,5-12.2,4.9c-4.6-0.1-8.8-2-11.8-5.3c-2.9-3.1-5.9-6.3-8.9-9.3C405,144.2,332.9,114.4,256,114.4c0,0,0,0,0,0
	c-76.9,0-149,29.8-203.1,84c-3,3-6,6.1-8.9,9.3c-3.1,3.3-7.3,5.2-11.8,5.3c-4.6,0.1-9-1.6-12.2-4.9c-6.3-6.3-6.6-16.4-0.6-23
	c3.2-3.5,6.5-7,9.9-10.4c21.9-21.9,46.7-40.5,73.6-55.2c3.6-2,5-6.5,3-10.2c-2-3.6-6.5-5-10.2-3c-28.2,15.4-54.1,34.8-77,57.7
	c-3.5,3.5-7,7.2-10.4,10.8c-11.4,12.5-11,31.7,1.1,43.7c6,6,14,9.3,22.4,9.3c0.2,0,0.5,0,0.7,0c8.7-0.2,16.7-3.8,22.6-10.2
	c2.7-3,5.5-5.9,8.4-8.8c51.3-51.3,119.7-79.6,192.5-79.6h0c72.8,0,141.2,28.2,192.5,79.5c2.9,2.9,5.7,5.8,8.4,8.8
	c5.9,6.4,13.9,10,22.6,10.2c8.7,0.2,17.1-3.2,23.2-9.3C514.7,206.7,515.2,187.5,503.7,175z"/>
<path class="st0" d="M420.7,228.5c-40.6-38.7-94-61.9-150.3-65.3c-4.1-0.2-7.7,2.9-7.9,7c-0.2,4.1,2.9,7.7,7,7.9
	c52.7,3.1,102.7,24.9,140.8,61.1c4.8,4.6,9.5,9.4,13.8,14.4c5.8,6.6,5.5,16.7-0.7,22.9c-3.3,3.3-7.7,5-12.3,4.9
	c-4.7-0.2-9-2.2-12.1-5.7c-3.4-3.9-7.1-7.7-10.8-11.3c-35.6-34.4-82.5-53.3-132.3-53.3h0c-49.7,0-96.7,18.9-132.3,53.3
	c-3.8,3.6-7.4,7.4-10.8,11.3c-3.1,3.5-7.4,5.6-12.1,5.7c-4.6,0.2-9-1.6-12.3-4.9c-6.2-6.2-6.6-16.2-0.8-22.8c2.9-3.3,6-6.6,9.1-9.8
	c38.7-39.2,90.4-62.6,145.7-65.9c4.1-0.3,7.3-3.8,7-7.9c-0.3-4.1-3.8-7.3-7.9-7c-58.9,3.6-114.1,28.5-155.4,70.3
	c-3.3,3.4-6.6,6.9-9.7,10.4c-11,12.5-10.3,31.5,1.5,43.3c6,6,13.9,9.3,22.4,9.3c0.4,0,0.7,0,1.1,0c8.7-0.3,17.1-4.2,22.9-10.8
	c3.2-3.6,6.5-7.1,10-10.4c67.2-64.9,176.5-64.9,243.7,0c3.4,3.3,6.8,6.8,10,10.4c5.8,6.6,14.1,10.5,22.9,10.8
	c8.8,0.3,17.1-3,23.4-9.3c11.8-11.8,12.4-30.9,1.4-43.4C430.8,238.6,425.8,233.4,420.7,228.5z"/>
</svg>
