<?xml version="1.0"?>
<svg xmlns="http://www.w3.org/2000/svg" height="512px" viewBox="0 0 512 512" width="512px"><path d="m489.5 439h-34.960938c4.03125-5.726562 6.40625-12.699219 6.40625-20.222656 0-21.605469-14.421874-39.898438-34.144531-45.785156 5.433594-6.40625 8.722657-14.691407 8.722657-23.738282 0-25.507812-20.75-46.253906-46.253907-46.253906h-66.652343c-3.671876 0-7.246094.441406-10.671876 1.257812v-16.445312c0-4.144531-3.359374-7.5-7.5-7.5-4.144531 0-7.5 3.355469-7.5 7.5v22.988281c-12.398437 8.308594-20.582031 22.449219-20.582031 38.472657 0 9.039062 3.289063 17.316406 8.722657 23.71875-19.722657 5.886718-34.140626 24.183593-34.140626 45.808593 0 7.511719 2.371094 14.476563 6.398438 20.199219h-70.097656c.929687-1.128906 1.78125-2.335938 2.53125-3.632812 6.992187-12.113282 3.585937-27.722657-7.265625-38.121094 10.851562-10.402344 14.257812-26.003906 7.265625-38.117188-4.191406-7.261718-11.355469-12.140625-20.167969-13.742187-5.410156-.984375-11.046875-.632813-16.472656.957031-1.800781-7.382812-5.726563-13.921875-11.191407-18.523438v-89.328124c4.085938 2.234374 8.773438 3.507812 13.753907 3.507812 15.847656 0 28.742187-12.882812 28.742187-28.71875v-14.015625c4.003906 2.183594 8.636719 3.324219 13.753906 3.324219 5.109376 0 9.746094-1.140625 13.742188-3.320313v2.636719c0 7.859375 3.117188 15.195312 8.773438 20.65625 5.660156 5.46875 13.132812 8.339844 21.007812 8.050781 15.285156-.535156 27.71875-13.644531 27.71875-29.226562v-30.515625c4.003906 2.222656 8.644531 3.378906 13.753906 3.378906 4.980469 0 9.664063-1.269531 13.753906-3.503906v85.253906c0 4.144531 3.355469 7.5 7.5 7.5 4.144532 0 7.5-3.355469 7.5-7.5v-143.5c0-4.144531-3.355468-7.5-7.5-7.5h-77.5v-7.136719c15.621094-4.792969 27-24.3125 27-48.363281 0-27.757812-15.15625-49.5-34.5-49.5-19.347656 0-34.5 21.742188-34.5 49.5 0 24.046875 11.378907 43.570312 27 48.363281v7.136719h-77.5c-4.144531 0-7.5 3.355469-7.5 7.5v15.5c0 4.144531 3.355469 7.5 7.5 7.5 4.144532 0 7.5-3.355469 7.5-7.5v-8h155v25.53125c0 7.566406-6.171874 13.722656-13.753906 13.722656-5.46875 0-9.160156-2.296875-11.628906-7.230468-1.878906-3.761719-6.050781-5.710938-10.148438-4.742188-4.105468.96875-6.976562 4.589844-6.976562 8.808594v45.300781c0 7.59375-5.941406 13.980469-13.242188 14.238281-3.789062.128906-7.355468-1.234375-10.0625-3.851562-2.703124-2.609375-4.191406-6.113282-4.191406-9.867188v-17.292968c0-4.210938-2.863281-7.832032-6.960937-8.804688-4.085938-.976562-8.265625.972656-10.15625 4.726562-2.425781 4.8125-6.117188 7.058594-11.628907 7.058594-5.511718 0-9.207031-2.246094-11.632812-7.066406-1.890625-3.753906-6.070312-5.703125-10.160156-4.726562-4.097656.972656-6.957032 4.589843-6.957032 8.800781v28.683593c0 7.5625-6.167968 13.714844-13.746093 13.714844-7.582031 0-13.753907-6.152344-13.753907-13.714844v-53.453124c0-4.144532-3.355468-7.5-7.5-7.5-4.140624 0-7.5 3.355468-7.5 7.5v161.390624c-1.058593-.125-2.125-.203124-3.191406-.203124-13.984375 0-25.792968 10.738281-29.378906 25.324218-5.425781-1.589844-11.066406-1.941406-16.476562-.957031-8.808594 1.601563-15.96875 6.480469-20.160157 13.742187-6.996093 12.113282-3.59375 27.714844 7.257813 38.121094-10.851563 10.398438-14.253906 26.003906-7.257813 38.117188.75 1.296875 1.601563 2.503906 2.527344 3.632812h-37.765625c-12.40625-.003906-22.5 10.089844-22.5 22.496094s10.09375 22.5 22.5 22.5h7v2.5c0 14.0625 11.4375 25.5 25.5 25.5h402c14.0625 0 25.5-11.4375 25.5-25.5v-2.5h7c12.40625 0 22.5-10.09375 22.5-22.5s-10.09375-22.5-22.5-22.5zm-289.558594-389.5c0-20.332031 10.277344-34.5 19.5-34.5 9.226563 0 19.5 14.167969 19.5 34.5s-10.273437 34.5-19.5 34.5c-9.222656 0-19.5-14.167969-19.5-34.5zm122.675782 268.5h66.652343c17.230469 0 31.253907 14.019531 31.253907 31.277344 0 11.976562-9.746094 21.722656-21.726563 21.722656h-85.710937c-11.976563 0-21.722657-9.746094-21.722657-21.746094 0-17.234375 14.023438-31.253906 31.253907-31.253906zm-251.890626 109.871094c-4.023437-6.972656-.582031-16.617188 7.664063-22.242188 4.253906 1.582032 8.683594 2.402344 13.042969 2.402344 1.246094 0 2.484375-.074219 3.714844-.207031 1.210937 3.269531 2.964843 6.273437 5.15625 8.902343-3.285157 4.492188-5.53125 9.863282-6.503907 15.628907-8.988281 4.320312-19.054687 2.476562-23.074219-4.484375zm85.339844-19.835938c4.355469 0 8.785156-.824218 13.042969-2.410156 8.246094 5.621094 11.699219 15.273438 7.675781 22.246094-4.027344 6.96875-14.113281 8.804687-23.085937 4.484375-.96875-5.761719-3.214844-11.136719-6.496094-15.625 2.1875-2.632813 3.945313-5.636719 5.15625-8.902344 1.226563.132813 2.460937.207031 3.707031.207031zm-16.8125-10.785156c0 8.546875-6.953125 15.5-15.5 15.5s-15.5-6.953125-15.5-15.5 6.953125-15.5 15.5-15.5 15.5 6.953125 15.5 15.5zm-31 41.75c0-.042969-.003906-.085938-.003906-.128906 0-5.019532 1.507812-9.730469 4.15625-13.320313 3.507812 1.414063 7.335938 2.199219 11.347656 2.199219 4.007813 0 7.835938-.785156 11.34375-2.199219 2.644532 3.59375 4.152344 8.304688 4.152344 13.320313 0 .042968-.003906.085937-.003906.128906zm58.671875-78.855469c4.40625.800781 7.90625 3.105469 9.859375 6.484375 4.269532 7.402344.125 17.824219-9.242187 23.234375-4.351563 2.507813-9.179688 3.558594-13.601563 3.0625-1.132812-7.941406-5.335937-14.902343-11.363281-19.644531 1.78125-4.089844 5.109375-7.757812 9.460937-10.265625 4.734376-2.734375 10.023438-3.757813 14.886719-2.871094zm-43.175781-24.125c2.359375 0 4.625.664063 6.742188 1.976563 4.871093 3.015625 8.152343 9.070312 8.675781 15.765625-4.503907 3.71875-8.027344 8.347656-10.273438 13.433593-1.671875-.289062-3.386719-.441406-5.140625-.441406s-3.472656.15625-5.144531.441406c-2.25-5.085937-5.78125-9.71875-10.285156-13.4375.75-9.941406 7.378906-17.738281 15.425781-17.738281zm-53.023438 30.609375c1.953126-3.378906 5.449219-5.683594 9.851563-6.484375 4.855469-.882812 10.144531.136719 14.882813 2.871094 4.351562 2.507813 7.679687 6.175781 9.464843 10.265625-6.027343 4.746094-10.230469 11.707031-11.359375 19.644531-4.429687.5-9.257812-.550781-13.605468-3.058593-9.367188-5.410157-13.507813-15.835938-9.234376-23.238282zm396.773438 119.871094c0 5.789062-4.710938 10.5-10.5 10.5h-402c-5.789062 0-10.5-4.710938-10.5-10.5v-2.5h423zm22-17.5h-467c-4.136719 0-7.5-3.363281-7.5-7.5s3.363281-7.5 7.5-7.5h362.332031c4.144531 0 7.5-3.355469 7.5-7.5s-3.355469-7.5-7.5-7.5h-98.6875c-11.140625 0-20.199219-9.0625-20.199219-20.222656 0-18.074219 14.703126-32.777344 32.777344-32.777344h114.441406c18.074219 0 32.777344 14.703125 32.777344 32.800781 0 11.136719-9.058594 20.199219-20.199218 20.199219h-8.574219c-4.144531 0-7.5 3.355469-7.5 7.5s3.355469 7.5 7.5 7.5h72.332031c4.136719 0 7.5 3.363281 7.5 7.5s-3.363281 7.5-7.5 7.5zm0 0" fill="#0a174c"/></svg>
