<?xml version="1.0" encoding="iso-8859-1"?>
<!-- Generator: Adobe Illustrator 19.0.0, SVG Export Plug-In . SVG Version: 6.00 Build 0)  -->
<svg xmlns="http://www.w3.org/2000/svg" xmlns:xlink="http://www.w3.org/1999/xlink" version="1.1" id="Layer_1" x="0px" y="0px" viewBox="0 0 288.577 288.577" style="enable-background:new 0 0 288.577 288.577;" xml:space="preserve" width="512px" height="512px">
<g>
	<g>
		<g>
			<path d="M144.291,170.07c46.523,0,84.375-37.852,84.375-84.375S190.814,1.32,144.291,1.32S59.916,39.171,59.916,85.695     S97.767,170.07,144.291,170.07z M144.291,10.694c41.353,0.001,75,33.647,75,75.001c0,24.778-12.131,46.72-30.703,60.384     l-12.352-18.197h19.617V99.757h-38.7l-52.617-77.541C116.077,14.96,129.68,10.694,144.291,10.694z M177.103,118.507v-9.375h9.375     v9.375H177.103z M167.728,109.132v6.211l-4.214-6.211H167.728z M158.55,118.507h-56.447v-9.375h50.086L158.55,118.507z      M96.886,27.635l48.942,72.122h-53.1v28.125h72.183l15.816,23.311c-10.795,6.033-23.213,9.502-36.436,9.502     c-41.353,0-75-33.647-75-75C69.291,62.309,80.058,41.401,96.886,27.635z" fill="#0a174c"/>
			<path d="M281.255,167.14l-10.533,13.167c-5.962,7.453-9.244,16.814-9.244,26.358v5.592H219.29     c-15.511,0-28.125,12.614-28.125,28.125v46.875h9.375v-18.75h60.938v18.75h9.375v-80.592c0-7.42,2.555-14.705,7.191-20.498     l10.533-13.167L281.255,167.14z M261.479,259.131h-60.938v-18.75c0-10.341,8.409-18.75,18.75-18.75h42.188V259.131z" fill="#0a174c"/>
			<path d="M69.291,212.257H27.103v-5.592c0-9.544-3.281-18.9-9.244-26.358L7.327,167.14L0,172.998l10.533,13.167     c4.641,5.794,7.195,13.078,7.195,20.498v80.592h9.375v-18.75h60.938v18.75h9.375V240.38     C97.416,224.87,84.802,212.257,69.291,212.257z M88.041,259.131H27.103v-37.5h42.188c10.341,0,18.75,8.409,18.75,18.75V259.131z" fill="#0a174c"/>
			<path d="M179.442,188.82h16.411v-9.375H92.728v9.375h16.411c5.348,0,10.27,2.18,13.87,6.136c3.6,3.961,5.302,9.07,4.795,14.391     l-7.42,77.911h47.812l-7.42-77.911c-0.502-5.325,1.2-10.434,4.795-14.391C169.172,190.998,174.094,188.82,179.442,188.82z      M151.444,210.231l6.441,67.65h-27.188l6.441-67.65c0.741-7.791-1.819-15.581-7.036-21.413h28.383     C153.263,194.65,150.703,202.44,151.444,210.231z" fill="#0a174c"/>
			<path d="M163.041,38.82c0,7.753,6.309,14.063,14.063,14.063h4.688c2.587,0,4.688,2.1,4.688,4.688v32.813h9.375V57.57     c0-7.753-6.309-14.063-14.063-14.063h-4.688c-2.587,0-4.688-2.1-4.688-4.688c0-7.753-6.309-14.062-14.063-14.062h-32.812v9.375     h32.812C160.941,34.132,163.041,36.231,163.041,38.82z" fill="#0a174c"/>
			<path d="M163.042,71.632c2.587,0,4.688,2.1,4.688,4.688v14.063h9.375V76.32c0-7.753-6.309-14.063-14.063-14.063h-4.688     c-2.587,0-4.688-2.1-4.688-4.688c0-7.753-6.309-14.063-14.063-14.063h-14.062v9.375h14.062v0.001c2.588,0,4.688,2.1,4.688,4.688     c0,7.753,6.309,14.063,14.063,14.063H163.042z" fill="#0a174c"/>
		</g>
	</g>
</g>
<g>
</g>
<g>
</g>
<g>
</g>
<g>
</g>
<g>
</g>
<g>
</g>
<g>
</g>
<g>
</g>
<g>
</g>
<g>
</g>
<g>
</g>
<g>
</g>
<g>
</g>
<g>
</g>
<g>
</g>
</svg>
