<?xml version="1.0" encoding="utf-8"?>
<!-- Generator: Adobe Illustrator 22.1.0, SVG Export Plug-In . SVG Version: 6.00 Build 0)  -->
<svg version="1.1" id="Capa_1" xmlns="http://www.w3.org/2000/svg" xmlns:xlink="http://www.w3.org/1999/xlink" x="0px" y="0px"
	 viewBox="0 0 496 496" style="enable-background:new 0 0 496 496;" xml:space="preserve">
<style type="text/css">
	.st0{fill:#0A174C;}
</style>
<g>
	<g>
		<path class="st0" d="M456,56.8H40c-22.4,0-40,17.6-40,40v128c0,22.4,17.6,40,40,40c4.8,0,8-3.2,8-8c0-22.4,17.6-40,40-40h320
			c22.4,0,40,17.6,40,40c0,4.8,3.2,8,8,8c22.4,0,40-17.6,40-40v-128C496,74.4,478.4,56.8,456,56.8z M480,224.8
			c0,10.4-6.4,20-16.8,23.2c-4.8-27.2-28-47.2-55.2-47.2H88c-27.2,0-50.4,20-55.2,47.2C22.4,244.8,16,235.2,16,224.8v-128
			c0-13.6,10.4-24,24-24h416c13.6,0,24,10.4,24,24V224.8z"/>
	</g>
</g>
<g>
	<g>
		<path class="st0" d="M408,232.8H88c-13.6,0-24,10.4-24,24v32c0,4.8,3.2,8,8,8h352c4.8,0,8-3.2,8-8v-32
			C432,243.2,421.6,232.8,408,232.8z M416,280.8H80v-24c0-4.8,3.2-8,8-8h320c4.8,0,8,3.2,8,8V280.8z"/>
	</g>
</g>
<g>
	<g>
		<path class="st0" d="M376,88.8H40c-4.8,0-8,3.2-8,8v48c0,4.8,3.2,8,8,8h336c4.8,0,8-3.2,8-8v-48C384,92,380.8,88.8,376,88.8z
			 M368,136.8H48v-32h320V136.8z"/>
	</g>
</g>
<g>
	<g>
		<path class="st0" d="M432,88.8c-17.6,0-32,14.4-32,32v56c0,4.8,3.2,8,8,8h48c4.8,0,8-3.2,8-8v-56C464,103.2,449.6,88.8,432,88.8z
			 M448,168.8h-32v-48c0-8.8,7.2-16,16-16s16,7.2,16,16V168.8z"/>
	</g>
</g>
<g>
	<g>
		<path class="st0" d="M152.8,412v-5.6c0-10.4-4-20.8-12-28l-13.6-13.6c-4.8-4.8-7.2-10.4-7.2-16.8v-5.6c-0.8-5.6,1.6-11.2,5.6-16
			l-11.2-11.2c-7.2,7.2-11.2,16.8-10.4,27.2v5.6c0,10.4,4,20.8,12,28l13.6,13.6c4.8,4.8,7.2,10.4,7.2,16.8v5.6
			c0.8,5.6-1.6,11.2-5.6,16l11.2,11.2C149.6,432,153.6,422.4,152.8,412z"/>
	</g>
</g>
<g>
	<g>
		<path class="st0" d="M200.8,412v-5.6c0-10.4-4-20.8-12-28l-13.6-13.6c-4.8-4.8-7.2-10.4-7.2-16.8v-5.6c-0.8-5.6,1.6-11.2,5.6-16
			l-11.2-11.2c-7.2,7.2-11.2,16.8-10.4,27.2v5.6c0,10.4,4,20.8,12,28l13.6,13.6c4.8,4.8,7.2,10.4,7.2,16.8v5.6
			c0.8,5.6-1.6,11.2-5.6,16l11.2,11.2C197.6,432,201.6,422.4,200.8,412z"/>
	</g>
</g>
<g>
	<g>
		<path class="st0" d="M248.8,412v-5.6c0-10.4-4-20.8-12-28l-13.6-13.6c-4.8-4.8-7.2-10.4-7.2-16.8v-5.6c-0.8-5.6,1.6-11.2,5.6-16
			l-11.2-11.2c-7.2,7.2-11.2,16.8-10.4,27.2v5.6c0,10.4,4,20.8,12,28l13.6,13.6c4.8,4.8,7.2,10.4,7.2,16.8v5.6
			c0.8,5.6-1.6,11.2-5.6,16l11.2,11.2C245.6,432,249.6,422.4,248.8,412z"/>
	</g>
</g>
<g>
	<g>
		<path class="st0" d="M296.8,412v-5.6c0-10.4-4-20.8-12-28l-13.6-13.6c-4.8-4.8-7.2-10.4-7.2-16.8v-5.6c-0.8-5.6,1.6-11.2,5.6-16
			l-11.2-11.2c-7.2,7.2-11.2,16.8-10.4,27.2v5.6c0,10.4,4,20.8,12,28l13.6,13.6c4.8,4.8,7.2,10.4,7.2,16.8v5.6
			c0.8,5.6-1.6,11.2-5.6,16l11.2,11.2C293.6,432,297.6,422.4,296.8,412z"/>
	</g>
</g>
<g>
	<g>
		<path class="st0" d="M344.8,412v-5.6c0-10.4-4-20.8-12-28l-13.6-13.6c-4.8-4.8-7.2-10.4-7.2-16.8v-5.6c-0.8-5.6,1.6-11.2,5.6-16
			l-11.2-11.2c-7.2,7.2-11.2,16.8-10.4,27.2v5.6c0,10.4,4,20.8,12,28l13.6,13.6c4.8,4.8,7.2,10.4,7.2,16.8v5.6
			c0.8,5.6-1.6,11.2-5.6,16l11.2,11.2C341.6,432,345.6,422.4,344.8,412z"/>
	</g>
</g>
<g>
	<g>
		<path class="st0" d="M392.8,412v-5.6c0-10.4-4-20.8-12-28l-13.6-13.6c-4.8-4.8-7.2-10.4-7.2-16.8v-5.6c-0.8-5.6,1.6-11.2,5.6-16
			l-11.2-11.2c-7.2,7.2-11.2,16.8-10.4,27.2v5.6c0,10.4,4,20.8,12,28l13.6,13.6c4.8,4.8,7.2,10.4,7.2,16.8v5.6
			c0.8,5.6-1.6,11.2-5.6,16l11.2,11.2C389.6,432,393.6,422.4,392.8,412z"/>
	</g>
</g>
</svg>
