<?xml version="1.0"?>
<svg xmlns="http://www.w3.org/2000/svg" height="512px" viewBox="0 -64 512.00001 512" width="512px"><path d="m503.464844 136.535156h-18.941406l-6.914063-27.664062c-.945313-3.800782-4.359375-6.46875-8.277344-6.46875h-136.535156c-3.914063 0-7.328125 2.667968-8.277344 6.46875l-6.910156 27.664062h-18.945313c-4.710937 0-8.53125 3.820313-8.53125 8.53125v34.136719c0 4.710937 3.820313 8.53125 8.53125 8.53125h18.015626l2.003906 17.066406h-11.484375c-4.714844 0-8.535157 3.820313-8.535157 8.535157v59.734374c0 4.710938 3.820313 8.53125 8.535157 8.53125h20.523437l4.007813 34.132813h-25.496094c-2.199219-10.269531-8.324219-19.273437-17.066406-25.09375l-35.414063-23.628906c-4.25-12.699219-14.226562-22.65625-26.929687-26.882813l-26.242188-8.746094c-5.886719-11.066406-17.382812-18.003906-29.917969-18.046874h-17.066406c-12.535156.042968-24.03125 6.980468-29.917968 18.046874l-26.238282 8.746094c-12.707031 4.226563-22.683594 14.183594-26.933594 26.882813l-35.449218 23.628906c-8.742188 5.820313-14.867188 14.824219-17.066406 25.09375h-9.460938c-4.714844.003906-8.53515625 3.824219-8.53125 8.539063 0 .46875.0390625.933593.117188 1.394531l2.558593 15.546875c4.046875 24.738281 25.460938 42.871094 50.527344 42.789062h405.589844c25.054687.070313 46.453125-18.0625 50.503906-42.789062l2.558594-15.546875c.773437-4.648438-2.371094-9.042969-7.019531-9.816407-.453126-.074218-.910157-.113281-1.371094-.117187h-33.066406l4.019531-34.132813h20.515625c4.710937 0 8.53125-3.820312 8.53125-8.53125v-59.734374c0-4.714844-3.820313-8.535157-8.53125-8.535157h-11.488282l2.007813-17.066406h18.011719c4.714844 0 8.535156-3.820313 8.535156-8.53125v-34.136719c0-4.710937-3.820312-8.53125-8.535156-8.53125zm-164-17.066406h123.203125l4.265625 17.066406h-131.738282zm-83.46875 169.539062 23.734375 15.832032c3.980469 2.640625 7.050781 6.445312 8.796875 10.894531h-32.53125zm-51.199219-38.226562 16.625 5.527344c10.457031 3.484375 17.511719 13.273437 17.507813 24.296875v35.128906h-34.132813zm-68.265625-3.3125c0-9.425781 7.640625-17.066406 17.066406-17.066406h17.066406c9.425782 0 17.066407 7.640625 17.066407 17.066406v68.265625h-51.199219zm-51.203125 33.136719c0-11.023438 7.054687-20.8125 17.511719-24.296875l16.625-5.527344v64.953125h-34.136719zm-40.796875 24.234375 23.730469-15.832032v26.726563h-32.527344c1.746094-4.449219 4.816406-8.25 8.796875-10.894531zm448.855469 27.960937-.929688 5.617188c-2.695312 16.484375-16.960937 28.570312-33.664062 28.519531h-405.589844c-16.703125.050781-30.96875-12.035156-33.664063-28.519531l-.929687-5.617188zm-148.480469-51.199219h112.328125l-4.03125 34.132813h-104.277344zm141.492188-59.734374v42.667968h-170.667969v-42.667968zm-152.542969-34.132813h134.410156l-2.003906 17.066406h-130.390625zm161.078125-17.066406h-187.734375v-17.066407h187.734375zm0 0" fill="#0a174c"/><path d="m162.128906 8.535156c-47.125 0-85.332031 38.203125-85.332031 85.332032 0 47.128906 38.207031 85.335937 85.332031 85.335937 47.128906 0 85.335938-38.207031 85.335938-85.335937-.050782-47.105469-38.226563-85.28125-85.335938-85.332032zm0 153.597656c-37.703125 0-68.265625-30.5625-68.265625-68.265624 0-37.703126 30.5625-68.265626 68.265625-68.265626s68.269532 30.5625 68.269532 68.265626c-.042969 37.6875-30.582032 68.226562-68.269532 68.265624zm0 0" fill="#0a174c"/><path d="m170.664062 89.300781v-38.101562c0-4.710938-3.820312-8.53125-8.535156-8.53125-4.710937 0-8.53125 3.820312-8.53125 8.53125v42.667969c0 2.851562 1.425782 5.515624 3.796875 7.101562l25.601563 17.066406c3.921875 2.613282 9.21875 1.554688 11.835937-2.367187 2.613281-3.917969 1.554688-9.21875-2.363281-11.832031zm0 0" fill="#0a174c"/><path d="m426.664062 8.535156c0-4.714844-3.820312-8.535156-8.53125-8.535156-4.714843 0-8.535156 3.820312-8.535156 8.535156 0 4.792969-1.851562 6.824219-6.03125 11.03125-12.757812 10.308594-14.746094 29.003906-4.4375 41.761719 1.316406 1.632813 2.804688 3.121094 4.4375 4.4375 4.179688 4.183594 6.03125 6.238281 6.03125 11.035156 0 4.714844 3.820313 8.535157 8.535156 8.535157 4.710938 0 8.53125-3.820313 8.53125-8.535157-.097656-8.949219-4.132812-17.398437-11.03125-23.101562-4.183593-4.207031-6.035156-6.238281-6.035156-11.03125 0-4.796875 1.851563-6.828125 6.035156-11.035157 6.898438-5.699218 10.933594-14.152343 11.03125-23.097656zm0 0" fill="#0a174c"/><path d="m477.867188 8.535156c0-4.714844-3.820313-8.535156-8.535157-8.535156-4.710937 0-8.53125 3.820312-8.53125 8.535156 0 4.792969-1.851562 6.824219-6.035156 11.03125-12.757813 10.308594-14.742187 29.003906-4.4375 41.761719 1.320313 1.632813 2.804687 3.121094 4.4375 4.4375 4.183594 4.183594 6.035156 6.238281 6.035156 11.035156 0 4.714844 3.820313 8.535157 8.53125 8.535157 4.714844 0 8.535157-3.820313 8.535157-8.535157-.101563-8.949219-4.136719-17.398437-11.035157-23.101562-4.179687-4.207031-6.03125-6.238281-6.03125-11.03125 0-4.796875 1.851563-6.828125 6.03125-11.035157 6.898438-5.699218 10.933594-14.152343 11.035157-23.097656zm0 0" fill="#0a174c"/></svg>
