<?xml version="1.0" encoding="utf-8"?>
<!-- Generator: Adobe Illustrator 22.1.0, SVG Export Plug-In . SVG Version: 6.00 Build 0)  -->
<svg version="1.1" id="Capa_1" xmlns="http://www.w3.org/2000/svg" xmlns:xlink="http://www.w3.org/1999/xlink" x="0px" y="0px"
	 viewBox="0 0 512 512" style="enable-background:new 0 0 512 512;" xml:space="preserve">
<style type="text/css">
	.st0{fill:#0A174C;}
</style>
<g>
	<g>
		<path class="st0" d="M135.7,36.4C120.4,36.4,108,48.8,108,64v83.3c0,15.3,12.4,27.7,27.7,27.7c15.3,0,27.7-12.4,27.7-27.7V64
			C163.4,48.8,151,36.4,135.7,36.4z M148.4,147.3c0,7-5.7,12.7-12.7,12.7c-7,0-12.7-5.7-12.7-12.7V64c0-7,5.7-12.7,12.7-12.7
			c7,0,12.7,5.7,12.7,12.7V147.3z"/>
	</g>
</g>
<g>
	<g>
		<path class="st0" d="M135.7,227c-15.3,0-27.7,12.4-27.7,27.7V408c0,15.3,12.4,27.7,27.7,27.7c15.3,0,27.7-12.4,27.7-27.7V254.7
			C163.4,239.4,151,227,135.7,227z M148.4,408c0,7-5.7,12.7-12.7,12.7c-7,0-12.7-5.7-12.7-12.7V254.7c0-7,5.7-12.7,12.7-12.7
			c7,0,12.7,5.7,12.7,12.7V408z"/>
	</g>
</g>
<g>
	<g>
		<path class="st0" d="M201.6,90c-4.1,0-7.5,3.4-7.5,7.5v16.1c0,4.1,3.4,7.5,7.5,7.5s7.5-3.4,7.5-7.5V97.5
			C209.1,93.3,205.7,90,201.6,90z"/>
	</g>
</g>
<g>
	<g>
		<path class="st0" d="M380,90c-4.1,0-7.5,3.4-7.5,7.5v16.1c0,4.1,3.4,7.5,7.5,7.5s7.5-3.4,7.5-7.5V97.5C387.5,93.3,384.1,90,380,90
			z"/>
	</g>
</g>
<g>
	<g>
		<path class="st0" d="M317.7,106.8c-3.1-2.7-7.9-2.4-10.6,0.7c-4,4.6-10,7.2-16.4,7.2s-12.4-2.6-16.4-7.2
			c-2.7-3.1-7.5-3.4-10.6-0.7s-3.4,7.5-0.7,10.6c6.8,7.8,16.9,12.3,27.7,12.3c10.7,0,20.8-4.5,27.7-12.3
			C321.2,114.3,320.8,109.6,317.7,106.8z"/>
	</g>
</g>
<g>
	<g>
		<path class="st0" d="M396.5,0h-281C88.1,0,65.7,22.3,65.7,49.8v376.8c0,24.9,18.4,45.6,42.3,49.2v10c0,14.5,11.8,26.2,26.2,26.2
			h33c14.5,0,26.2-11.8,26.2-26.2v-9.5h125v9.5c0,14.5,11.8,26.2,26.2,26.2h33c14.5,0,26.2-11.8,26.2-26.2v-10
			c23.9-3.6,42.3-24.3,42.3-49.2V49.8C446.3,22.3,423.9,0,396.5,0z M178.5,485.8c0,6.2-5,11.2-11.2,11.2h-33
			c-6.2,0-11.2-5-11.2-11.2v-9.5h55.5V485.8z M377.8,497h-33c-6.2,0-11.2-5-11.2-11.2v-9.5H389v9.5h0C389,492,383.9,497,377.8,497z
			 M431.3,196.4h-63.5c-4.1,0-7.5,3.4-7.5,7.5s3.4,7.5,7.5,7.5h63.5v215.2c0,19.2-15.6,34.8-34.8,34.8h-281
			c-19.2,0-34.8-15.6-34.8-34.8V211.4h257c4.1,0,7.5-3.4,7.5-7.5s-3.4-7.5-7.5-7.5h-257V49.8c0-19.2,15.6-34.8,34.8-34.8h281
			c19.2,0,34.8,15.6,34.8,34.8L431.3,196.4L431.3,196.4z"/>
	</g>
</g>
</svg>
