<?xml version="1.0"?>
<svg xmlns="http://www.w3.org/2000/svg" height="512px" viewBox="0 0 496 496" width="512px"><path d="m490.816406 72.503906-192-72c-.902344-.335937-1.855468-.503906-2.8125-.503906h-96c-.960937 0-1.914062.167969-2.816406.503906l-192 72c-4.089844 1.535156-6.183594 6.070313-4.722656 10.175782l40 112c.730468 2.046874 2.257812 3.710937 4.242187 4.601562 1.992188.902344 4.238281.957031 6.253907.144531l69.042968-27.609375v316.183594c0 4.425781 3.574219 8 8 8h240c4.421875 0 8-3.574219 8-8v-316.183594l69.03125 27.617188c2.015625.8125 4.269532.757812 6.253906-.144532 1.984376-.890624 3.511719-2.554687 4.242188-4.601562l40-112c1.472656-4.113281-.632812-8.640625-4.714844-10.183594zm-130.8125 199.496094h-224v-16h224zm-224 16h16v80h-16zm50.238282 0 26.664062 80h-15.136719l-26.671875-80zm-50.238282-108.246094 184.71875-153.9375 18.230469 6.832032-202.949219 173.96875zm80.140625-87.625-54.421875-61.226562 18.582032-6.964844 49.625 56.710938zm-14.6875-76.128906h93.097657l8.925781 3.351562-61.253907 51.039063-45.90625-52.460937zm-183.277343 68.726562 18.277343-6.855468 34.425781 96.359375-18.136718 7.257812zm67.558593 83.5625-34.296875-96.03125 94.234375-35.335937 58.183594 65.453125-67.976563 56.648438c-.289062-2.269532-1.480468-4.335938-3.394531-5.640626-2.199219-1.488281-5.007812-1.796874-7.453125-.808593zm50.265625 311.710938v-96h24c4.421875 0 8-3.574219 8-8v-46.710938l16.414063 49.238282c1.089843 3.273437 4.136719 5.472656 7.585937 5.472656h32c2.566406 0 4.980469-1.230469 6.496094-3.320312 1.503906-2.085938 1.910156-4.777344 1.09375-7.207032l-28.496094-85.472656h156.90625v192zm234.964844-327.433594c-2.4375-.980468-5.246094-.671875-7.453125.808594-2.195313 1.488281-3.511719 3.96875-3.511719 6.625v80h-224v-12.328125l220.046875-188.609375 88.511719 33.195312-34.296875 96.03125zm72.289062 28.921875-18.136718-7.257812 34.417968-96.359375 18.277344 6.855468zm0 0" fill="#0a174c"/></svg>
