<?xml version="1.0" encoding="iso-8859-1"?>
<!-- Generator: Adobe Illustrator 19.0.0, SVG Export Plug-In . SVG Version: 6.00 Build 0)  -->
<svg xmlns="http://www.w3.org/2000/svg" xmlns:xlink="http://www.w3.org/1999/xlink" version="1.1" id="Capa_1" x="0px" y="0px" viewBox="0 0 480 480" style="enable-background:new 0 0 480 480;" xml:space="preserve" width="512px" height="512px">
<g>
	<g>
		<path d="M472,280c4.424,0,8-3.584,8-8v-96c0-4.416-3.576-8-8-8H348.424c-4.76-10.752-14.048-19.064-25.44-22.328l-5.232-1.496    C324.184,135.064,328,123.976,328,112c0-30.88-25.128-56-56-56s-56,25.12-56,56c0,13.048,4.52,25.04,12.032,34.576l-8.904,3.56    c-5.072,2.024-9.584,5.008-13.432,8.856L180.688,184H124c-15.44,0-28,12.56-28,28c0,4.312,1.064,8.352,2.808,12H24    c-4.424,0-8,3.584-8,8v64H8c-4.424,0-8,3.584-8,8v32c0,2.672,1.336,5.168,3.56,6.656l24,16C28.872,359.528,30.424,360,32,360h8    v112c0,4.416,3.576,8,8,8h384c4.424,0,8-3.584,8-8V360h8c1.576,0,3.128-0.472,4.44-1.344l24-16c2.224-1.488,3.56-3.984,3.56-6.656    v-32c0-4.416-3.576-8-8-8h-56v-16H472z M272,72c22.056,0,40,17.944,40,40c0,12.88-6.224,24.24-15.712,31.56    c-1.064,0.816-2.128,1.624-3.256,2.32c-0.68,0.424-1.4,0.76-2.104,1.144c-9.52,5.016-20.872,6.04-31.096,2.888    c-0.32-0.104-0.648-0.184-0.96-0.296c-1.608-0.536-3.16-1.24-4.688-1.984c-0.88-0.44-1.744-0.904-2.584-1.408    c-1.104-0.648-2.184-1.352-3.224-2.112C238.496,136.808,232,125.184,232,112C232,89.944,249.944,72,272,72z M124,200h60    c2.128,0,4.16-0.84,5.656-2.344l27.368-27.36c2.296-2.304,5.008-4.088,8.048-5.312l15.936-6.376    c0.064,0.048,0.144,0.072,0.216,0.12c2.192,1.448,4.52,2.712,6.912,3.848c0.168,0.08,0.336,0.168,0.512,0.248    C255.768,166.112,263.656,168,272,168c12.152,0,23.384-3.936,32.576-10.544c0.144-0.104,0.304-0.168,0.448-0.272l13.56,3.872    c4.312,1.232,8.136,3.672,11.08,6.944H320c-4.424,0-8,3.584-8,8v96c0,4.416,3.576,8,8,8h16v16h-96v-88    c0-3.032-1.712-5.8-4.424-7.16c-2.704-1.352-5.952-1.056-8.376,0.76L197.336,224H136h-12c-6.616,0-12-5.384-12-12    C112,205.384,117.384,200,124,200z M224,224v72h-80v-56h56c1.736,0,3.416-0.56,4.8-1.6L224,224z M32,240h92h4v56H32V240z M464,312    v19.72L445.576,344H432c-4.424,0-8,3.584-8,8v112H56V352c0-4.416-3.576-8-8-8H34.424L16,331.72V312h8h112h96h112h32h32H464z     M352,296v-16h16v16H352z M384,296v-16h16v16H384z M408,264h-32h-32h-16v-80h14.84H464v80H408z" fill="#0a174c"/>
	</g>
</g>
<g>
	<g>
		<path d="M72,0C32.296,0,0,32.304,0,72s32.296,72,72,72s72-32.304,72-72S111.704,0,72,0z M80,127.36V112H64v15.36    C39.528,123.832,20.168,104.472,16.64,80H32V64H16.64C20.168,39.528,39.528,20.168,64,16.64V32h16V16.64    c24.472,3.528,43.832,22.888,47.36,47.36H112v16h15.36C123.832,104.472,104.472,123.832,80,127.36z" fill="#0a174c"/>
	</g>
</g>
<g>
	<g>
		<path d="M89.6,43.208L71.128,67.832l-9.472-9.488L50.344,69.656l16,16C67.848,87.168,69.88,88,72,88    c0.184,0,0.376-0.008,0.568-0.016c2.312-0.168,4.44-1.328,5.832-3.176l24-32L89.6,43.208z" fill="#0a174c"/>
	</g>
</g>
<g>
</g>
<g>
</g>
<g>
</g>
<g>
</g>
<g>
</g>
<g>
</g>
<g>
</g>
<g>
</g>
<g>
</g>
<g>
</g>
<g>
</g>
<g>
</g>
<g>
</g>
<g>
</g>
<g>
</g>
</svg>
