<?xml version="1.0" encoding="utf-8"?>
<!-- Generator: Adobe Illustrator 22.1.0, SVG Export Plug-In . SVG Version: 6.00 Build 0)  -->
<svg version="1.1" id="Layer_1" xmlns="http://www.w3.org/2000/svg" xmlns:xlink="http://www.w3.org/1999/xlink" x="0px" y="0px"
	 viewBox="0 0 512 512" style="enable-background:new 0 0 512 512;" xml:space="preserve">
<style type="text/css">
	.st0{fill:#0A174C;}
</style>
<path class="st0" d="M168.3,0H12.7C5.7,0,0,5.7,0,12.7v416.2c0,16.5,12.1,30.1,27.8,32.7v30.3c0,11.1,9,20.1,20.1,20.1h84.7
	c11.1,0,20.1-9,20.1-20.1v-30.2c15.9-2.4,28.2-16.2,28.2-32.7V319.7c0-4.1-3.4-7.5-7.5-7.5s-7.5,3.4-7.5,7.5v27.9H15V55h151v232.7
	c0,4.1,3.4,7.5,7.5,7.5s7.5-3.4,7.5-7.5V12.7C181,5.7,175.3,0,168.3,0z M137.8,491.9c0,2.8-2.3,5.1-5.1,5.1H48
	c-2.8,0-5.1-2.3-5.1-5.1V462h95V491.9z M147.9,447H33.1c-10,0-18.1-8.1-18.1-18.1v-36.4h151v36.4C166,438.9,157.9,447,147.9,447z
	 M166,362.5v15H15v-15H166z M15,40V15h151v25H15z"/>
<path class="st0" d="M500.5,0h-112C382.2,0,377,5.2,377,11.5V64c0,4.1,3.4,7.5,7.5,7.5s7.5-3.4,7.5-7.5v-9h105v377.5
	c0,8-6.5,14.5-14.5,14.5h-76c-8,0-14.5-6.5-14.5-14.5V94.2c0-4.1-3.4-7.5-7.5-7.5s-7.5,3.4-7.5,7.5v338.3
	c0,16.3,13.2,29.5,29.5,29.5h0.5v32.5c0,9.6,7.9,17.5,17.5,17.5h40c9.6,0,17.5-7.9,17.5-17.5V462h0.5c16.3,0,29.5-13.2,29.5-29.5
	v-421C512,5.2,506.8,0,500.5,0z M467,494.5c0,1.4-1.1,2.5-2.5,2.5h-40c-1.4,0-2.5-1.1-2.5-2.5V462h45V494.5z M392,40V15h105v25H392z
	"/>
<path class="st0" d="M306,159.5c4.1,0,7.5-3.4,7.5-7.5V24c0-4.1-3.4-7.5-7.5-7.5h-63.3C240,7,231.3,0,221,0
	c-12.4,0-22.5,10.1-22.5,22.5v467c0,12.4,10.1,22.5,22.5,22.5s22.5-10.1,22.5-22.5v-330H306z M298.5,144.5h-55v-14H282
	c4.1,0,7.5-3.4,7.5-7.5s-3.4-7.5-7.5-7.5h-38.5v-20H282c4.1,0,7.5-3.4,7.5-7.5s-3.4-7.5-7.5-7.5h-38.5v-20H282
	c4.1,0,7.5-3.4,7.5-7.5s-3.4-7.5-7.5-7.5h-38.5v-14h55V144.5z M228.5,489.5c0,4.1-3.4,7.5-7.5,7.5s-7.5-3.4-7.5-7.5v-467
	c0-4.1,3.4-7.5,7.5-7.5s7.5,3.4,7.5,7.5V489.5z"/>
<path class="st0" d="M348,245h-4.5v-18.5c0-7.4-6.1-13.5-13.5-13.5h-34c-7.4,0-13.5,6.1-13.5,13.5V245H278
	c-7.4,0-13.5,6.1-13.5,13.5v189.3c0,4.1,3.4,7.5,7.5,7.5s7.5-3.4,7.5-7.5V335.2h67V497h-67v-17.5c0-4.1-3.4-7.5-7.5-7.5
	s-7.5,3.4-7.5,7.5v19c0,7.4,6.1,13.5,13.5,13.5h70c7.4,0,13.5-6.1,13.5-13.5v-240C361.5,251.1,355.4,245,348,245z M297.5,228h31v17
	h-31V228z M346.5,260v30.2h-67V260H346.5z M279.5,320.2v-15h67v15H279.5z"/>
</svg>
