<?xml version="1.0" encoding="iso-8859-1"?>
<!-- Generator: Adobe Illustrator 19.0.0, SVG Export Plug-In . SVG Version: 6.00 Build 0)  -->
<svg xmlns="http://www.w3.org/2000/svg" xmlns:xlink="http://www.w3.org/1999/xlink" version="1.1" id="Capa_1" x="0px" y="0px" viewBox="0 0 512 512" style="enable-background:new 0 0 512 512;" xml:space="preserve" width="512px" height="512px">
<g>
	<g>
		<path d="M506.633,335.107c-9.594-14.101-28.917-17.834-43.059-8.328l-97.952,65.554l-20.939-1.175l-0.536-5.377    c-2.083-20.952-18.098-37.645-38.946-40.595c-0.064-0.009-0.128-0.018-0.192-0.025l-79.772-9.185    c-17.515-2.49-34.139-8.283-49.411-17.217c-23.05-13.483-49.348-20.611-76.052-20.611h-11.84v-14.074    c0-8.927-7.262-16.189-16.189-16.189H16.189C7.262,267.884,0,275.147,0,284.074v105.248c0,4.122,3.341,7.464,7.464,7.464    s7.464-3.342,7.464-7.464V284.074c0-0.695,0.566-1.261,1.261-1.261h55.555c0.695,0,1.261,0.566,1.261,1.261v175.973    c0,0.695-0.566,1.261-1.261,1.261H16.189c-0.695,0-1.261-0.566-1.261-1.261v-21.699c0-4.122-3.341-7.464-7.464-7.464    S0,434.225,0,438.347v21.699c0,8.927,7.262,16.189,16.189,16.189h55.555c8.927,0,16.189-7.263,16.189-16.189v-10.618    l103.807,39.31c0.202,0.076,0.407,0.144,0.615,0.203c4.575,1.292,9.147,1.938,13.644,1.938c2.418,0,4.815-0.187,7.179-0.561    l153.302-22.099c0.037-0.005,0.074-0.011,0.112-0.017c13.051-2.084,25.366-7.591,35.62-15.928l98.95-76.068    c0.139-0.107,0.275-0.22,0.406-0.336C513.225,365.519,515.402,347.995,506.633,335.107z M491.834,364.546l-98.804,75.955    c-0.056,0.044-0.113,0.088-0.168,0.134c-8.22,6.704-18.099,11.136-28.573,12.817L211.123,475.53    c-0.033,0.005-0.174,0.027-0.207,0.032c-4.588,0.725-9.365,0.42-14.205-0.905L87.933,433.464V313.077h11.84    c24.057,0,47.748,6.421,68.514,18.569c16.984,9.934,35.472,16.369,54.95,19.124c0.064,0.009,0.128,0.018,0.192,0.025l79.771,9.184    c13.969,2.02,24.694,13.224,26.091,27.279l0.216,2.172L166.46,364.68c-4.074-0.621-7.882,2.183-8.5,6.26    c-0.619,4.076,2.184,7.881,6.259,8.5l172.546,26.192c0.002,0,0.004,0,0.006,0c0.229,0.034,0.461,0.059,0.697,0.073l29.811,1.673    c1.613,0.09,3.223-0.348,4.569-1.249l100.04-66.951c7.361-4.948,17.411-3.006,22.401,4.327c0,0,0,0,0.001,0    C498.807,350.142,497.741,359.144,491.834,364.546z" fill="#0a174c"/>
	</g>
</g>
<g>
	<g>
		<path d="M443.152,103.027l-45.656-45.655c-3.495-3.496-8.144-5.422-13.088-5.422c-4.943,0-9.592,1.925-13.087,5.421    c-3.496,3.496-5.422,8.144-5.422,13.088c0,4.944,1.925,9.592,5.421,13.088l45.657,45.656c3.496,3.496,8.144,5.42,13.087,5.42    c4.944,0,9.592-1.925,13.088-5.421C450.368,121.986,450.368,110.244,443.152,103.027z M432.595,118.647    c-0.912,0.912-1.977,1.048-2.531,1.048s-1.619-0.136-2.531-1.048l-45.656-45.656c-0.913-0.913-1.05-1.978-1.05-2.532    c0-0.554,0.137-1.619,1.05-2.531c0.912-0.913,1.978-1.049,2.531-1.049c0.554,0,1.619,0.136,2.531,1.049l45.656,45.656    c0.913,0.913,1.05,1.978,1.05,2.532C433.644,116.669,433.507,117.734,432.595,118.647z" fill="#0a174c"/>
	</g>
</g>
<g>
	<g>
		<path d="M467.342,86.352l-53.168-53.168c-8.364-8.363-19.935-12.73-31.732-11.979c-11.804,0.75-22.724,6.545-29.961,15.9    l-60.491,78.191c-11.651,15.059-11.328,36.04,0.169,50.71l-15.467,15.467c-2.683,2.684-3.506,6.536-2.466,9.937l-16.567,16.567    c-0.708,0.708-1.302,1.516-1.77,2.406l-8.953,17.054l-16.204,8.376c-2.217,1.147-3.909,3.071-4.765,5.418l-4.981,13.669    l-18.372,9.218c-2.817,1.412-4.813,4.111-5.341,7.221l-4.163,24.633c-0.536,3.164,0.5,6.406,2.767,8.675    c1.875,1.873,4.415,2.906,7.028,2.906c0.548,0,1.1-0.045,1.648-0.138l24.631-4.164c3.109-0.525,5.81-2.521,7.221-5.337    l9.221-18.375l13.668-4.982c2.344-0.854,4.268-2.545,5.42-4.769l8.374-16.199l17.062-8.958c0.884-0.466,1.691-1.06,2.398-1.766    l16.561-16.561c0.935,0.287,1.918,0.435,2.924,0.435c2.653,0,5.146-1.034,7.021-2.908l15.466-15.466    c7.41,5.808,16.425,8.772,25.481,8.772c8.871,0,17.776-2.836,25.228-8.601l24.88-19.249c3.261-2.523,3.859-7.211,1.336-10.471    c-2.523-3.261-7.213-3.858-10.47-1.336l-24.88,19.249c-10.46,8.091-25.397,7.143-34.748-2.208l-35.343-35.342    c-9.35-9.35-10.299-24.289-2.208-34.748l60.491-78.191c4.614-5.964,11.576-9.658,19.101-10.136    c7.513-0.477,14.898,2.304,20.229,7.636l53.168,53.168c5.332,5.331,8.116,12.705,7.637,20.23    c-0.478,7.525-4.173,14.486-10.136,19.1l-14.418,11.155c-3.261,2.523-3.859,7.211-1.336,10.471    c2.523,3.261,7.213,3.858,10.47,1.336l14.418-11.155c9.355-7.237,15.15-18.157,15.901-29.961    C480.071,106.281,475.704,94.715,467.342,86.352z M302.494,176.779l21.249,21.249l-12.528,12.528    c-3.404-1.04-7.254-0.217-9.939,2.468L282.53,231.77l-17.774,9.331c-1.809,0.95-3.263,2.411-4.205,4.232l-8.201,15.865    l-13.701,4.994c-2.39,0.871-4.335,2.602-5.475,4.876l-8.975,17.885L209,291.523l2.569-15.2l17.89-8.977    c2.268-1.14,3.998-3.081,4.871-5.472l4.993-13.701l15.869-8.203c1.814-0.938,3.274-2.389,4.229-4.203l9.331-17.775l18.747-18.746    c2.683-2.684,3.507-6.536,2.466-9.938L302.494,176.779z" fill="#0a174c"/>
	</g>
</g>
<g>
</g>
<g>
</g>
<g>
</g>
<g>
</g>
<g>
</g>
<g>
</g>
<g>
</g>
<g>
</g>
<g>
</g>
<g>
</g>
<g>
</g>
<g>
</g>
<g>
</g>
<g>
</g>
<g>
</g>
</svg>
