<?xml version="1.0" encoding="utf-8"?>
<!-- Generator: Adobe Illustrator 22.1.0, SVG Export Plug-In . SVG Version: 6.00 Build 0)  -->
<svg version="1.1" id="Layer_1" xmlns="http://www.w3.org/2000/svg" xmlns:xlink="http://www.w3.org/1999/xlink" x="0px" y="0px"
	 viewBox="0 0 480 480" style="enable-background:new 0 0 480 480;" xml:space="preserve">
<style type="text/css">
	.st0{fill:#0A174C;}
</style>
<path class="st0" d="M456,40H88c-13.3,0-24,10.7-24,24v16h-8c-30.9,0-56,25.1-56,56v232c0,39.7,32.3,72,72,72h8
	c36.6-0.1,67.4-27.6,71.5-64H456c13.3,0,24-10.7,24-24V64C480,50.7,469.3,40,456,40z M80,424h-8c-30.9,0-56-25.1-56-56V136
	c0-22.1,17.9-40,40-40h8v256c0,13.3,10.7,24,24,24h47.4C131.4,403.5,107.8,423.9,80,424z M464,352c0,4.4-3.6,8-8,8H152v-16h16
	c13.3,0,24-10.7,24-24V96c0-13.3-10.7-24-24-24h-48c-13.3,0-24,10.7-24,24v224c0,13.3,10.7,24,24,24h16v16H88c-4.4,0-8-3.6-8-8V64
	c0-4.4,3.6-8,8-8h368c4.4,0,8,3.6,8,8V352z M120,328c-4.4,0-8-3.6-8-8V96c0-4.4,3.6-8,8-8h48c4.4,0,8,3.6,8,8v224c0,4.4-3.6,8-8,8
	H120z"/>
<path class="st0" d="M440,88H216c-4.4,0-8,3.6-8,8v64c0,4.4,3.6,8,8,8h224c4.4,0,8-3.6,8-8V96C448,91.6,444.4,88,440,88z M432,152
	H224v-48h208V152z"/>
<path class="st0" d="M440,184H216c-4.4,0-8,3.6-8,8v128c0,4.4,3.6,8,8,8h224c4.4,0,8-3.6,8-8V192C448,187.6,444.4,184,440,184z
	 M432,312H224V200h208V312z"/>
</svg>
