<?xml version="1.0" encoding="utf-8"?>
<!-- Generator: Adobe Illustrator 22.1.0, SVG Export Plug-In . SVG Version: 6.00 Build 0)  -->
<svg version="1.1" id="Capa_1" xmlns="http://www.w3.org/2000/svg" xmlns:xlink="http://www.w3.org/1999/xlink" x="0px" y="0px"
	 viewBox="0 0 380.7 380.7" style="enable-background:new 0 0 380.7 380.7;" xml:space="preserve">
<style type="text/css">
	.st0{fill:#0A174C;}
</style>
<g>
	<g>
		<path class="st0" d="M264.5,129.5h-216c-13.3,0-24,10.7-24,24v144c0,13.3,10.7,24,24,24h216c13.3,0,24-10.7,24-24v-144
			C288.5,140.3,277.7,129.5,264.5,129.5z M276.8,297.5c0,6.8-5.5,12.3-12.3,12.3h-216c-6.8,0-12.3-5.5-12.3-12.3v-144
			c0-6.8,5.5-12.3,12.3-12.3h216c6.8,0,12.3,5.5,12.3,12.3V297.5z"/>
	</g>
</g>
<g>
	<g>
		<path class="st0" d="M351.9,105.3L351.9,105.3H195.1l41.6-61.2c1.8-2.6,1.1-6.2-1.5-8s-6.2-1.1-8,1.5l-44,64.7L137,60.8
			c-2.6-1.9-6.2-1.4-8.1,1.1c-1.7,2.3-1.5,5.4,0.4,7.5l40,36H28.8C12.9,105.5,0,118.3,0,134.2v182.6c0,15.9,12.9,28.7,28.8,28.8
			h323.2c15.9,0,28.7-12.9,28.8-28.8V134.1C380.6,118.2,367.8,105.3,351.9,105.3z M369.1,316.8c0,9.5-7.7,17.2-17.2,17.2H28.8
			c-9.5,0-17.2-7.7-17.2-17.2V134.1c0-9.5,7.7-17.2,17.2-17.2h323.2c9.5,0,17.2,7.7,17.2,17.2L369.1,316.8z"/>
	</g>
</g>
<g>
	<g>
		<path class="st0" d="M344.2,152.6l-0.3-0.3c-9-9-23.7-9-32.7,0c0,0,0,0,0,0c-9,9-9,23.7,0,32.7c0,0,0,0,0,0
			c9.3,8.7,24,8.2,32.7-1.1C352,175.1,352.2,161.5,344.2,152.6z M335.8,176.8c-4.5,4.5-11.9,4.5-16.4,0c-4.2-4.9-3.6-12.2,1.2-16.4
			c4.4-3.8,10.8-3.8,15.1,0l0.2,0.2c4.2,4.5,4.1,11.6-0.2,16L335.8,176.8z"/>
	</g>
</g>
<g>
	<g>
		<path class="st0" d="M339.8,210.6c-3.3-3.3-7.7-5.1-12.3-5.1c-9.6,0-17.4,7.8-17.4,17.4c0,9.6,7.8,17.4,17.4,17.4
			c9.6,0,17.4-7.8,17.4-17.4C344.8,218.3,343,213.9,339.8,210.6z M331.6,227L331.6,227c-2.3,2.3-6,2.3-8.3,0.1s-2.3-5.9,0-8.2
			s5.9-2.3,8.2,0c1.1,1.1,1.7,2.6,1.7,4.2C333.2,224.5,332.6,225.9,331.6,227z"/>
	</g>
</g>
</svg>
