<?xml version="1.0" encoding="utf-8"?>
<!-- Generator: Adobe Illustrator 22.1.0, SVG Export Plug-In . SVG Version: 6.00 Build 0)  -->
<svg version="1.1" id="Capa_1" xmlns="http://www.w3.org/2000/svg" xmlns:xlink="http://www.w3.org/1999/xlink" x="0px" y="0px"
	 viewBox="0 0 496 496" style="enable-background:new 0 0 496 496;" xml:space="preserve">
<style type="text/css">
	.st0{fill:#0A174C;}
</style>
<g>
	<g>
		<g>
			<path class="st0" d="M88,128h8v24c0,4.4,3.6,8,8,8h288c4.4,0,8-3.6,8-8v-24h8c4.4,0,8-3.6,8-8c0-30.9-25.1-56-56-56h-48V8
				c0-4.4-3.6-8-8-8H192c-4.4,0-8,3.6-8,8v56h-48c-30.9,0-56,25.1-56,56C80,124.4,83.6,128,88,128z M384,144H112v-16h272V144z
				 M200,16h96v48h-96V16z M136,80h224c19,0,35.4,13.4,39.2,32H96.8C100.6,93.4,117,80,136,80z"/>
			<rect x="128" y="176" class="st0" width="16" height="240"/>
			<rect x="160" y="256" class="st0" width="16" height="240"/>
			<rect x="192" y="176" class="st0" width="16" height="240"/>
			<rect x="288" y="176" class="st0" width="16" height="240"/>
			<rect x="320" y="256" class="st0" width="16" height="240"/>
			<rect x="352" y="176" class="st0" width="16" height="240"/>
			<rect x="224" y="192" class="st0" width="16" height="208"/>
			<rect x="256" y="192" class="st0" width="16" height="208"/>
			<path class="st0" d="M56,384c-30.9,0-56,25.1-56,56s25.1,56,56,56s56-25.1,56-56C112,409.1,86.9,384,56,384z M56,480
				c-22.1,0-40-17.9-40-40s17.9-40,40-40s40,17.9,40,40C96,462.1,78.1,480,56,480z"/>
			<path class="st0" d="M88,296c-13.3,0-24,10.7-24,24s10.7,24,24,24s24-10.7,24-24S101.3,296,88,296z M88,328c-4.4,0-8-3.6-8-8
				s3.6-8,8-8s8,3.6,8,8S92.4,328,88,328z"/>
			<path class="st0" d="M32,264c17.7,0,32-14.3,32-32s-14.3-32-32-32S0,214.3,0,232S14.3,264,32,264z M32,216c8.8,0,16,7.2,16,16
				s-7.2,16-16,16s-16-7.2-16-16S23.2,216,32,216z"/>
			<path class="st0" d="M440,384c-30.9,0-56,25.1-56,56s25.1,56,56,56s56-25.1,56-56C496,409.1,470.9,384,440,384z M440,480
				c-22.1,0-40-17.9-40-40s17.9-40,40-40s40,17.9,40,40C480,462.1,462.1,480,440,480z"/>
			<path class="st0" d="M384,320c0,13.3,10.7,24,24,24s24-10.7,24-24s-10.7-24-24-24S384,306.7,384,320z M416,320c0,4.4-3.6,8-8,8
				s-8-3.6-8-8s3.6-8,8-8S416,315.6,416,320z"/>
			<path class="st0" d="M464,264c17.7,0,32-14.3,32-32s-14.3-32-32-32s-32,14.3-32,32S446.3,264,464,264z M464,216
				c8.8,0,16,7.2,16,16s-7.2,16-16,16s-16-7.2-16-16S455.2,216,464,216z"/>
		</g>
	</g>
</g>
</svg>
