<?xml version="1.0" encoding="utf-8"?>
<!-- Generator: Adobe Illustrator 22.1.0, SVG Export Plug-In . SVG Version: 6.00 Build 0)  -->
<svg version="1.1" id="Layer_1" xmlns="http://www.w3.org/2000/svg" xmlns:xlink="http://www.w3.org/1999/xlink" x="0px" y="0px"
	 viewBox="0 0 496 496" style="enable-background:new 0 0 496 496;" xml:space="preserve">
<style type="text/css">
	.st0{fill:#0A174C;}
</style>
<path class="st0" d="M470.2,106.9L443.3,80H432V62.5c9.3-3.3,16-12.1,16-22.5V24c0-13.2-10.8-24-24-24h-96c-13.2,0-24,10.8-24,24v16
	c0,10.4,6.7,19.2,16,22.5V80h-11.3l-26.9,26.9c-16.6,16.6-25.8,38.7-25.8,62.2V440c0,30.9,25.1,56,56,56h128c30.9,0,56-25.1,56-56
	V169.1C496,145.6,486.8,123.5,470.2,106.9z M480,176v16H272v-16h160v-16H272.6c0.7-5.5,2-10.9,3.9-16h198.9c1.9,5.1,3.2,10.5,3.9,16
	H448v16H480z M480,400v16H272v-16h32v-16h-32V208h208v176H320v16H480z M320,24c0-4.4,3.6-8,8-8h96c4.4,0,8,3.6,8,8v16
	c0,4.4-3.6,8-8,8h-96c-4.4,0-8-3.6-8-8V24z M336,64h80v16h-80V64z M315.3,96h121.4l22.2,22.2c3,3,5.7,6.3,8.1,9.8H285
	c2.4-3.4,5.1-6.7,8.1-9.8L315.3,96z M440,480H312c-22.1,0-40-17.9-40-40v-8h208v8C480,462.1,462.1,480,440,480z"/>
<path class="st0" d="M464,296c0-31.4-38.7-56-88-56s-88,24.6-88,56s38.7,56,88,56S464,327.4,464,296z M304,296c0-21.7,33-40,72-40
	s72,18.3,72,40s-33,40-72,40S304,317.7,304,296z"/>
<path class="st0" d="M336,272h80v16h-80V272z"/>
<path class="st0" d="M336,304h80v16h-80V304z"/>
<path class="st0" d="M223.6,113.3c-3-25.1-22.6-45.1-47.6-48.7V24c0-13.2-10.8-24-24-24H88C74.8,0,64,10.8,64,24v40.6
	c-24.9,3.6-44.6,23.6-47.6,48.7C6.9,116.5,0,125.4,0,136v160c0,9.4,5.4,17.4,13.3,21.4L0.5,419.3c-0.4,2.8-0.5,5.6-0.5,8.5
	C0,465.4,30.6,496,68.2,496h103.5c37.6,0,68.2-30.6,68.2-68.2c0-2.8-0.2-5.7-0.5-8.5l-12.7-101.9c7.8-4,13.3-12,13.3-21.4V136
	C240,125.4,233.1,116.5,223.6,113.3z M80,64V48h80v16H80z M88,16h64c4.4,0,8,3.6,8,8v8H80v-8C80,19.6,83.6,16,88,16z M72,80h96
	c19.3,0,35.5,13.8,39.2,32H32.8C36.5,93.8,52.7,80,72,80z M16,136c0-4.4,3.6-8,8-8h192c4.4,0,8,3.6,8,8v160c0,4.4-3.6,8-8,8H24
	c-4.4,0-8-3.6-8-8V136z M171.8,480H68.2C39.4,480,16,456.6,16,427.8c0-2.2,0.1-4.3,0.4-6.5L29.1,320h181.9l12.7,101.3
	c0.3,2.2,0.4,4.3,0.4,6.5C224,456.6,200.6,480,171.8,480z"/>
<path class="st0" d="M120,288c26.5,0,48-21.5,48-48.3c0-6.1-1.2-12.1-3.4-17.8l-26.2-65.4c-3-7.6-10.2-12.5-18.4-12.5
	s-15.4,4.9-18.4,12.5l-26.2,65.4c-2.3,5.7-3.4,11.7-3.4,18.1C72,266.5,93.5,288,120,288z M90.3,227.8l26.2-65.4
	c0.6-1.4,2-2.4,3.5-2.4s3,1,3.5,2.4l26.2,65.4c1.5,3.8,2.3,7.8,2.3,12.2c0,17.6-14.4,32-32,32s-32-14.4-32-32.3
	C88,235.6,88.8,231.6,90.3,227.8z"/>
<path class="st0" d="M80,336c-13.2,0-24,10.8-24,24v80c0,13.2,10.8,24,24,24s24-10.8,24-24v-80C104,346.8,93.2,336,80,336z M88,440
	c0,4.4-3.6,8-8,8s-8-3.6-8-8v-80c0-4.4,3.6-8,8-8s8,3.6,8,8V440z"/>
<path class="st0" d="M160,336c-13.2,0-24,10.8-24,24v80c0,13.2,10.8,24,24,24s24-10.8,24-24v-80C184,346.8,173.2,336,160,336z
	 M168,440c0,4.4-3.6,8-8,8s-8-3.6-8-8v-80c0-4.4,3.6-8,8-8s8,3.6,8,8V440z"/>
</svg>
