<?xml version="1.0" encoding="utf-8"?>
<!-- Generator: Adobe Illustrator 22.0.0, SVG Export Plug-In . SVG Version: 6.00 Build 0)  -->
<svg version="1.1" id="Layer_1" xmlns="http://www.w3.org/2000/svg" xmlns:xlink="http://www.w3.org/1999/xlink" x="0px" y="0px"
	 viewBox="0 0 24 24" style="enable-background:new 0 0 24 24;" xml:space="preserve">
<title>bin-2</title>
<g>
	<path d="M9.7,17.2c-0.4,0-0.8-0.3-0.8-0.8v-6c0-0.4,0.3-0.8,0.8-0.8s0.8,0.3,0.8,0.8v6C10.5,16.9,10.2,17.2,9.7,17.2z"/>
	<path d="M14.2,17.2c-0.4,0-0.8-0.3-0.8-0.8v-6c0-0.4,0.3-0.8,0.8-0.8s0.8,0.3,0.8,0.8v6C15,16.9,14.7,17.2,14.2,17.2z"/>
	<path d="M6.7,21.8c-1.2,0-2.2-1-2.2-2.2V6.8H2.2C1.8,6.8,1.5,6.4,1.5,6s0.3-0.8,0.8-0.8h5.2V4.5c0-1.2,1-2.2,2.3-2.2h4.5
		c1.2,0,2.2,1,2.2,2.2v0.8h5.2c0.4,0,0.8,0.3,0.8,0.8s-0.3,0.8-0.8,0.8h-2.2v12.8c0,1.2-1,2.2-2.2,2.2H6.7z M6,19.5
		c0,0.4,0.3,0.8,0.8,0.8h10.5c0.4,0,0.8-0.3,0.8-0.8V6.8H6C6,6.8,6,19.5,6,19.5z M15,5.2V4.5c0-0.4-0.3-0.8-0.8-0.8H9.7
		C9.3,3.8,9,4.1,9,4.5v0.8H15z"/>
</g>
</svg>
