<?xml version="1.0" encoding="utf-8"?>
<!-- Generator: Adobe Illustrator 22.0.0, SVG Export Plug-In . SVG Version: 6.00 Build 0)  -->
<svg version="1.1" id="Layer_1" xmlns="http://www.w3.org/2000/svg" xmlns:xlink="http://www.w3.org/1999/xlink" x="0px" y="0px"
	 viewBox="0 0 24 24" style="enable-background:new 0 0 24 24;" xml:space="preserve">
<style type="text/css">
	.st0{display:none;}
	.st1{display:inline;}
	.st2{display:inline;fill:#0A174C;}
</style>
<title>bin-2</title>
<g id="Group_8" transform="translate(0 0)" class="st0">
	<path id="Path_14" class="st1" d="M1.3,13.6h1.9v7.5c0,0.4,0.4,0.8,0.8,0.8h5.5c0.4,0,0.8-0.4,0.8-0.8v-5.5h3.3v5.5
		c0,0.4,0.4,0.8,0.8,0.8h5.2c0.4,0,0.8-0.4,0.8-0.8v-7.5h2.3c0.4,0,0.8-0.4,0.8-0.8c0-0.2-0.1-0.4-0.2-0.6L12.8,1.6
		c-0.3-0.3-0.8-0.3-1.1,0L0.7,12.2c-0.2,0.2-0.3,0.6-0.2,0.9C0.7,13.4,1,13.6,1.3,13.6z M12.2,3.3l8.6,8.7h-1.2
		c-0.4,0-0.8,0.4-0.8,0.8v7.5h-3.6v-5.5c0-0.4-0.4-0.8-0.8-0.8h-5c-0.4,0-0.8,0.4-0.8,0.8v5.5H4.8v-7.5C4.8,12.3,4.4,12,4,12H3.3
		L12.2,3.3z"/>
</g>
<g class="st0">
	<path class="st1" d="M5.5,12.7c0.6,0,1-0.5,1-1v0c0-0.6-0.5-1-1-1s-1,0.5-1,1C4.4,12.2,4.9,12.7,5.5,12.7z"/>
	<path class="st1" d="M6.8,9.2c0.6,0,1-0.5,1-1v0c0-0.6-0.5-1-1-1s-1,0.5-1,1C5.8,8.8,6.3,9.2,6.8,9.2z"/>
	<circle class="st1" cx="18.5" cy="11.7" r="1"/>
	<circle class="st1" cx="17.2" cy="8.2" r="1"/>
	<path class="st1" d="M9.6,6.5c0.6,0,1-0.5,1-1v0c0-0.6-0.5-1-1-1s-1,0.5-1,1C8.6,6,9,6.5,9.6,6.5z"/>
	<path class="st1" d="M21.2,18c1.1-1.7,1.8-3.8,1.8-6c0-6.1-4.9-11-11-11S1,5.9,1,12c0,2.2,0.7,4.2,1.8,6c0,0,0,0,0,0.1c0,0,0,0,0,0
		c2,3,5.3,4.9,9.2,4.9C15.8,23,19.2,21,21.2,18C21.2,18,21.2,18,21.2,18C21.2,18,21.2,18,21.2,18z M12,2.4c5.3,0,9.6,4.3,9.6,9.6
		c0,1.7-0.4,3.3-1.2,4.6c-1.6-1-3.3-1.8-5-2.2c-0.1-1.5-1.1-2.6-2.5-3L14.7,6c0.1-0.4-0.1-0.7-0.4-0.9c-0.4-0.1-0.7,0.1-0.9,0.4
		l-1.9,5.8c-1.6,0.2-2.8,1.5-2.9,3.1c-1.8,0.4-3.5,1.1-5,2.2c-0.8-1.4-1.2-3-1.2-4.6C2.4,6.7,6.7,2.4,12,2.4z M12,12.7
		c1,0,1.8,0.7,2,1.5c-1.3-0.2-2.7-0.2-4,0C10.2,13.3,11,12.7,12,12.7z M12,21.6c-3.1,0-5.9-1.5-7.7-3.8c4.6-3.1,10.7-3.1,15.3,0
		C17.9,20.1,15.1,21.6,12,21.6z"/>
</g>
<g id="Group_45" class="st0">
	<path id="Path_75" class="st2" d="M21,13.4L21,13.4L21,13.4L21,13.4L21,13.4L21,13.4L21,13.4L21,13.4L21,13.4L21,13.4z M21,13.4
		L21,13.4L21,13.4L21,13.4L21,13.4z M21,13.4L21,13.4L21,13.4L21,13.4z"/>
</g>
<g id="Group_45_1_" class="st0">
	<path id="Path_75_1_" class="st1" d="M3.5,22.2c0,0.5,0.4,0.9,0.9,0.9h15.2c0.5,0,0.9-0.4,0.9-0.9c0-5-2.2-9.2-5.4-10.9
		c2.6-1.7,3.3-5.2,1.6-7.8C15,0.9,11.5,0.2,8.9,1.9S5.6,7.1,7.3,9.7c0.4,0.6,1,1.2,1.6,1.6C5.7,13,3.5,17.2,3.5,22.2z M12,2.7
		c2.1,0,3.8,1.7,3.8,3.8s-1.7,3.8-3.8,3.8c-2.1,0-3.8-1.7-3.8-3.8C8.2,4.4,9.9,2.7,12,2.7z M12,12.2c3.5,0,6.4,4,6.7,9.1H5.3
		C5.6,16.2,8.5,12.2,12,12.2z"/>
</g>
<g id="Group_107" transform="translate(0)" class="st0">
	<path id="Path_184" class="st1" d="M10.6,12.9H9.2c-0.4,0-0.7,0.3-0.7,0.7v1.2c0,0.4,0.3,0.7,0.7,0.7h1.4c0.4,0,0.7-0.3,0.7-0.7
		v-1.2C11.3,13.2,11,12.9,10.6,12.9z"/>
	<path id="Path_185" class="st1" d="M15.5,14.9v-1.2c0-0.4-0.3-0.7-0.7-0.7h-1.2c-0.4,0-0.7,0.3-0.7,0.7v1.2c0,0.4,0.3,0.7,0.7,0.7
		h1.2C15.2,15.6,15.5,15.3,15.5,14.9z"/>
	<path id="Path_186" class="st1" d="M10.6,8.8H9.2c-0.4,0-0.7,0.3-0.7,0.7v1.2c0,0.4,0.3,0.7,0.7,0.7h1.4c0.4,0,0.7-0.3,0.7-0.7V9.5
		C11.3,9.1,11,8.8,10.6,8.8z"/>
	<path id="Path_187" class="st1" d="M13.6,11.5h1.2c0.4,0,0.7-0.3,0.7-0.7V9.5c0-0.4-0.3-0.7-0.7-0.7h-1.2c-0.4,0-0.7,0.3-0.7,0.7
		v1.2C12.8,11.2,13.1,11.5,13.6,11.5z"/>
	<path id="Path_188" class="st1" d="M10.6,4.8H9.2c-0.4,0-0.7,0.3-0.7,0.7v1.2c0,0.4,0.3,0.7,0.7,0.7h1.4c0.4,0,0.7-0.3,0.7-0.7V5.5
		C11.3,5.1,11,4.8,10.6,4.8z"/>
	<path id="Path_189" class="st1" d="M13.6,7.5h1.2c0.4,0,0.7-0.3,0.7-0.7V5.5c0-0.4-0.3-0.7-0.7-0.7h-1.2c-0.4,0-0.7,0.3-0.7,0.7
		v1.2C12.8,7.2,13.1,7.5,13.6,7.5z"/>
	<path id="Path_190" class="st1" d="M18.9,5.1V1.8c0-0.4-0.3-0.7-0.7-0.7H5.8c-0.4,0-0.7,0.3-0.7,0.7v3.2L1.7,8.6
		C1.6,8.7,1.5,8.9,1.5,9.1v13.1c0,0.4,0.3,0.7,0.7,0.7h6.8c0.3,0,0.5-0.1,0.6-0.4c0.2-0.1,0.4-0.4,0.4-0.6v-2.9h3.9v2.9
		c0,0.3,0.2,0.6,0.5,0.7c0.1,0.2,0.4,0.3,0.6,0.3h6.7c0.4,0,0.7-0.3,0.7-0.7V9.1c0-0.2-0.1-0.4-0.2-0.5L18.9,5.1z M3,9.4l2.1-2.2
		v14.3H3V9.4z M9.3,17.6c-0.4,0-0.7,0.3-0.7,0.7v3.1h-2V2.6h10.8v18.9h-2v-3.1c0-0.4-0.3-0.7-0.7-0.7H9.3z M21,21.4h-2.1V7.2L21,9.4
		L21,21.4z"/>
</g>
<g id="Group_19" transform="translate(0)" class="st0">
	<path id="Path_29" class="st1" d="M21,1.8c0-0.5-0.4-0.9-0.9-0.9H3.9C3.4,0.9,3,1.3,3,1.8v20.4c0,0.5,0.4,0.9,0.9,0.9h16.2
		c0.5,0,0.9-0.4,0.9-0.9V1.8z M4.8,2.7h14.5v18.6H4.8L4.8,2.7z"/>
	<path id="Path_30" class="st1" d="M16,6.1H8C7.5,6.1,7.1,6.5,7.1,7c0,0.5,0.4,0.9,0.9,0.9h8c0.5,0,0.9-0.4,0.9-0.9
		C16.9,6.5,16.5,6.1,16,6.1z"/>
	<path id="Path_31" class="st1" d="M16,10.8H8c-0.5,0-0.9,0.4-0.9,0.9c0,0.5,0.4,0.9,0.9,0.9h8c0.5,0,0.9-0.4,0.9-0.9
		C16.9,11.2,16.5,10.8,16,10.8z"/>
	<path id="Path_32" class="st1" d="M16,15.8H8c-0.5,0-0.9,0.4-0.9,0.9s0.4,0.9,0.9,0.9h8c0.5,0,0.9-0.4,0.9-0.9S16.5,15.8,16,15.8z"
		/>
</g>
<g id="Group_35" transform="translate(0 0)" class="st0">
	<path id="Path_59" class="st1" d="M2.6,14.4l1,0.5C4,15,4.2,15.5,4.1,16L3.7,17c-0.3,0.8-0.2,1.7,0.3,2.4c0.5,0.7,1.3,1.1,2.1,1.1
		c0.3,0,0.6-0.1,0.9-0.2l1.1-0.4c0.1,0,0.2-0.1,0.3-0.1c0.4,0,0.7,0.2,0.8,0.5l0.5,1c0.6,1.3,2.1,1.9,3.4,1.3c0.6-0.3,1-0.7,1.3-1.3
		l0.5-1c0.1-0.3,0.5-0.5,0.8-0.5c0.1,0,0.2,0,0.3,0.1l1.1,0.4c0.3,0.1,0.6,0.2,0.9,0.2l0,0c0.9,0,1.6-0.4,2.1-1.1
		c0.5-0.7,0.6-1.6,0.3-2.4L20,16c-0.2-0.4,0-0.9,0.5-1.1l1-0.5c1.3-0.6,1.9-2.1,1.3-3.4c-0.3-0.6-0.7-1-1.3-1.3l-1-0.5
		C20,9,19.8,8.5,20,8L20.4,7c0.3-0.8,0.2-1.7-0.3-2.4c-0.5-0.7-1.3-1.1-2.1-1.1c-0.3,0-0.6,0.1-0.9,0.2L16,4.1
		c-0.1,0-0.2,0.1-0.3,0.1c-0.4,0-0.7-0.2-0.8-0.5l-0.5-1C14,1.6,13,1,12,1c-1,0-2,0.6-2.4,1.5l-0.5,1C9,3.9,8.7,4.1,8.3,4.1
		c-0.1,0-0.2,0-0.3-0.1L7,3.7C6.7,3.6,6.4,3.5,6,3.5c-0.9,0-1.6,0.4-2.1,1.1C3.4,5.3,3.3,6.2,3.6,7L4,8.1C4.2,8.5,4,9,3.5,9.2
		l-1,0.5c-1.3,0.6-1.9,2.1-1.3,3.4C1.5,13.6,2,14.1,2.6,14.4z M3.3,11.2l1-0.5c1.2-0.6,1.8-2,1.4-3.3L5.2,6.4
		C5.1,6.1,5.2,5.8,5.3,5.6C5.6,5.2,6,5.1,6.4,5.3l1.1,0.4C7.7,5.8,8,5.8,8.4,5.8l0,0c1,0,1.9-0.6,2.4-1.5l0.5-1
		C11.3,3,11.6,2.8,12,2.8c0.4,0,0.7,0.2,0.8,0.5l0.5,1c0.4,0.9,1.3,1.5,2.4,1.5c0.3,0,0.6-0.1,0.9-0.2l1.1-0.4
		c0.4-0.1,0.8,0,1.1,0.3c0.2,0.2,0.2,0.5,0.1,0.8l-0.4,1.1c-0.5,1.3,0.1,2.7,1.4,3.3l1,0.5c0.3,0.1,0.5,0.5,0.5,0.8
		c0,0.4-0.2,0.7-0.5,0.8l-1,0.5c-1.2,0.6-1.8,2-1.4,3.3l0.4,1.1c0.1,0.3,0.1,0.6-0.1,0.8c-0.2,0.3-0.7,0.5-1.1,0.3l-1.1-0.4
		c-0.3-0.1-0.6-0.2-0.9-0.2c-1,0-1.9,0.6-2.4,1.5l-0.5,1c-0.1,0.3-0.5,0.5-0.8,0.5c-0.4,0-0.7-0.2-0.8-0.5l-0.5-1
		c-0.4-0.9-1.3-1.5-2.4-1.5c-0.3,0-0.6,0.1-0.9,0.2l-1.1,0.4c-0.4,0.1-0.8,0-1.1-0.3c-0.2-0.2-0.2-0.5-0.1-0.8l0.4-1.1
		c0.5-1.3-0.1-2.7-1.4-3.3l-1-0.5c-0.3-0.1-0.5-0.5-0.5-0.8C2.7,11.6,2.9,11.3,3.3,11.2L3.3,11.2z"/>
	<path id="Path_60" class="st1" d="M12,15.7c2,0,3.7-1.7,3.7-3.7c0-2-1.7-3.7-3.7-3.7c-2,0-3.7,1.7-3.7,3.7C8.3,14,9.9,15.7,12,15.7
		z M12,10c1.1,0,2,0.9,2,2s-0.9,2-2,2s-2-0.9-2-2v0C10,10.9,10.9,10,12,10L12,10z"/>
</g>
<g id="Group_102" transform="translate(0)" class="st0">
	<path id="Path_178" class="st1" d="M2.1,19.5C2.2,19.8,2.5,20,2.8,20h5.7c0.3,1.9,2.1,3.2,4,3c1.5-0.2,2.7-1.4,3-3h5.7
		c0,0,0.1,0,0.1,0c0.3,0,0.5-0.2,0.6-0.5c0.1-0.3,0-0.6-0.2-0.8l0,0c-0.3-0.3-0.5-0.7-0.7-1.2c-0.5-1.4-0.8-2.9-0.7-4.5
		c0-4.4-1.7-6.7-3-7.9c-0.7-0.6-1.5-1.1-2.4-1.3c0-0.7-0.2-1.3-0.7-1.9C13.6,1.3,12.8,1,12,1c-0.8,0-1.6,0.3-2.1,0.9
		C9.5,2.4,9.2,3.1,9.2,3.8C8.3,4.1,7.5,4.5,6.8,5.1C4.2,7.2,3.7,10.5,3.7,13c0,1.5-0.2,3-0.7,4.4c-0.2,0.5-0.4,0.9-0.7,1.3l0,0
		C2,18.9,1.9,19.2,2.1,19.5z M12,21.4c-0.9,0-1.6-0.6-1.9-1.4h3.7C13.6,20.8,12.9,21.4,12,21.4L12,21.4z M5.3,13
		c0-7.1,4.6-7.7,4.8-7.8c0.2,0,0.4-0.1,0.5-0.3c0.1-0.2,0.2-0.4,0.2-0.6c0-0.2-0.1-1,0.3-1.4c0.1-0.1,0.3-0.3,0.9-0.3
		c0.3,0,0.7,0.1,0.9,0.3c0.3,0.4,0.3,1.1,0.3,1.3c0,0.2,0,0.4,0.1,0.6c0.1,0.2,0.3,0.3,0.5,0.3c0.9,0.2,1.7,0.6,2.4,1.2
		c1.6,1.4,2.5,3.6,2.5,6.7c0,2.7,0.5,4.4,1,5.5H4.2C4.7,17.3,5.3,15.6,5.3,13z"/>
</g>
<g id="Group_51" transform="translate(0)" class="st0">
	<path id="Path_91" class="st1" d="M21.8,3.3h-2.2c-0.4,0-0.7,0.3-0.7,0.7c0,0.4,0.3,0.7,0.7,0.7c0,0,0,0,0,0H21v16.4H3V4.8h2
		c0.4,0,0.7-0.3,0.7-0.7c0-0.4-0.3-0.7-0.7-0.7c0,0,0,0,0,0H2.2c-0.4,0-0.7,0.3-0.7,0.7v17.8c0,0.4,0.3,0.7,0.7,0.7h19.5
		c0.4,0,0.7-0.3,0.7-0.7V4.1C22.5,3.7,22.2,3.3,21.8,3.3z"/>
	<path id="Path_92" class="st1" d="M13,3.3h-2.1c-0.4,0-0.7,0.3-0.7,0.7c0,0.4,0.3,0.7,0.7,0.7H13c0.4,0,0.7-0.3,0.7-0.7
		C13.7,3.7,13.4,3.3,13,3.3C13,3.3,13,3.3,13,3.3L13,3.3z"/>
	<path id="Path_93" class="st1" d="M7.6,16.5H5.9c-0.4,0-0.7,0.3-0.7,0.7v1.2c0,0.4,0.3,0.7,0.7,0.7h1.7c0.4,0,0.7-0.3,0.7-0.7v-1.2
		C8.3,16.8,8,16.5,7.6,16.5z"/>
	<path id="Path_94" class="st1" d="M12.9,16.5H11c-0.4,0-0.7,0.3-0.7,0.7v1.2c0,0.4,0.3,0.7,0.7,0.7h1.8c0.4,0,0.7-0.3,0.7-0.7v-1.2
		C13.6,16.8,13.3,16.5,12.9,16.5z"/>
	<path id="Path_95" class="st1" d="M8.3,13.2c0-0.4-0.3-0.7-0.7-0.7H5.9c-0.4,0-0.7,0.3-0.7,0.7v1.2c0,0.4,0.3,0.7,0.7,0.7h1.7
		c0.4,0,0.7-0.3,0.7-0.7L8.3,13.2z"/>
	<path id="Path_96" class="st1" d="M13.6,13.2c0-0.4-0.3-0.7-0.7-0.7H11c-0.4,0-0.7,0.3-0.7,0.7v1.2c0,0.4,0.3,0.7,0.7,0.7h1.8
		c0.4,0,0.7-0.3,0.7-0.7L13.6,13.2z"/>
	<path id="Path_97" class="st1" d="M18,12.5h-1.7c-0.4,0-0.7,0.3-0.7,0.7v1.2c0,0.4,0.3,0.7,0.7,0.7H18c0.4,0,0.7-0.3,0.7-0.7v-1.2
		C18.7,12.8,18.4,12.5,18,12.5z"/>
	<path id="Path_98" class="st1" d="M5.2,9.1v1.2c0,0.4,0.3,0.7,0.7,0.7h1.7c0.4,0,0.7-0.3,0.7-0.7V9.1c0-0.4-0.3-0.7-0.7-0.7H5.9
		C5.5,8.3,5.2,8.7,5.2,9.1z"/>
	<path id="Path_99" class="st1" d="M13.6,9.1c0-0.4-0.3-0.7-0.7-0.7H11c-0.4,0-0.7,0.3-0.7,0.7v1.2c0,0.4,0.3,0.7,0.7,0.7h1.8
		c0.4,0,0.7-0.3,0.7-0.7L13.6,9.1z"/>
	<path id="Path_100" class="st1" d="M18.7,9.1c0-0.4-0.3-0.7-0.7-0.7h-1.7c-0.4,0-0.7,0.3-0.7,0.7v1.2c0,0.4,0.3,0.7,0.7,0.7H18
		c0.4,0,0.7-0.3,0.7-0.7V9.1z"/>
	<path id="Path_101" class="st1" d="M8.1,6.3c0.4,0,0.7-0.3,0.7-0.7V2.1c0-0.4-0.3-0.7-0.7-0.7H7.4C7,1.4,6.6,1.7,6.6,2.1v3.4
		c0,0.4,0.3,0.7,0.7,0.7L8.1,6.3z"/>
	<path id="Path_102" class="st1" d="M16.5,1.4h-0.7c-0.4,0-0.7,0.3-0.7,0.7v3.4c0,0.4,0.3,0.7,0.7,0.7h0.7c0.4,0,0.7-0.3,0.7-0.7
		V2.1C17.2,1.7,16.9,1.4,16.5,1.4z"/>
</g>
<g id="Group_80" transform="translate(0 0)" class="st0">
	<path id="Path_148" class="st1" d="M11.2,19c0.3,0.4,0.9,0.5,1.3,0.2c0.1-0.1,0.1-0.1,0.2-0.2l9.5-12.8c0.3-0.4,0.2-1-0.2-1.3
		c-0.4-0.3-1-0.2-1.3,0.2l0,0L12,16.8L3.2,5C2.9,4.6,2.3,4.5,1.9,4.8c0,0,0,0,0,0C1.5,5.2,1.4,5.7,1.7,6.2c0,0,0,0,0,0L11.2,19z"/>
</g>
<g id="Group_75" transform="translate(0)" class="st0">
	<path id="Path_145" class="st1" d="M18.8,2.4C18.5,2,18,1.9,17.6,2.2c0,0,0,0,0,0L5.4,11.3c-0.4,0.3-0.5,0.9-0.2,1.3
		c0.1,0.1,0.1,0.1,0.2,0.2l12.2,9.1c0.4,0.3,1,0.2,1.3-0.2c0.3-0.4,0.2-1-0.2-1.3L7.4,12l11.2-8.4C19,3.3,19.1,2.8,18.8,2.4
		C18.8,2.4,18.8,2.4,18.8,2.4z"/>
</g>
<g id="Group_24" transform="translate(0 0)" class="st0">
	<path id="Path_36" class="st1" d="M5.2,21.6C5.3,21.9,5.6,22,5.9,22c0.2,0,0.4-0.1,0.5-0.2l12.2-9.1c0.4-0.3,0.5-0.9,0.2-1.3
		c-0.1-0.1-0.1-0.1-0.2-0.2L6.4,2.2C6,1.9,5.5,2,5.2,2.4C4.9,2.8,5,3.3,5.4,3.6L16.6,12L5.4,20.4C5,20.7,4.9,21.2,5.2,21.6
		C5.2,21.6,5.2,21.6,5.2,21.6z"/>
</g>
<g id="Group_3" transform="translate(0 0)" class="st0">
	<path id="Path_3" class="st1" d="M12,4.7c-0.3,0-0.6,0.1-0.8,0.4L1.7,17.8c-0.3,0.4-0.2,1,0.2,1.3c0.2,0.1,0.4,0.2,0.6,0.2
		c0.3,0,0.6-0.1,0.8-0.4L12,7.2L20.8,19c0.3,0.4,0.9,0.5,1.3,0.2c0.4-0.3,0.5-0.9,0.2-1.3L12.8,5C12.6,4.8,12.3,4.7,12,4.7z"/>
</g>
<g id="Search" transform="translate(0)" class="st0">
	<path id="Path_99_1_" class="st1" d="M21.5,20l-3.9-4c1.1-1.5,1.7-3.3,1.7-5.1c0.1-4.6-3.6-8.5-8.3-8.6c0,0-0.1,0-0.1,0
		c-4.6,0-8.4,3.8-8.4,8.5c0,0,0,0.1,0,0.1c-0.1,4.6,3.6,8.5,8.3,8.6c0,0,0.1,0,0.1,0c1.8,0,3.6-0.6,5-1.7l3.9,4L21.5,20z M4.9,10.8
		c-0.1-3.3,2.5-6,5.8-6.1s6,2.5,6.1,5.8c0,0.1,0,0.2,0,0.3c0.1,3.3-2.5,6-5.8,6.1c-3.3,0.1-6-2.5-6.1-5.8C4.9,11,4.9,10.9,4.9,10.8z
		"/>
</g>
<g id="Group_37" class="st0">
	<path id="Path_64" class="st1" d="M23,3.5c0-0.4-0.4-0.8-0.8-0.8H1.8C1.4,2.7,1,3.1,1,3.5v16.9c0,0.4,0.4,0.8,0.8,0.8h20.4
		c0.4,0,0.8-0.4,0.8-0.8L23,3.5z M21.4,4.4v10.3l-4.7-3.3c-0.3-0.2-0.7-0.2-1,0.1l-2.5,2.4L8.1,8.9C7.8,8.6,7.3,8.6,7,8.9
		c0,0,0,0-0.1,0.1l-4.3,5.5V4.4L21.4,4.4z M2.6,19.6v-2.6l5-6.4l5,4.8c0.3,0.3,0.8,0.3,1.1,0l2.5-2.4l5.1,3.6v3L2.6,19.6z"/>
	<path id="Path_65" class="st1" d="M14,10.5c0.9,0,1.6-0.7,1.6-1.6c0-0.9-0.7-1.6-1.6-1.6c-0.9,0-1.6,0.7-1.6,1.6c0,0,0,0,0,0
		C12.4,9.8,13.1,10.5,14,10.5z"/>
</g>
<g id="Group_30" transform="translate(0 0)" class="st0">
	<path id="Path_49" class="st1" d="M17.8,7.8c0.1,0,0.1,0,0.2,0l0,0c1.7,0,3-1.3,3-3s-1.3-3-3-3c-1.6,0-2.9,1.2-3,2.8
		c0,0.4,0,0.8,0.1,1.1L8,10C6.7,9,4.8,9.1,3.7,10.4S2.8,13.5,4,14.6c0.5,0.5,1.2,0.7,2,0.7c0.7,0,1.3-0.2,1.9-0.7l7,3.8
		c-0.2,0.7-0.1,1.5,0.3,2.1c0.5,1,1.5,1.6,2.7,1.6l0,0c0.5,0,1-0.1,1.4-0.4c1.5-0.8,2-2.6,1.3-4.1c-0.5-1-1.5-1.6-2.7-1.6
		c-0.5,0-1,0.1-1.4,0.3c-0.3,0.2-0.6,0.4-0.9,0.7l-6.8-3.7C8.9,13.2,9,12.7,9,12.3c0-0.4-0.1-0.8-0.2-1.2l7.1-4.2
		C16.4,7.5,17.1,7.8,17.8,7.8z M16.4,4.7c0-0.9,0.8-1.5,1.6-1.5h0.1C19,3.2,19.6,4,19.6,4.9s-0.8,1.6-1.7,1.5
		C17,6.4,16.3,5.6,16.4,4.7C16.4,4.7,16.4,4.7,16.4,4.7L16.4,4.7z M4.4,12.3c0-0.9,0.7-1.6,1.6-1.6c0.9,0,1.6,0.7,1.6,1.6
		S6.9,13.9,6,13.9c0,0,0,0,0,0C5.1,13.9,4.4,13.2,4.4,12.3C4.4,12.3,4.4,12.3,4.4,12.3L4.4,12.3z M17,17.7c0.2-0.1,0.5-0.2,0.7-0.2
		c0.6,0,1.2,0.3,1.5,0.9c0.4,0.8,0.1,1.8-0.7,2.2c0,0,0,0,0,0c-0.2,0.1-0.5,0.2-0.7,0.2l0,0c-0.6,0-1.2-0.3-1.5-0.9
		c-0.2-0.4-0.2-0.8-0.1-1.2C16.4,18.3,16.6,17.9,17,17.7z"/>
</g>
<g id="noun_real_1893181" transform="translate(-5 -8.826)" class="st0">
	<g id="Group_314" class="st1">
		<path id="Path_440" d="M6,30.5c-0.3,0-0.5,0.2-0.5,0.5s0.2,0.5,0.5,0.5h21.2c0.3,0,0.5-0.2,0.5-0.5s-0.2-0.5-0.5-0.5h-1.8v-1.3
			c0,0,0-0.1,0-0.1c2.3-0.7,3.6-3.2,2.8-5.5c-0.4-1.3-1.5-2.4-2.8-2.8c0,0,0-0.1,0-0.1v-7.4h0.4c0.5,0,1-0.4,1-1v-1.3
			c0-0.5-0.4-1-1-1H7.4c-0.5,0-1,0.4-1,1v1.3c0,0.5,0.4,1,1,1h0.4v17.2H6z M7.4,11.1h18.4v1.1H7.4V11.1z M18.3,30.5H15v-3.2h3.3
			V30.5z M27.5,25c0,1.8-1.5,3.3-3.3,3.3c-1.8,0-3.3-1.5-3.3-3.3c0-1.8,1.5-3.3,3.3-3.3C26,21.6,27.5,23.1,27.5,25z M19.9,23.7
			C19.9,23.7,19.9,23.7,19.9,23.7l-0.6,0v-2.4h1.6v0.2c0,0.1,0,0.2,0.1,0.3C20.5,22.3,20.1,23,19.9,23.7L19.9,23.7z M24.1,20.6
			c-0.7,0-1.5,0.2-2.1,0.6v-0.3c0-0.3-0.2-0.5-0.5-0.5h-2.7c-0.3,0-0.5,0.2-0.5,0.5v3.4c0,0.3,0.2,0.5,0.5,0.5h1c0,0.1,0,0.2,0,0.2
			c0,2.4,2,4.4,4.4,4.4c0.1,0,0.2,0,0.3,0v1.2h-5.1v-3.7c0-0.3-0.2-0.5-0.5-0.5h-4.4c-0.3,0-0.5,0.2-0.5,0.5v3.7H8.8V13.3h15.6v7.3
			C24.3,20.6,24.2,20.6,24.1,20.6z"/>
		<path id="Path_441" d="M14.5,14.5h-2.7c-0.3,0-0.5,0.2-0.5,0.5v3.4c0,0.3,0.2,0.5,0.5,0.5h2.7c0.3,0,0.5-0.2,0.5-0.5V15
			C15,14.7,14.8,14.5,14.5,14.5z M14,17.9h-1.6v-2.4H14L14,17.9z"/>
		<path id="Path_442" d="M21.5,14.5h-2.7c-0.3,0-0.5,0.2-0.5,0.5v3.4c0,0.3,0.2,0.5,0.5,0.5h2.7c0.3,0,0.5-0.2,0.5-0.5V15
			C22,14.7,21.7,14.5,21.5,14.5z M20.9,17.9h-1.6v-2.4h1.6V17.9z"/>
		<path id="Path_443" d="M14.5,20.3h-2.7c-0.3,0-0.5,0.2-0.5,0.5v3.4c0,0.3,0.2,0.5,0.5,0.5h2.7c0.3,0,0.5-0.2,0.5-0.5v-3.4
			C15,20.5,14.8,20.3,14.5,20.3z M14,23.7h-1.6v-2.4H14L14,23.7z"/>
		<path id="Path_444" d="M22.6,24.5c-0.2-0.2-0.5-0.2-0.7,0c-0.2,0.2-0.2,0.5,0,0.7l1.5,1.5c0.1,0.1,0.2,0.2,0.4,0.2c0,0,0,0,0,0
			c0.2,0,0.3-0.1,0.4-0.2l2.1-2.9c0.2-0.2,0.1-0.6-0.1-0.7c-0.2-0.2-0.6-0.1-0.7,0.1l0,0l-1.7,2.4L22.6,24.5z"/>
	</g>
</g>
<g id="noun_Hotel_693059" transform="translate(-10 -5.5)" class="st0">
	<g id="Group_315" transform="translate(0 -952.362)" class="st1">
		<path id="Path_445" d="M30,970.4L30,970.4L30,970.4L30,970.4L30,970.4L30,970.4L30,970.4L30,970.4L30,970.4L30,970.4L30,970.4
			L30,970.4z M30,970.4L30,970.4L30,970.4L30,970.4L30,970.4L30,970.4z M30,970.4L30,970.4L30,970.4L30,970.4L30,970.4L30,970.4
			L30,970.4L30,970.4L30,970.4L30,970.4L30,970.4L30,970.4L30,970.4L30,970.4L30,970.4L30,970.4L30,970.4z M30,970.4L30,970.4
			L30,970.4L30,970.4L30,970.4z M30,970.4L30,970.4L30,970.4L30,970.4L30,970.4z M30,970.4L30,970.4L30,970.4L30,970.4L30,970.4z
			 M30,970.4L30,970.4L30,970.4L30,970.4L30,970.4z M30,970.4L30,970.4L30,970.4L30,970.4L30,970.4z M30,970.4L30,970.4L30,970.4
			L30,970.4L30,970.4z M30,970.4L30,970.4L30,970.4L30,970.4L30,970.4z M30,970.4L30,970.4L30,970.4L30,970.4L30,970.4z M30,970.4
			L30,970.4L30,970.4L30,970.4L30,970.4L30,970.4L30,970.4L30,970.4z M30,970.4L30,970.4L30,970.4L30,970.4L30,970.4z M30,970.4
			L30,970.4L30,970.4L30,970.4L30,970.4z M30,970.4L30,970.4L30,970.4L30,970.4L30,970.4z M30,970.4L30,970.4L30,970.4L30,970.4
			L30,970.4z M30,970.4L30,970.4L30,970.4L30,970.4L30,970.4z M30,970.4L30,970.4L30,970.4L30,970.4L30,970.4L30,970.4z M30,970.4
			L30,970.4L30,970.4L30,970.4L30,970.4z M30,970.4L30,970.4L30,970.4L30,970.4L30,970.4z M30,970.4L30,970.4L30,970.4L30,970.4
			L30,970.4z M30,970.4L30,970.4L30,970.4L30,970.4L30,970.4z M30,970.4L30,970.4L30,970.4L30,970.4L30,970.4z M30,970.4L30,970.4
			L30,970.4L30,970.4L30,970.4z M30,970.4L30,970.4L30,970.4L30,970.4L30,970.4L30,970.4z M30,970.4L30,970.4L30,970.4L30,970.4
			L30,970.4z M30,970.4L30,970.4L30,970.4L30,970.4L30,970.4z M30,970.4L30,970.4L30,970.4L30,970.4L30,970.4z M30,970.4L30,970.4
			L30,970.4L30,970.4L30,970.4z M30,970.4L30,970.4L30,970.4L30,970.4L30,970.4z M30,970.4L30,970.4L30,970.4L30,970.4L30,970.4z
			 M30,970.4L30,970.4L30,970.4L30,970.4L30,970.4z M30,970.4L30,970.4L30,970.4L30,970.4L30,970.4z M30,970.4L30,970.4L30,970.4
			L30,970.4L30,970.4z M30,970.4L30,970.4L30,970.4L30,970.4L30,970.4z M30,970.4L30,970.4L30,970.4L30,970.4L30,970.4z M30,970.4
			L30,970.4L30,970.4L30,970.4L30,970.4z M30,970.4L30,970.4L30,970.4L30,970.4L30,970.4z M30,970.4L30,970.4L30,970.4L30,970.4
			L30,970.4z"/>
	</g>
</g>
<g id="noun_Hotel_693059_1_" transform="translate(-10 -5.5)" class="st0">
	<g id="Group_315_1_" transform="translate(0 -952.362)" class="st1">
		<path id="Path_445_1_" d="M25.3,958.7c-2.5,0.1-4.4,2.1-4.4,4.6c0.1,2.5,2.1,4.4,4.6,4.4c0.5,0,1-0.1,1.5-0.3l3.2,6
			c0.1,0.2,0.4,0.3,0.7,0.2l0.9-0.5c0.2-0.1,0.3-0.5,0.2-0.7l-3.6-5.8c1.9-1.6,2.2-4.4,0.6-6.3C28,959.3,26.7,958.7,25.3,958.7
			L25.3,958.7z M25.3,959.7c1.9-0.1,3.5,1.5,3.6,3.4c0.1,1.9-1.5,3.5-3.4,3.6c-1.9,0.1-3.5-1.5-3.6-3.4c0-1.3,0.6-2.5,1.7-3.1
			C24.2,959.9,24.8,959.7,25.3,959.7z M12,960v21h19v-7.1l0,0c-0.3,0.2-0.7,0.1-1-0.2v6.3h-7v-12.7c-0.4-0.2-0.7-0.5-1-0.8V980h-9
			v-19h8.2c0.2-0.4,0.4-0.7,0.7-1L12,960L12,960z M14,962v2h1v-2H14z M16,962v2h1v-2H16z M18,962v2h1v-2H18z M20,962v2h0.7
			c-0.1-0.7-0.1-1.3,0.1-2H20z M14,965v2h1v-2H14z M16,965v2h1v-2H16z M18,965v2h1v-2H18z M20,965v2h1v-2H20z M29.3,966
			c-0.2,0.3-0.4,0.5-0.7,0.8l0.2,0.2H30v2l1,1.6V966L29.3,966z M14,968v2h1v-2H14z M16,968v2h1v-2H16z M18,968v2h1v-2H18z M20,968v2
			h1v-2H20z M24,968v2h1v-2H24z M26,968v2h1v-1.9l0-0.1L26,968z M14,971v2h1v-2H14z M16,971v2h1v-2H16z M18,971v2h1v-2H18z M20,971
			v2h1v-2H20z M24,971v2h1v-2H24z M26,971v2h1v-2H26z M28,971v2h1v-1.2l-0.4-0.8L28,971z M14,974v2h1v-2H14z M16,974v2h1v-2H16z
			 M18,974v2h1v-2H18z M20,974v2h1v-2H20z M24,974v2h1v-2H24z M26,974v2h1v-2H26z M28,974v2h1v-2H28z M14,977v2h1v-2H14z M16,977v2
			h1v-2H16z M18,977v2h1v-2H18z M20,977v2h1v-2H20z M24,977v2h1v-2H24z M26,977v2h1v-2H26z M28,977v2h1v-2H28z"/>
	</g>
</g>
<g id="Group_313" transform="translate(-748 2811)">
	<g id="edit-pencil" transform="translate(748 -2811)">
		<g id="Group_83" transform="translate(0 0)">
			<path id="Path_153" d="M14.2,3.7L3.8,14.1c-0.1,0.1-0.2,0.3-0.2,0.5l-0.1,5.3c0,0.2,0.1,0.3,0.2,0.5c0.1,0.1,0.3,0.2,0.5,0.2h0
				l5.1,0c0.2,0,0.3-0.1,0.5-0.2L20.3,9.8c0.3-0.3,0.3-0.7,0-1l-5.2-5.2C14.9,3.4,14.5,3.4,14.2,3.7z M9,19.1l-4.2,0.1l0.1-4.4l7-7
				l4.2,4.2L9,19.1z M17,11.2L12.8,7l1.8-1.8l4.2,4.2L17,11.2z"/>
		</g>
	</g>
</g>
</svg>
