<?xml version="1.0" encoding="utf-8"?>
<!-- Generator: Adobe Illustrator 22.0.0, SVG Export Plug-In . SVG Version: 6.00 Build 0)  -->
<svg version="1.1" id="Layer_1" xmlns="http://www.w3.org/2000/svg" xmlns:xlink="http://www.w3.org/1999/xlink" x="0px" y="0px"
	 viewBox="0 0 24 24" style="enable-background:new 0 0 24 24;" xml:space="preserve">
<title>bin-2</title>
<g id="Group_8" transform="translate(0 0)">
	<path id="Path_14" d="M1.3,13.6h1.9v7.5c0,0.4,0.4,0.8,0.8,0.8h5.5c0.4,0,0.8-0.4,0.8-0.8v-5.5h3.3v5.5c0,0.4,0.4,0.8,0.8,0.8h5.2
		c0.4,0,0.8-0.4,0.8-0.8v-7.5h2.3c0.4,0,0.8-0.4,0.8-0.8c0-0.2-0.1-0.4-0.2-0.6L12.8,1.6c-0.3-0.3-0.8-0.3-1.1,0L0.7,12.2
		c-0.2,0.2-0.3,0.6-0.2,0.9C0.7,13.4,1,13.6,1.3,13.6z M12.2,3.3l8.6,8.7h-1.2c-0.4,0-0.8,0.4-0.8,0.8v7.5h-3.6v-5.5
		c0-0.4-0.4-0.8-0.8-0.8h-5c-0.4,0-0.8,0.4-0.8,0.8v5.5H4.8v-7.5C4.8,12.3,4.4,12,4,12H3.3L12.2,3.3z"/>
</g>
</svg>
