<?xml version="1.0" encoding="utf-8"?>
<!-- Generator: Adobe Illustrator 22.0.0, SVG Export Plug-In . SVG Version: 6.00 Build 0)  -->
<svg version="1.1" id="Layer_1" xmlns="http://www.w3.org/2000/svg" xmlns:xlink="http://www.w3.org/1999/xlink" x="0px" y="0px"
	 viewBox="0 0 24 24" style="enable-background:new 0 0 24 24;" xml:space="preserve">
<title>bin-2</title>
<g id="Group_63" transform="translate(0)">
	<path id="Path_117" d="M12,6.5c-1.8,0-3.3,1.5-3.3,3.3c0,1.8,1.5,3.3,3.3,3.3s3.3-1.5,3.3-3.3C15.3,7.9,13.8,6.5,12,6.5L12,6.5z
		 M12,11.6c-1,0-1.8-0.8-1.8-1.8S11,7.9,12,7.9c1,0,1.8,0.8,1.8,1.8C13.8,10.8,13,11.6,12,11.6z"/>
	<path id="Path_118" d="M17.5,3.9c-1.5-1.6-3.5-2.5-5.7-2.5C7,1.5,4.5,5.3,4.5,9.2c0,5,6.9,12.8,7.2,13.1c0.1,0.2,0.3,0.3,0.5,0.3h0
		c0.2,0,0.4-0.1,0.5-0.2c1.2-1.3,2.3-2.8,3.3-4.3c2.3-3.4,3.4-6.3,3.4-8.8C19.5,7.2,18.8,5.4,17.5,3.9z M12.2,20.6
		C10.6,18.7,6,12.9,6,9.2c0-3,1.8-6.2,5.8-6.2c4,0,6.2,3.2,6.2,6.2C18,13.5,13.8,18.9,12.2,20.6z"/>
</g>
</svg>
