<?xml version="1.0" encoding="utf-8"?>
<!-- Generator: Adobe Illustrator 22.0.0, SVG Export Plug-In . SVG Version: 6.00 Build 0)  -->
<svg version="1.1" id="Layer_1" xmlns="http://www.w3.org/2000/svg" xmlns:xlink="http://www.w3.org/1999/xlink" x="0px" y="0px"
	 viewBox="0 0 24 24" style="enable-background:new 0 0 24 24;" xml:space="preserve">
<style type="text/css">
	.st0{display:none;}
	.st1{display:inline;}
	.st2{display:inline;fill:#0A174C;}
</style>
<title>bin-2</title>
<g id="Group_8" transform="translate(0 0)" class="st0">
	<path id="Path_14" class="st1" d="M1.3,13.6h1.9v7.5c0,0.4,0.4,0.8,0.8,0.8h5.5c0.4,0,0.8-0.4,0.8-0.8v-5.5h3.3v5.5
		c0,0.4,0.4,0.8,0.8,0.8h5.2c0.4,0,0.8-0.4,0.8-0.8v-7.5h2.3c0.4,0,0.8-0.4,0.8-0.8c0-0.2-0.1-0.4-0.2-0.6L12.8,1.6
		c-0.3-0.3-0.8-0.3-1.1,0L0.7,12.2c-0.2,0.2-0.3,0.6-0.2,0.9C0.7,13.4,1,13.6,1.3,13.6z M12.2,3.3l8.6,8.7h-1.2
		c-0.4,0-0.8,0.4-0.8,0.8v7.5h-3.6v-5.5c0-0.4-0.4-0.8-0.8-0.8h-5c-0.4,0-0.8,0.4-0.8,0.8v5.5H4.8v-7.5C4.8,12.3,4.4,12,4,12H3.3
		L12.2,3.3z"/>
</g>
<g class="st0">
	<path class="st1" d="M5.5,12.7c0.6,0,1-0.5,1-1v0c0-0.6-0.5-1-1-1s-1,0.5-1,1C4.4,12.2,4.9,12.7,5.5,12.7z"/>
	<path class="st1" d="M6.8,9.2c0.6,0,1-0.5,1-1v0c0-0.6-0.5-1-1-1s-1,0.5-1,1C5.8,8.8,6.3,9.2,6.8,9.2z"/>
	<circle class="st1" cx="18.5" cy="11.7" r="1"/>
	<circle class="st1" cx="17.2" cy="8.2" r="1"/>
	<path class="st1" d="M9.6,6.5c0.6,0,1-0.5,1-1v0c0-0.6-0.5-1-1-1s-1,0.5-1,1C8.6,6,9,6.5,9.6,6.5z"/>
	<path class="st1" d="M21.2,18c1.1-1.7,1.8-3.8,1.8-6c0-6.1-4.9-11-11-11S1,5.9,1,12c0,2.2,0.7,4.2,1.8,6c0,0,0,0,0,0.1c0,0,0,0,0,0
		c2,3,5.3,4.9,9.2,4.9C15.8,23,19.2,21,21.2,18C21.2,18,21.2,18,21.2,18C21.2,18,21.2,18,21.2,18z M12,2.4c5.3,0,9.6,4.3,9.6,9.6
		c0,1.7-0.4,3.3-1.2,4.6c-1.6-1-3.3-1.8-5-2.2c-0.1-1.5-1.1-2.6-2.5-3L14.7,6c0.1-0.4-0.1-0.7-0.4-0.9c-0.4-0.1-0.7,0.1-0.9,0.4
		l-1.9,5.8c-1.6,0.2-2.8,1.5-2.9,3.1c-1.8,0.4-3.5,1.1-5,2.2c-0.8-1.4-1.2-3-1.2-4.6C2.4,6.7,6.7,2.4,12,2.4z M12,12.7
		c1,0,1.8,0.7,2,1.5c-1.3-0.2-2.7-0.2-4,0C10.2,13.3,11,12.7,12,12.7z M12,21.6c-3.1,0-5.9-1.5-7.7-3.8c4.6-3.1,10.7-3.1,15.3,0
		C17.9,20.1,15.1,21.6,12,21.6z"/>
</g>
<g id="Group_45" class="st0">
	<path id="Path_75" class="st2" d="M21,13.4L21,13.4L21,13.4L21,13.4L21,13.4L21,13.4L21,13.4L21,13.4L21,13.4L21,13.4z M21,13.4
		L21,13.4L21,13.4L21,13.4L21,13.4z M21,13.4L21,13.4L21,13.4L21,13.4z"/>
</g>
<g id="Group_45_1_" class="st0">
	<path id="Path_75_1_" class="st1" d="M3.5,22.2c0,0.5,0.4,0.9,0.9,0.9h15.2c0.5,0,0.9-0.4,0.9-0.9c0-5-2.2-9.2-5.4-10.9
		c2.6-1.7,3.3-5.2,1.6-7.8C15,0.9,11.5,0.2,8.9,1.9S5.6,7.1,7.3,9.7c0.4,0.6,1,1.2,1.6,1.6C5.7,13,3.5,17.2,3.5,22.2z M12,2.7
		c2.1,0,3.8,1.7,3.8,3.8s-1.7,3.8-3.8,3.8c-2.1,0-3.8-1.7-3.8-3.8C8.2,4.4,9.9,2.7,12,2.7z M12,12.2c3.5,0,6.4,4,6.7,9.1H5.3
		C5.6,16.2,8.5,12.2,12,12.2z"/>
</g>
<g id="Group_107" transform="translate(0)" class="st0">
	<path id="Path_184" class="st1" d="M10.6,12.9H9.2c-0.4,0-0.7,0.3-0.7,0.7v1.2c0,0.4,0.3,0.7,0.7,0.7h1.4c0.4,0,0.7-0.3,0.7-0.7
		v-1.2C11.3,13.2,11,12.9,10.6,12.9z"/>
	<path id="Path_185" class="st1" d="M15.5,14.9v-1.2c0-0.4-0.3-0.7-0.7-0.7h-1.2c-0.4,0-0.7,0.3-0.7,0.7v1.2c0,0.4,0.3,0.7,0.7,0.7
		h1.2C15.2,15.6,15.5,15.3,15.5,14.9z"/>
	<path id="Path_186" class="st1" d="M10.6,8.8H9.2c-0.4,0-0.7,0.3-0.7,0.7v1.2c0,0.4,0.3,0.7,0.7,0.7h1.4c0.4,0,0.7-0.3,0.7-0.7V9.5
		C11.3,9.1,11,8.8,10.6,8.8z"/>
	<path id="Path_187" class="st1" d="M13.6,11.5h1.2c0.4,0,0.7-0.3,0.7-0.7V9.5c0-0.4-0.3-0.7-0.7-0.7h-1.2c-0.4,0-0.7,0.3-0.7,0.7
		v1.2C12.8,11.2,13.1,11.5,13.6,11.5z"/>
	<path id="Path_188" class="st1" d="M10.6,4.8H9.2c-0.4,0-0.7,0.3-0.7,0.7v1.2c0,0.4,0.3,0.7,0.7,0.7h1.4c0.4,0,0.7-0.3,0.7-0.7V5.5
		C11.3,5.1,11,4.8,10.6,4.8z"/>
	<path id="Path_189" class="st1" d="M13.6,7.5h1.2c0.4,0,0.7-0.3,0.7-0.7V5.5c0-0.4-0.3-0.7-0.7-0.7h-1.2c-0.4,0-0.7,0.3-0.7,0.7
		v1.2C12.8,7.2,13.1,7.5,13.6,7.5z"/>
	<path id="Path_190" class="st1" d="M18.9,5.1V1.8c0-0.4-0.3-0.7-0.7-0.7H5.8c-0.4,0-0.7,0.3-0.7,0.7v3.2L1.7,8.6
		C1.6,8.7,1.5,8.9,1.5,9.1v13.1c0,0.4,0.3,0.7,0.7,0.7h6.8c0.3,0,0.5-0.1,0.6-0.4c0.2-0.1,0.4-0.4,0.4-0.6v-2.9h3.9v2.9
		c0,0.3,0.2,0.6,0.5,0.7c0.1,0.2,0.4,0.3,0.6,0.3h6.7c0.4,0,0.7-0.3,0.7-0.7V9.1c0-0.2-0.1-0.4-0.2-0.5L18.9,5.1z M3,9.4l2.1-2.2
		v14.3H3V9.4z M9.3,17.6c-0.4,0-0.7,0.3-0.7,0.7v3.1h-2V2.6h10.8v18.9h-2v-3.1c0-0.4-0.3-0.7-0.7-0.7H9.3z M21,21.4h-2.1V7.2L21,9.4
		L21,21.4z"/>
</g>
<g id="Group_19" transform="translate(0)" class="st0">
	<path id="Path_29" class="st1" d="M21,1.8c0-0.5-0.4-0.9-0.9-0.9H3.9C3.4,0.9,3,1.3,3,1.8v20.4c0,0.5,0.4,0.9,0.9,0.9h16.2
		c0.5,0,0.9-0.4,0.9-0.9V1.8z M4.8,2.7h14.5v18.6H4.8L4.8,2.7z"/>
	<path id="Path_30" class="st1" d="M16,6.1H8C7.5,6.1,7.1,6.5,7.1,7c0,0.5,0.4,0.9,0.9,0.9h8c0.5,0,0.9-0.4,0.9-0.9
		C16.9,6.5,16.5,6.1,16,6.1z"/>
	<path id="Path_31" class="st1" d="M16,10.8H8c-0.5,0-0.9,0.4-0.9,0.9c0,0.5,0.4,0.9,0.9,0.9h8c0.5,0,0.9-0.4,0.9-0.9
		C16.9,11.2,16.5,10.8,16,10.8z"/>
	<path id="Path_32" class="st1" d="M16,15.8H8c-0.5,0-0.9,0.4-0.9,0.9s0.4,0.9,0.9,0.9h8c0.5,0,0.9-0.4,0.9-0.9S16.5,15.8,16,15.8z"
		/>
</g>
<g id="Group_35" transform="translate(0 0)">
	<path id="Path_59" d="M2.6,14.4l1,0.5C4,15,4.2,15.5,4.1,16L3.7,17c-0.3,0.8-0.2,1.7,0.3,2.4c0.5,0.7,1.3,1.1,2.1,1.1
		c0.3,0,0.6-0.1,0.9-0.2l1.1-0.4c0.1,0,0.2-0.1,0.3-0.1c0.4,0,0.7,0.2,0.8,0.5l0.5,1c0.6,1.3,2.1,1.9,3.4,1.3c0.6-0.3,1-0.7,1.3-1.3
		l0.5-1c0.1-0.3,0.5-0.5,0.8-0.5c0.1,0,0.2,0,0.3,0.1l1.1,0.4c0.3,0.1,0.6,0.2,0.9,0.2l0,0c0.9,0,1.6-0.4,2.1-1.1
		c0.5-0.7,0.6-1.6,0.3-2.4L20,16c-0.2-0.4,0-0.9,0.5-1.1l1-0.5c1.3-0.6,1.9-2.1,1.3-3.4c-0.3-0.6-0.7-1-1.3-1.3l-1-0.5
		C20,9,19.8,8.5,20,8L20.4,7c0.3-0.8,0.2-1.7-0.3-2.4c-0.5-0.7-1.3-1.1-2.1-1.1c-0.3,0-0.6,0.1-0.9,0.2L16,4.1
		c-0.1,0-0.2,0.1-0.3,0.1c-0.4,0-0.7-0.2-0.8-0.5l-0.5-1C14,1.6,13,1,12,1c-1,0-2,0.6-2.4,1.5l-0.5,1C9,3.9,8.7,4.1,8.3,4.1
		c-0.1,0-0.2,0-0.3-0.1L7,3.7C6.7,3.6,6.4,3.5,6,3.5c-0.9,0-1.6,0.4-2.1,1.1C3.4,5.3,3.3,6.2,3.6,7L4,8.1C4.2,8.5,4,9,3.5,9.2
		l-1,0.5c-1.3,0.6-1.9,2.1-1.3,3.4C1.5,13.6,2,14.1,2.6,14.4z M3.3,11.2l1-0.5c1.2-0.6,1.8-2,1.4-3.3L5.2,6.4
		C5.1,6.1,5.2,5.8,5.3,5.6C5.6,5.2,6,5.1,6.4,5.3l1.1,0.4C7.7,5.8,8,5.8,8.4,5.8l0,0c1,0,1.9-0.6,2.4-1.5l0.5-1
		C11.3,3,11.6,2.8,12,2.8c0.4,0,0.7,0.2,0.8,0.5l0.5,1c0.4,0.9,1.3,1.5,2.4,1.5c0.3,0,0.6-0.1,0.9-0.2l1.1-0.4
		c0.4-0.1,0.8,0,1.1,0.3c0.2,0.2,0.2,0.5,0.1,0.8l-0.4,1.1c-0.5,1.3,0.1,2.7,1.4,3.3l1,0.5c0.3,0.1,0.5,0.5,0.5,0.8
		c0,0.4-0.2,0.7-0.5,0.8l-1,0.5c-1.2,0.6-1.8,2-1.4,3.3l0.4,1.1c0.1,0.3,0.1,0.6-0.1,0.8c-0.2,0.3-0.7,0.5-1.1,0.3l-1.1-0.4
		c-0.3-0.1-0.6-0.2-0.9-0.2c-1,0-1.9,0.6-2.4,1.5l-0.5,1c-0.1,0.3-0.5,0.5-0.8,0.5c-0.4,0-0.7-0.2-0.8-0.5l-0.5-1
		c-0.4-0.9-1.3-1.5-2.4-1.5c-0.3,0-0.6,0.1-0.9,0.2l-1.1,0.4c-0.4,0.1-0.8,0-1.1-0.3c-0.2-0.2-0.2-0.5-0.1-0.8l0.4-1.1
		c0.5-1.3-0.1-2.7-1.4-3.3l-1-0.5c-0.3-0.1-0.5-0.5-0.5-0.8C2.7,11.6,2.9,11.3,3.3,11.2L3.3,11.2z"/>
	<path id="Path_60" d="M12,15.7c2,0,3.7-1.7,3.7-3.7c0-2-1.7-3.7-3.7-3.7c-2,0-3.7,1.7-3.7,3.7C8.3,14,9.9,15.7,12,15.7z M12,10
		c1.1,0,2,0.9,2,2s-0.9,2-2,2s-2-0.9-2-2v0C10,10.9,10.9,10,12,10L12,10z"/>
</g>
</svg>
