<?xml version="1.0" encoding="utf-8"?>
<!-- Generator: Adobe Illustrator 22.0.0, SVG Export Plug-In . SVG Version: 6.00 Build 0)  -->
<svg version="1.1" id="Layer_1" xmlns="http://www.w3.org/2000/svg" xmlns:xlink="http://www.w3.org/1999/xlink" x="0px" y="0px"
	 viewBox="0 0 24 24" style="enable-background:new 0 0 24 24;" xml:space="preserve">
<style type="text/css">
	.st0{display:none;}
	.st1{display:inline;}
	.st2{fill:#0A174C;}
</style>
<title>bin-2</title>
<g id="Group_8" transform="translate(0 0)" class="st0">
	<path id="Path_14" class="st1" d="M1.3,13.6h1.9v7.5c0,0.4,0.4,0.8,0.8,0.8h5.5c0.4,0,0.8-0.4,0.8-0.8v-5.5h3.3v5.5
		c0,0.4,0.4,0.8,0.8,0.8h5.2c0.4,0,0.8-0.4,0.8-0.8v-7.5h2.3c0.4,0,0.8-0.4,0.8-0.8c0-0.2-0.1-0.4-0.2-0.6L12.8,1.6
		c-0.3-0.3-0.8-0.3-1.1,0L0.7,12.2c-0.2,0.2-0.3,0.6-0.2,0.9C0.7,13.4,1,13.6,1.3,13.6z M12.2,3.3l8.6,8.7h-1.2
		c-0.4,0-0.8,0.4-0.8,0.8v7.5h-3.6v-5.5c0-0.4-0.4-0.8-0.8-0.8h-5c-0.4,0-0.8,0.4-0.8,0.8v5.5H4.8v-7.5C4.8,12.3,4.4,12,4,12H3.3
		L12.2,3.3z"/>
</g>
<g class="st0">
	<path class="st1" d="M5.5,12.7c0.6,0,1-0.5,1-1v0c0-0.6-0.5-1-1-1s-1,0.5-1,1C4.4,12.2,4.9,12.7,5.5,12.7z"/>
	<path class="st1" d="M6.8,9.2c0.6,0,1-0.5,1-1v0c0-0.6-0.5-1-1-1s-1,0.5-1,1C5.8,8.8,6.3,9.2,6.8,9.2z"/>
	<circle class="st1" cx="18.5" cy="11.7" r="1"/>
	<circle class="st1" cx="17.2" cy="8.2" r="1"/>
	<path class="st1" d="M9.6,6.5c0.6,0,1-0.5,1-1v0c0-0.6-0.5-1-1-1s-1,0.5-1,1C8.6,6,9,6.5,9.6,6.5z"/>
	<path class="st1" d="M21.2,18c1.1-1.7,1.8-3.8,1.8-6c0-6.1-4.9-11-11-11S1,5.9,1,12c0,2.2,0.7,4.2,1.8,6c0,0,0,0,0,0.1c0,0,0,0,0,0
		c2,3,5.3,4.9,9.2,4.9C15.8,23,19.2,21,21.2,18C21.2,18,21.2,18,21.2,18C21.2,18,21.2,18,21.2,18z M12,2.4c5.3,0,9.6,4.3,9.6,9.6
		c0,1.7-0.4,3.3-1.2,4.6c-1.6-1-3.3-1.8-5-2.2c-0.1-1.5-1.1-2.6-2.5-3L14.7,6c0.1-0.4-0.1-0.7-0.4-0.9c-0.4-0.1-0.7,0.1-0.9,0.4
		l-1.9,5.8c-1.6,0.2-2.8,1.5-2.9,3.1c-1.8,0.4-3.5,1.1-5,2.2c-0.8-1.4-1.2-3-1.2-4.6C2.4,6.7,6.7,2.4,12,2.4z M12,12.7
		c1,0,1.8,0.7,2,1.5c-1.3-0.2-2.7-0.2-4,0C10.2,13.3,11,12.7,12,12.7z M12,21.6c-3.1,0-5.9-1.5-7.7-3.8c4.6-3.1,10.7-3.1,15.3,0
		C17.9,20.1,15.1,21.6,12,21.6z"/>
</g>
<g id="Group_45">
	<path id="Path_75" class="st2" d="M21,13.4L21,13.4L21,13.4L21,13.4L21,13.4L21,13.4L21,13.4L21,13.4L21,13.4L21,13.4z M21,13.4
		L21,13.4L21,13.4L21,13.4L21,13.4z M21,13.4L21,13.4L21,13.4L21,13.4z"/>
</g>
<g id="Group_45_1_">
	<path id="Path_75_1_" d="M3.5,22.2c0,0.5,0.4,0.9,0.9,0.9h15.2c0.5,0,0.9-0.4,0.9-0.9c0-5-2.2-9.2-5.4-10.9
		c2.6-1.7,3.3-5.2,1.6-7.8C15,0.9,11.5,0.2,8.9,1.9S5.6,7.1,7.3,9.7c0.4,0.6,1,1.2,1.6,1.6C5.7,13,3.5,17.2,3.5,22.2z M12,2.7
		c2.1,0,3.8,1.7,3.8,3.8s-1.7,3.8-3.8,3.8c-2.1,0-3.8-1.7-3.8-3.8C8.2,4.4,9.9,2.7,12,2.7z M12,12.2c3.5,0,6.4,4,6.7,9.1H5.3
		C5.6,16.2,8.5,12.2,12,12.2z"/>
</g>
</svg>
